<svg width="28" height="11" viewBox="0 0 28 11" fill="none" xmlns="http://www.w3.org/2000/svg">
<path d="M0.519754 10.2292C0.865873 10.4619 1.27616 10.5781 1.75023 10.5781L26.2499 10.5781C26.7241 10.5781 27.1341 10.4619 27.4805 10.2292C27.8269 9.99633 28 9.72097 28 9.40264C28 9.08438 27.8269 8.80902 27.4805 8.5763L15.2307 0.349095C14.8839 0.116443 14.4739 -4.42598e-05 14 -4.42598e-05C13.5261 -4.42598e-05 13.1157 0.116443 12.7696 0.349095L0.519754 8.57637C0.173731 8.80902 7.84118e-07 9.08438 7.84118e-07 9.40271C7.84118e-07 9.72097 0.173731 9.99633 0.519754 10.2292Z" fill="white"/>
</svg>
