<svg id="レイヤー_1" data-name="レイヤー 1" xmlns="http://www.w3.org/2000/svg" viewBox="0 0 122.11 67.71"><defs><style>.cls-1{fill:#584b40;}</style></defs><path class="cls-1" d="M132,109.4a37.29,37.29,0,0,1-12.33,4.67s2.41,14.77,3.37,16.21,7.52,8.24,9,8.24,8-6.8,9-8.24,3.37-16.21,3.37-16.21A37.29,37.29,0,0,1,132,109.4Zm-7.18,21.1c-.35-.41-.62-.74-.76-.94a26.63,26.63,0,0,1-1.33-5.18h2.09Zm3,3.12c-.55-.53-1.09-1.07-1.58-1.59v-7.65h1.58Zm3.28,2.82a15.85,15.85,0,0,1-1.87-1.5V124.38h1.87Zm0-13.47h-8.64c-.72-3.79-1.37-7.77-1.37-7.77a32.09,32.09,0,0,0,10-3.61Zm.9-11.9h0Zm7.95,18.49c-.77,1.15-5.57,6.16-7.44,7.13V124.38h8.77A26.63,26.63,0,0,1,139.94,129.56Zm1.61-6.59H132.5V121h9.41C141.79,121.67,141.67,122.32,141.55,123Zm.61-3.34H132.5v-2.16h10C142.43,118.11,142.3,118.84,142.16,119.63Zm-9.66-3.57v-4.7a32.38,32.38,0,0,0,10.42,3.84s0,.32-.14.86Zm-.5-9a43.23,43.23,0,0,1-14.3,5.41s2.79,17.13,3.91,18.8,8.72,9.56,10.39,9.56,9.28-7.89,10.39-9.56,3.91-18.8,3.91-18.8A43.23,43.23,0,0,1,132,107.08Zm10.1,24c-1.09,1.62-8.48,9.28-10.1,9.28s-9-7.66-10.1-9.28-3.79-18.26-3.79-18.26A42,42,0,0,0,132,107.56a42,42,0,0,0,13.89,5.26S143.18,129.45,142.1,131.08Zm-18.82-9.27c.48,0,1,0,1.08,0l1,0c.1,0,.15,0,.15-.09s0-.08-.13-.08h-.14c-.28,0-.37-.12-.37-.28a1.86,1.86,0,0,1,.14-.56l.49-1.3c0-.06,0-.08.09-.08h2s.07,0,.09.07l.73,1.93a.15.15,0,0,1-.08.21c-.09,0-.13,0-.13.09s.11.06.28.07c.73,0,1.39,0,1.72,0s.42,0,.42-.09,0-.08-.12-.08l-.38,0c-.19,0-.46-.18-.8-1-.59-1.39-2-5.11-2.27-5.61-.09-.21-.14-.29-.23-.29s-.14.1-.25.36l-2.29,5.73c-.18.46-.36.77-.78.82l-.28,0c-.07,0-.11,0-.11.08S123.16,121.81,123.28,121.81Zm2.42-2.91.84-2.24s0-.08.06-.08,0,0,0,.08l.82,2.25s0,.06,0,.06h-1.68S125.69,118.94,125.7,118.9Z" transform="translate(-70.95 -98.15)"/><path class="cls-1" d="M133.34,130.7l.78,0,.7,0c.07,0,.11,0,.11-.06s0-.06-.1-.06h-.1c-.2,0-.26-.08-.26-.2a1.24,1.24,0,0,1,.1-.41l.35-.94s0-.05.06-.05h1.48a.05.05,0,0,1,.06,0l.53,1.4a.11.11,0,0,1-.06.16q-.09,0-.09.06s.08,0,.2.05h1.25c.24,0,.3,0,.3-.06s0-.06-.08-.06a1.42,1.42,0,0,1-.28,0c-.14,0-.33-.13-.58-.72-.43-1-1.48-3.71-1.64-4.07-.07-.15-.11-.21-.17-.21s-.1.07-.18.26L134.06,130c-.13.34-.26.56-.56.6h-.21s-.08,0-.08.06S133.25,130.7,133.34,130.7Zm1.75-2.1.61-1.63s0-.06,0-.06,0,0,0,.06l.6,1.64s0,0,0,0h-1.21S135.08,128.63,135.09,128.6Z" transform="translate(-70.95 -98.15)"/><path class="cls-1" d="M130.08,102.37a.5.5,0,0,0-.77.22,1.35,1.35,0,0,1,1.19,1.89c-.05.09.23-.24.23-.24a2.16,2.16,0,0,0-.12-2.75,1.32,1.32,0,0,0-2,.53C128.66,102.09,129.94,101.67,130.08,102.37Zm3.08,1.87s.28.33.23.24a1.35,1.35,0,0,1,1.2-1.89.51.51,0,0,0-.78-.22c.14-.7,1.42-.28,1.45-.35a1.34,1.34,0,0,0-2-.53A2.16,2.16,0,0,0,133.16,104.24Zm-2.28-4c.53.13.61.57.51.44-.27-.33-.82-.39-.95-.09.08.22.73.37.92.81a2.7,2.7,0,0,1-.17,3.14c-.12.22-.43.39-.41.5s.25,0,.25,0a1.41,1.41,0,0,0-.13.94.84.84,0,0,0,.44-.2.87.87,0,0,1,.29-.7,1.73,1.73,0,0,0-.21.65,2.16,2.16,0,0,0,.53,1,2.21,2.21,0,0,0,.52-1,1.56,1.56,0,0,0-.21-.65.81.81,0,0,1,.29.7.84.84,0,0,0,.44.2,1.45,1.45,0,0,0-.12-.94s.21.13.24,0-.29-.28-.41-.5a2.72,2.72,0,0,1-.17-3.14c.19-.44.85-.59.92-.81-.12-.3-.68-.24-.95.09-.09.13,0-.31.51-.44.56-.28.56-.63.68-.74s-.58-.22-1.07.35c-.07.15.1-.26.32-.37.07-.2.17-.5,0-.68s-.43.35-.53.59c-.17.07,0-.13,0-.13a1.69,1.69,0,0,0-.45-1.15,1.66,1.66,0,0,0-.46,1.15s.14.2,0,.13c-.1-.24-.31-.65-.53-.59s-.05.48,0,.68c.22.11.39.52.32.37-.49-.57-1.19-.46-1.07-.35S130.32,100,130.88,100.28Zm16.46,31.41c.32.71.9,1,1.06.67a1.24,1.24,0,0,0-.3-1.71c.49-.18.56-.54,0-.75a4.23,4.23,0,0,0-3.19.76c-.21.14.16-.34.58-.63s-.38-1.31-.46-.92a6,6,0,0,1-1.06,2.1,4.67,4.67,0,0,0-1.21,2c-.29,1,.39,1.27.58,1.22s.62-.34.2-.51-.69-.23-.4-.82a5,5,0,0,1,1.88-2A2,2,0,0,1,147.34,131.69Zm-2-1c-.35.07-.56.16-.57.14a1.28,1.28,0,0,1,.55-.24,2.87,2.87,0,0,1,.65-.1,2.65,2.65,0,0,1,.77.11,3.51,3.51,0,0,1,1.32-.14l-1.24.16a2.43,2.43,0,0,1,1.16.79,1.23,1.23,0,0,1,.22.39.35.35,0,0,1,0,.17,1.45,1.45,0,0,1-.08-.14,1.81,1.81,0,0,0-.25-.35,2.54,2.54,0,0,0-1.17-.74A2.9,2.9,0,0,0,145.37,130.69Zm-28.71,1a2,2,0,0,1,2.36-.64,5,5,0,0,1,1.88,2c.29.59,0,.64-.4.82s0,.46.2.51.87-.26.58-1.22a4.67,4.67,0,0,0-1.21-2,6,6,0,0,1-1.06-2.1c-.08-.39-.89.64-.46.92s.79.77.58.63a4.23,4.23,0,0,0-3.19-.76c-.6.21-.53.57,0,.75a1.24,1.24,0,0,0-.31,1.71C115.76,132.7,116.34,132.4,116.66,131.69Zm-.89.11a1.23,1.23,0,0,1,.22-.39,2.43,2.43,0,0,1,1.16-.79l-1.24-.16a3.51,3.51,0,0,1,1.32.14,2.65,2.65,0,0,1,.77-.11,2.87,2.87,0,0,1,.65.1,1.28,1.28,0,0,1,.55.24s-.22-.07-.57-.14a2.9,2.9,0,0,0-1.39.05,2.54,2.54,0,0,0-1.17.74,1.81,1.81,0,0,0-.25.35,1.45,1.45,0,0,1-.08.14A.35.35,0,0,1,115.77,131.8Zm5.87,1.77s.66-.87.41-1.19a.35.35,0,0,0-.64,0s-.14-.25-.44-.84a3.91,3.91,0,0,1-.47-1.47c0-.55-1-.36-.4.81A7.37,7.37,0,0,1,121.64,133.57Zm-2.53-1.81a2,2,0,0,1,1.15,1.16c.18.43.64.15-.56-1a1.75,1.75,0,0,0-2.47-.12c-.23.69.66.52.41.2C117.69,131.81,118.53,131.6,119.11,131.76Zm27.66.05a1.75,1.75,0,0,0-2.47.12c-1.2,1.14-.74,1.42-.56,1a2,2,0,0,1,1.15-1.16c.58-.16,1.42.05,1.47.25C146.11,132.33,147,132.5,146.77,131.81Zm-3.27-1.7a3.91,3.91,0,0,1-.47,1.47c-.3.59-.44.84-.44.84a.35.35,0,0,0-.64,0c-.25.32.41,1.19.41,1.19a7.37,7.37,0,0,1,1.54-2.65C144.49,129.75,143.52,129.56,143.5,130.11Zm7.06-7.37a4.46,4.46,0,0,1,.88-.09c.11,0,.32,0,.32-.19s-.21-.21-.35-.19a5.14,5.14,0,0,0-1,.22,2.87,2.87,0,0,0-.89.47c-.06.05,0,.08,0,.1a.08.08,0,0,0,.1,0A4.37,4.37,0,0,1,150.56,122.74Zm1.05-5c-.14,0-.3.19-.15.25s.12.21-.06.22-.59-.58-.58-1a2.15,2.15,0,0,1,.59-1.48,3.11,3.11,0,0,0-.73,1.1,1.42,1.42,0,0,0,.28,1.51c.25.23.57.28.76.06S151.86,117.81,151.61,117.77Zm-3.8,5.58c.15.06.46.31.46.45a.34.34,0,0,0,.06-.22s.22.24.36.22a.63.63,0,0,0-.14-.36.66.66,0,0,0,.46-.22c-.1-.13-.36-.27-.45-.24a.77.77,0,0,0,.14-.35c-.14,0-.36.21-.36.21a.37.37,0,0,0-.07-.22c0,.14-.31.39-.46.45l-.31.14Zm3.95.62c0-.19-.21-.2-.32-.2a4.46,4.46,0,0,1-.88-.09,3.52,3.52,0,0,1-1-.33.08.08,0,0,0-.1,0s0,0,0,.1a2.87,2.87,0,0,0,.89.47,5.14,5.14,0,0,0,1,.22C151.55,124.17,151.76,124.13,151.76,124Zm-2.15,5.55s-1.47-1.88-.61-3.22c.55-.86,1.08-1.1,1.35-1.1a1.86,1.86,0,0,0-1.53.53c-.09-.29-.56-.86-1.09-.67.38,0,.62.7.62,2A3.86,3.86,0,0,0,149.61,129.52Zm1.57-5c0-.18-.16-.21-.27-.23a3.06,3.06,0,0,1-.74-.22,2.29,2.29,0,0,1-.76-.52s-.08,0-.11,0,0,0,0,.11a2,2,0,0,0,.66.64,3.18,3.18,0,0,0,.86.39C151,124.72,151.16,124.7,151.18,124.54ZM151,112.12a2.25,2.25,0,0,1-.25,3.52c-1.51,1.4-2.69,3.89-.74,5.18.87.58,1.88-.46,1.45-1.07a.73.73,0,0,1-1.21.25c-.55-.5-.47-.75-.47-1.36a5.8,5.8,0,0,1,1.6-3.08A2.16,2.16,0,0,0,151,112.12Zm-28.1,26.35c-.28.13,0,.57.28.47.46-.07.57-.77.21-1.13s-.95-.33-1.42.1a2.65,2.65,0,0,0-.51,2.82,5.67,5.67,0,0,0,1.35,2.05,4,4,0,0,1-1.1-2.76c0-.87.54-2,1.08-2A.22.22,0,0,1,122.86,138.47Zm-.31-1.79a1.7,1.7,0,0,0-1.47-.16,2.46,2.46,0,0,1-.24,1.2,4.79,4.79,0,0,0,.1-1.43,1.75,1.75,0,0,0-2.13-1.31c.63.26,1.32,2.14,1.4,3.26a4.49,4.49,0,0,0,1,2.37s-.87-1.89.17-3.1A3.19,3.19,0,0,1,122.55,136.68Zm10.78,5,0,0Zm.25,3.64a.44.44,0,0,0,.68-.19,1.2,1.2,0,0,1-1-1.68c0-.08-.21.21-.21.21a1.92,1.92,0,0,0,.11,2.44c.71.64,1.71-.15,1.75-.47C134.84,145.53,133.7,145.9,133.58,145.28Zm9.78-3.59c.14-.07.73-.27,1-.4s.59-.8.59-.8-.85,0-1.08.2-.93.71-.89.61a1.13,1.13,0,0,1,.41-.34.88.88,0,0,0,.18-.94c-.22.29-.25.46-.59.6a1.42,1.42,0,0,0-.76.78c-.12.34-1.13,2.06-2.2,1.91a.78.78,0,0,0,.6-.94.61.61,0,0,0-.88-.45c.14.09.49.63.25.88a1.84,1.84,0,0,1-1.84.08c-.77-.4-2.09-1.72-3.78-1.59a2.65,2.65,0,0,0-1.06.35,4.9,4.9,0,0,1,3.59,1,4.64,4.64,0,0,0,.4.31c.27.33.51.76.29,1.14.3-.27.42-.51.36-.74a5.74,5.74,0,0,0,.92.38c.28.12.84.41,1,.87a.61.61,0,0,0,0-.7,2.63,2.63,0,0,0,2.11-.71c1.47-1.4,2.41-.86,2.73-.7-.28-.83-.32-.76-.62-.86a.64.64,0,0,0-.66.13C143.25,141.9,143.22,141.76,143.36,141.69Zm-2.57,1.72a3.87,3.87,0,0,0,1.86-1.58A2.72,2.72,0,0,1,140.79,143.41ZM149,120c-.86-1.35.61-3.23.61-3.23a3.9,3.9,0,0,0-1.26,2.45c0,1.32-.24,2-.62,2,.53.18,1-.38,1.09-.68a1.85,1.85,0,0,0,1.53.54C150.08,121.12,149.55,120.88,149,120Zm-6.56,20.71a2.66,2.66,0,0,0-.52-2.82c-.47-.43-1.07-.51-1.42-.1s-.25,1.06.21,1.13c.26.1.56-.34.28-.47a.22.22,0,0,1,.12-.41c.53,0,1.09,1.09,1.07,2a4,4,0,0,1-1.1,2.76A5.77,5.77,0,0,0,142.44,140.73Zm-5.83.77a3,3,0,0,0-2.43-.35,4,4,0,0,1,2.3.52c1.66,1.15,2.27-.55,1.64-.8C138.3,141.28,137.8,142.19,136.61,141.5Zm7-3.26c.09-1.12.77-3,1.4-3.26a1.73,1.73,0,0,0-2.12,1.31,4.48,4.48,0,0,0,.1,1.43,2.47,2.47,0,0,1-.25-1.2,1.71,1.71,0,0,0-1.47.16,3.19,3.19,0,0,1,1.19.83c1,1.21.17,3.1.17,3.1A4.41,4.41,0,0,0,143.64,138.24Zm6.1-10.56c0-.61-.08-.86.47-1.36a.73.73,0,0,1,1.21.25c.43-.61-.58-1.65-1.45-1.08-1.95,1.29-.77,3.79.74,5.18a2.26,2.26,0,0,1,.25,3.53,2.16,2.16,0,0,0,.38-3.44A5.83,5.83,0,0,1,149.74,127.68Zm-30.32,11a1.46,1.46,0,0,0,0-.76,2.91,2.91,0,0,0-1.15-1.43,1.59,1.59,0,0,0-1.09-.38,1.31,1.31,0,0,0-1,.61,1.28,1.28,0,0,0-.17.91,1.11,1.11,0,0,0,.36.59c.25.19.47.12.51,0s0-.26-.19-.42a.75.75,0,0,1-.06-.94.86.86,0,0,1,.62-.42,1.49,1.49,0,0,1,.87.28A2.81,2.81,0,0,1,119.3,138,1.42,1.42,0,0,1,119.42,138.72Zm27.29-2.57a1.61,1.61,0,0,0-1.09.38,2.83,2.83,0,0,0-1.14,1.43,1.41,1.41,0,0,0,0,.76,1.37,1.37,0,0,1,.13-.71,2.76,2.76,0,0,1,1.18-1.24,1.46,1.46,0,0,1,.86-.28.86.86,0,0,1,.62.42.75.75,0,0,1-.06.94c-.14.16-.23.3-.18.42s.26.18.5,0a1.05,1.05,0,0,0,.36-.59,1.19,1.19,0,0,0-.17-.91A1.29,1.29,0,0,0,146.71,136.15Zm2.59-13.27s.06,0,.11,0a2.45,2.45,0,0,1,.76-.52,3.06,3.06,0,0,1,.74-.22c.11,0,.29,0,.27-.23s-.22-.18-.36-.14a3.18,3.18,0,0,0-.86.39,2,2,0,0,0-.66.65C149.26,122.84,149.29,122.87,149.3,122.88Zm.86,11.59a10.22,10.22,0,0,0-2.44.52,10,10,0,0,1,2.74-.73c2.24-1.72.07-3.82-.78-3.53.93,0,1.4,1.62.09,2.73s-2.9.82-4.28,2A3.5,3.5,0,0,0,144,138.7c.19-1.7,2.19-3.2,3.92-3.58a10.09,10.09,0,0,1,3.53-.09,2,2,0,0,0-1.35-.55Zm-1-10.81s0,0,0,.07a1.79,1.79,0,0,0,.52,1c.08.09.32.18.39,0s-.09-.29-.16-.34a2,2,0,0,1-.63-.7S149.17,123.65,149.14,123.66Zm.71-1.64c.07,0,.25-.17.16-.33s-.31,0-.39,0a1.79,1.79,0,0,0-.52,1c0,.06,0,.07,0,.08a.07.07,0,0,0,.08,0A2,2,0,0,1,149.85,122Zm-17,25.11c-.47-.12-.54-.5-.45-.39.24.29.73.35.84.08-.07-.19-.65-.33-.82-.72a2.41,2.41,0,0,1,.15-2.78c.11-.19.39-.34.37-.44s-.22,0-.22,0a1.23,1.23,0,0,0,.11-.83.77.77,0,0,0-.39.17.77.77,0,0,1-.25.62,1.53,1.53,0,0,0,.18-.57,1.91,1.91,0,0,0-.46-.88,2,2,0,0,0-.47.88,1.42,1.42,0,0,0,.19.57.74.74,0,0,1-.26-.62.74.74,0,0,0-.39-.17,1.3,1.3,0,0,0,.11.83s-.19-.12-.21,0,.26.25.36.44a2.41,2.41,0,0,1,.15,2.78c-.17.39-.75.53-.81.72.1.27.6.21.83-.08.09-.11,0,.27-.45.39s-.49.56-.6.65.52.2,1-.3c.06-.14-.09.23-.28.32s-.15.45,0,.6.38-.31.47-.52c.15-.06,0,.12,0,.12a1.48,1.48,0,0,0,.41,1,1.52,1.52,0,0,0,.4-1s-.12-.18,0-.12c.08.21.27.58.47.52s0-.42,0-.6a.74.74,0,0,1-.28-.32c.43.5,1.05.4.94.3S133.36,147.38,132.87,147.13ZM151.82,123c-.37,0-1.84.06-2.18.1-.08,0-.08,0-.08.07s0,.06.09.07c.36,0,2,.17,2.19.14s.33,0,.33-.2S152,123,151.82,123Zm-39,1.13a5.3,5.3,0,0,0,1-.22,3,3,0,0,0,.89-.47s0-.08,0-.1,0,0-.11,0a3.4,3.4,0,0,1-1,.33,4.33,4.33,0,0,1-.87.09c-.11,0-.32,0-.32.2S112.66,124.17,112.8,124.15Zm.59.53a3.18,3.18,0,0,0,.86-.39,2.11,2.11,0,0,0,.66-.64c0-.07,0-.09,0-.11a.09.09,0,0,0-.1,0,2.4,2.4,0,0,1-.76.52,3.19,3.19,0,0,1-.74.22c-.12,0-.29,0-.27.23S113.24,124.72,113.39,124.68Zm1.68-1a.06.06,0,0,0-.08,0,2.06,2.06,0,0,1-.63.71c-.07,0-.25.17-.17.34s.31.05.4,0a1.79,1.79,0,0,0,.52-1S115.09,123.66,115.07,123.66Zm-.21,2.64c.85,1.34-.62,3.22-.62,3.22a3.86,3.86,0,0,0,1.26-2.44c0-1.32.24-2,.62-2-.53-.19-1,.38-1.09.67a1.84,1.84,0,0,0-1.52-.53C113.77,125.2,114.3,125.44,114.86,126.3Zm-2.41-3.85c0,.19.21.2.32.2a4.33,4.33,0,0,1,.87.09,4.18,4.18,0,0,1,1,.33c.06,0,.09,0,.11,0s0,0,0-.1a3,3,0,0,0-.89-.47,5.3,5.3,0,0,0-1-.22C112.66,122.25,112.45,122.3,112.45,122.45Zm.58-.57c0,.18.15.21.27.23a3.19,3.19,0,0,1,.74.22,2.58,2.58,0,0,1,.76.52.09.09,0,0,0,.1,0s0,0,0-.1a2.12,2.12,0,0,0-.66-.65,3.18,3.18,0,0,0-.86-.39C113.24,121.7,113.05,121.72,113,121.88Zm17.82,21.74s-.25-.29-.2-.21a1.2,1.2,0,0,1-1.06,1.68.44.44,0,0,0,.68.19c-.12.62-1.25.25-1.27.31,0,.32,1,1.11,1.74.47A1.91,1.91,0,0,0,130.85,143.62Zm-17.68-14.11a1.42,1.42,0,0,0-.28-1.51c-.25-.24-.57-.28-.76-.06s-.13.57.11.6.3-.18.15-.25a.11.11,0,0,1,.07-.21c.28,0,.58.58.57,1a2.17,2.17,0,0,1-.59,1.48A3.11,3.11,0,0,0,113.17,129.51Zm14.2,12.16a4,4,0,0,1,2.31-.52,3,3,0,0,0-2.43.35c-1.2.69-1.69-.22-1.52-.63C125.1,141.12,125.71,142.82,127.37,141.67Zm3.16,0a2.8,2.8,0,0,0-1.06-.35c-1.69-.13-3,1.19-3.79,1.59a1.82,1.82,0,0,1-1.83-.08c-.24-.25.11-.79.25-.88a.62.62,0,0,0-.89.45.79.79,0,0,0,.61.94c-1.07.15-2.08-1.57-2.21-1.91a1.39,1.39,0,0,0-.76-.78c-.34-.14-.37-.31-.59-.6a.9.9,0,0,0,.19.94,1.09,1.09,0,0,1,.4.34c.05.1-.65-.37-.88-.61s-1.09-.2-1.09-.2.29.67.59.8.88.33,1,.4.11.21,0,.1a.66.66,0,0,0-.67-.13c-.29.1-.33,0-.61.86.31-.16,1.25-.7,2.72.7a2.66,2.66,0,0,0,2.12.71.61.61,0,0,0,0,.7c.12-.46.68-.75,1-.87a5.85,5.85,0,0,0,.93-.38c-.07.23,0,.47.35.74-.21-.38,0-.81.3-1.14l.4-.31A4.89,4.89,0,0,1,130.53,141.64Zm-9.33.19a3.87,3.87,0,0,0,1.86,1.58A2.74,2.74,0,0,1,121.2,141.83Zm9.33-.19,0,0Zm-16.42-23c0,.61.08.86-.46,1.36a.74.74,0,0,1-1.22-.25c-.43.61.59,1.65,1.45,1.07,2-1.29.77-3.78-.74-5.18a2.25,2.25,0,0,1-.25-3.52,2.16,2.16,0,0,0-.38,3.44A5.73,5.73,0,0,1,114.11,118.64Zm1.83,5.16c0-.14.31-.39.46-.45l.31-.13-.31-.14c-.15-.06-.47-.32-.46-.46a.34.34,0,0,0-.06.22s-.23-.24-.37-.21a.82.82,0,0,0,.14.35c-.09,0-.35.11-.45.23.1.12.36.26.45.23a.82.82,0,0,0-.14.35c.14,0,.36-.21.36-.21A.31.31,0,0,0,115.94,123.8Zm-.44-4.56a3.9,3.9,0,0,0-1.26-2.45s1.47,1.88.62,3.23c-.56.86-1.09,1.1-1.35,1.1a1.83,1.83,0,0,0,1.52-.54c.09.3.56.86,1.09.68C115.74,121.23,115.5,120.56,115.5,119.24Zm-3.11,4.16c.36,0,1.84-.06,2.18-.1.07,0,.08,0,.08-.07s0-.06-.09-.06c-.36,0-2-.18-2.19-.15s-.33,0-.33.21S112.24,123.42,112.39,123.4Zm0-5.38c.15-.06,0-.3-.15-.25s-.3.42-.11.61.51.17.76-.06a1.42,1.42,0,0,0,.28-1.51,3.11,3.11,0,0,0-.73-1.1,2.15,2.15,0,0,1,.59,1.48c0,.47-.29,1.06-.57,1A.12.12,0,0,1,112.39,118Zm7.42,20.68a3.48,3.48,0,0,0-1.44-3.28c-1.39-1.14-3-.85-4.29-2s-.84-2.73.1-2.73c-.85-.29-3,1.81-.79,3.53a9.84,9.84,0,0,1,2.74.73,10.15,10.15,0,0,0-2.43-.52h0a2,2,0,0,0-1.35.55,10.15,10.15,0,0,1,3.54.09C117.62,135.5,119.62,137,119.81,138.7Zm-6.92-4.5a2.26,2.26,0,0,1,.25-3.53c1.51-1.39,2.7-3.89.74-5.18-.86-.57-1.88.47-1.45,1.08a.74.74,0,0,1,1.22-.25c.54.5.46.75.46,1.36a5.76,5.76,0,0,1-1.6,3.08A2.16,2.16,0,0,0,112.89,134.2Zm1.7-12.48c-.09-.08-.32-.17-.4,0s.1.28.17.33a2.06,2.06,0,0,1,.63.71.07.07,0,0,0,.08,0s.05,0,0-.08A1.79,1.79,0,0,0,114.59,121.72Zm29.27-10.9a1.36,1.36,0,0,0,.08-1.36c.1-.2-.58-1.21-1.25-1.41a2.58,2.58,0,0,1,1.5,0c-.34-.56-1.86-.91-2.69-.88a18,18,0,0,1-3.38-.06,8,8,0,0,1-1.23-.51,4.53,4.53,0,0,0,3.05,1.39C141.82,108.32,144,109.77,143.86,110.82Zm-24.34-2.9c1.85-1.37,4.62-.8,4.62-.8a5.23,5.23,0,0,0-4.77.61c-2,1.42-3.07.9-3.35.75C116,108.48,116.74,110,119.52,107.92Zm-1.35,2.41a6.37,6.37,0,0,1-4.25,1.61,2.6,2.6,0,0,0,1.49.25c3.33-.38,5.09-4,5.09-4A6.15,6.15,0,0,1,118,110c-5.21,2.22-5.31.14-4.76-.16s.89.52.89.52c.42-.58-.25-1.16-.9-1a1.07,1.07,0,0,0-.43,1.82C114.11,112.43,117.16,111.13,118.17,110.33Zm8.94-3.69a8,8,0,0,1-1.23.51,18,18,0,0,1-3.38.06c-.83,0-2.35.32-2.69.88a2.58,2.58,0,0,1,1.5,0c-.67.2-1.35,1.21-1.25,1.41a1.36,1.36,0,0,0,.08,1.36c-.1-1,2-2.5,3.92-2.79A4.53,4.53,0,0,0,127.11,106.64Zm10.81-.73c-.25-.16,0-.53.31-.55.58-.08.82.82.21,1.09a1.83,1.83,0,0,1-1.33-.06c.29.43,2,1,2.56.08s-.66-2-1.34-1.56C137.74,104.89,137.47,105.71,137.92,105.91Zm-3.69.25a1.51,1.51,0,0,0,1.58.92.71.71,0,0,0-.11-1.41h0a.3.3,0,0,0-.37.21.3.3,0,0,0,.2.38.31.31,0,0,0,.25,0c.11.09.2.36-.11.42s-.83-.2-1.08-.66a1.75,1.75,0,0,1,1.08-2.59c1.25-.42,2.29,1.28,1.4,1.81-.42.26-.91.09-1-.28a.32.32,0,0,1,.31-.43.23.23,0,0,0,.15.12.26.26,0,0,0,.17-.49l0,0a.75.75,0,0,0-1,.9,1,1,0,0,0,1.56.48c1.24-.86,0-2.88-1.68-2.37A2.09,2.09,0,0,0,134.23,106.16Zm-7.48-.68a1,1,0,0,0,1.56-.48.75.75,0,0,0-1-.9l0,0a.26.26,0,0,0,.17.49.23.23,0,0,0,.15-.12.32.32,0,0,1,.31.43c0,.37-.54.54-1,.28-.89-.53.15-2.23,1.4-1.81a1.75,1.75,0,0,1,1.08,2.59c-.25.46-.73.79-1.08.66s-.22-.33-.11-.42a.31.31,0,0,0,.25,0,.3.3,0,0,0,.2-.38.3.3,0,0,0-.37-.21h0a.71.71,0,0,0-.11,1.41,1.51,1.51,0,0,0,1.58-.92,2.09,2.09,0,0,0-1.34-3C126.75,102.6,125.51,104.62,126.75,105.48Zm.14.91a1.83,1.83,0,0,1-1.33.06c-.61-.27-.37-1.17.21-1.09.28,0,.56.39.31.55.45-.2.18-1-.41-1-.68-.43-1.91.67-1.34,1.56S126.6,106.82,126.89,106.39ZM146,110a6.15,6.15,0,0,1-2.48-1.86s1.76,3.67,5.09,4a2.6,2.6,0,0,0,1.49-.25,6.37,6.37,0,0,1-4.25-1.61c1,.8,4.06,2.1,5.35.83a1.07,1.07,0,0,0-.43-1.82c-.65-.14-1.32.44-.89,1,0,0,.33-.82.88-.52S151.19,112.22,146,110Zm-1.5-2.08c2.78,2.09,3.5.56,3.5.56-.28.15-1.36.67-3.35-.75a5.23,5.23,0,0,0-4.77-.61S142.63,106.55,144.48,107.92Z" transform="translate(-70.95 -98.15)"/><path class="cls-1" d="M75.91,153c.17-.47.23-.55.31-.55s.14.07.31.51,2.45,6.41,3.32,8.57c.51,1.27.92,1.49,1.22,1.58a1.9,1.9,0,0,0,.57.09c.08,0,.14,0,.14.08s-.13.11-.28.11-1.25,0-2.24,0c-.27,0-.42,0-.42-.1s0-.09.1-.1.17-.16.08-.39l-1.32-3.49a.13.13,0,0,0-.13-.09H74.51c-.07,0-.11,0-.14.11l-.85,2.52a3,3,0,0,0-.2,1c0,.29.3.42.54.42H74c.1,0,.15,0,.15.08s-.09.11-.22.11c-.34,0-1,0-1.11,0s-.94,0-1.6,0c-.19,0-.27,0-.27-.11s0-.08.12-.08l.42,0c.65-.09.93-.63,1.19-1.34Zm1.48,5.69c.07,0,.07,0,0-.1l-1.35-3.84q-.11-.32-.21,0l-1.25,3.84c0,.07,0,.1,0,.1Z" transform="translate(-70.95 -98.15)"/><path class="cls-1" d="M82.7,163.2c-.17-.09-.18-.14-.18-.46,0-.61,0-1.09.06-1.28s0-.19.1-.19.08,0,.08.13a1.83,1.83,0,0,0,0,.44,1.64,1.64,0,0,0,1.78,1.24,1.62,1.62,0,0,0,1.73-1.61c0-.83-.35-1.32-1.39-2.17l-.54-.45c-1.28-1-1.57-1.8-1.57-2.62a2.21,2.21,0,0,1,2.5-2.17,4.3,4.3,0,0,1,1.12.12,2.84,2.84,0,0,0,.42.06c.1,0,.13,0,.13.08s0,.46,0,1.28c0,.19,0,.28-.09.28s-.08-.06-.09-.16a2.54,2.54,0,0,0-.16-.6c-.07-.13-.4-.64-1.51-.64a1.38,1.38,0,0,0-1.49,1.4c0,.69.32,1.12,1.48,2l.34.26c1.42,1.13,1.76,1.88,1.76,2.84a2.5,2.5,0,0,1-1,2,3.18,3.18,0,0,1-1.82.5A3.7,3.7,0,0,1,82.7,163.2Z" transform="translate(-70.95 -98.15)"/><path class="cls-1" d="M92.93,159.85c0,1.16,0,2.12.06,2.62,0,.35.11.62.47.67l.54.05c.08,0,.1,0,.1.07s-.06.09-.19.09c-.67,0-1.43,0-1.49,0l-1.18,0c-.13,0-.19,0-.19-.09s0-.07.09-.07a2.08,2.08,0,0,0,.36-.05c.25,0,.31-.32.35-.67a25.23,25.23,0,0,0,.07-2.62v-5.11l-1.79,0c-.75,0-1,.09-1.23.38a2,2,0,0,0-.21.38c0,.1-.07.12-.12.12s-.06,0-.06-.11.24-1.16.27-1.25.07-.23.12-.23a2,2,0,0,0,.53.14c.35,0,.81.06.95.06h4.53a4.55,4.55,0,0,0,.86-.06c.18,0,.29-.06.34-.06s.06.07.06.15c0,.36,0,1.19,0,1.32s0,.16-.08.16-.09,0-.1-.2v-.14c0-.36-.33-.64-1.49-.66l-1.52,0Z" transform="translate(-70.95 -98.15)"/><path class="cls-1" d="M102.08,154.06c2.72,0,4.75,1.71,4.75,4.52a4.74,4.74,0,0,1-4.82,4.94,4.52,4.52,0,0,1-4.68-4.74A4.67,4.67,0,0,1,102.08,154.06Zm.26,9c1.08,0,3.33-.62,3.33-4.14,0-2.9-1.76-4.45-3.67-4.45s-3.53,1.32-3.53,4C98.47,161.25,100.16,163.06,102.34,163.06Z" transform="translate(-70.95 -98.15)"/><path class="cls-1" d="M110.08,161.71c0,1,.14,1.31.47,1.4a2.81,2.81,0,0,0,.6.08c.06,0,.1,0,.1.07s-.07.09-.22.09c-.68,0-1.17,0-1.28,0s-.61,0-1.16,0c-.12,0-.19,0-.19-.09s0-.07.1-.07a1.81,1.81,0,0,0,.49-.08c.3-.08.36-.43.36-1.53l0-6.92c0-.47,0-.6.13-.6s.3.26.42.38,2,2.15,3.84,4.14c1.2,1.28,2.51,2.76,2.9,3.16l-.13-6.14c0-.78-.1-1-.47-1.15a4.28,4.28,0,0,0-.59-.06c-.09,0-.1,0-.1-.08s.1-.09.24-.09c.54,0,1.12,0,1.26,0s.53,0,1,0c.14,0,.22,0,.22.09s0,.08-.13.08a1,1,0,0,0-.29,0c-.4.08-.45.35-.45,1.08l0,7.07c0,.8,0,.86-.11.86s-.24-.13-.88-.77c-.14-.12-1.88-1.9-3.16-3.28s-2.76-3-3.15-3.46Z" transform="translate(-70.95 -98.15)"/><path class="cls-1" d="M127.63,153c.17-.47.23-.55.31-.55s.15.07.32.51,2.44,6.41,3.31,8.57c.51,1.27.92,1.49,1.22,1.58a1.94,1.94,0,0,0,.57.09c.09,0,.14,0,.14.08s-.12.11-.28.11-1.25,0-2.23,0c-.27,0-.43,0-.43-.1s0-.09.1-.1.17-.16.09-.39l-1.33-3.49c0-.06,0-.09-.12-.09h-3.06a.14.14,0,0,0-.14.11l-.86,2.52a3,3,0,0,0-.2,1c0,.29.3.42.54.42h.15c.1,0,.14,0,.14.08s-.09.11-.21.11c-.35,0-1,0-1.11,0s-.94,0-1.61,0c-.19,0-.27,0-.27-.11s.06-.08.13-.08l.41,0c.65-.09.94-.63,1.19-1.34Zm1.48,5.69c.07,0,.07,0,.06-.1l-1.35-3.84c-.07-.21-.15-.21-.22,0l-1.25,3.84c0,.07,0,.1,0,.1Z" transform="translate(-70.95 -98.15)"/><path class="cls-1" d="M136.09,161.71c0,1,.14,1.31.47,1.4a2.74,2.74,0,0,0,.6.08c.06,0,.1,0,.1.07s-.08.09-.22.09c-.69,0-1.17,0-1.28,0s-.62,0-1.16,0c-.12,0-.19,0-.19-.09s0-.07.09-.07a1.81,1.81,0,0,0,.5-.08c.3-.08.36-.43.36-1.53v-6.92c0-.47,0-.6.14-.6s.3.26.42.38,2,2.15,3.84,4.14c1.19,1.28,2.51,2.76,2.9,3.16l-.14-6.14c0-.78-.09-1-.47-1.15a4,4,0,0,0-.59-.06c-.08,0-.09,0-.09-.08s.09-.09.24-.09c.54,0,1.12,0,1.25,0s.53,0,1,0c.13,0,.22,0,.22.09s-.05.08-.14.08a1,1,0,0,0-.29,0c-.39.08-.44.35-.44,1.08l0,7.07c0,.8,0,.86-.11.86s-.24-.13-.88-.77c-.13-.12-1.87-1.9-3.15-3.28s-2.76-3-3.15-3.46Z" transform="translate(-70.95 -98.15)"/><path class="cls-1" d="M149.77,159.85c0,1.16,0,2.12.06,2.62,0,.35.11.62.47.67l.54.05c.08,0,.1,0,.1.07s-.06.09-.19.09c-.67,0-1.43,0-1.49,0l-1.18,0c-.13,0-.19,0-.19-.09s0-.07.09-.07a2.08,2.08,0,0,0,.36-.05c.25,0,.31-.32.35-.67a25.23,25.23,0,0,0,.07-2.62v-5.11l-1.79,0c-.75,0-1,.09-1.23.38a2,2,0,0,0-.21.38c0,.1-.07.12-.12.12s-.06,0-.06-.11.24-1.16.27-1.25.07-.23.12-.23a2,2,0,0,0,.53.14c.35,0,.81.06.95.06h4.53a4.55,4.55,0,0,0,.86-.06c.18,0,.29-.06.34-.06s.06.07.06.15c0,.36,0,1.19,0,1.32s0,.16-.08.16-.09,0-.1-.2v-.14c0-.36-.33-.64-1.49-.66l-1.52,0Z" transform="translate(-70.95 -98.15)"/><path class="cls-1" d="M156.56,159.85c0,1.16,0,2.12.06,2.62,0,.35.11.62.47.67.17,0,.43.05.54.05s.1,0,.1.07-.06.09-.19.09c-.67,0-1.43,0-1.49,0l-1.18,0c-.14,0-.2,0-.2-.09s0-.07.1-.07a2.23,2.23,0,0,0,.36-.05c.24,0,.3-.32.35-.67.06-.5.06-1.46.06-2.62v-2.12c0-1.89,0-2.22,0-2.61s-.15-.62-.41-.68a2,2,0,0,0-.38-.05s-.09,0-.09-.07.06-.1.19-.1c.4,0,1.16,0,1.22,0s.82,0,1.18,0c.14,0,.2,0,.2.1s-.05.07-.1.07a2.51,2.51,0,0,0-.3,0c-.33.06-.42.27-.45.69s0,.72,0,2.61Z" transform="translate(-70.95 -98.15)"/><path class="cls-1" d="M166.1,163.11a4.75,4.75,0,0,1-1.9.41,4.54,4.54,0,0,1-4.72-4.74,4.67,4.67,0,0,1,4.76-4.72,4.4,4.4,0,0,1,4.74,4.52,5,5,0,0,1-2.13,4.06l2.47,1.28a11,11,0,0,0,5.09,1.43,7,7,0,0,0,2.37-.47l.17,0a.07.07,0,0,1,.08.07s0,.08-.1.12a9.3,9.3,0,0,1-3.83.83,10.41,10.41,0,0,1-5-1.61Zm-1.61-.05c1.09,0,3.33-.62,3.33-4.14,0-2.9-1.76-4.45-3.67-4.45s-3.52,1.32-3.52,4C160.63,161.25,162.32,163.06,164.49,163.06Z" transform="translate(-70.95 -98.15)"/><path class="cls-1" d="M171.27,157.73c0-1.89,0-2.22,0-2.61s-.12-.61-.52-.69a2.59,2.59,0,0,0-.41,0c-.05,0-.09,0-.09-.07s.06-.1.19-.1c.54,0,1.28,0,1.39,0s.83,0,1.19,0c.14,0,.2,0,.2.1s-.05.07-.1.07a2.51,2.51,0,0,0-.3,0c-.33,0-.42.27-.45.69s0,.72,0,2.61v1.69c0,1.74.38,2.49.9,3a2.36,2.36,0,0,0,1.83.66,2.55,2.55,0,0,0,1.89-.86,4.67,4.67,0,0,0,.7-3v-1.51c0-1.89,0-2.22,0-2.61s-.12-.61-.52-.69a2.71,2.71,0,0,0-.41,0c-.05,0-.1,0-.1-.07s.06-.1.2-.1c.54,0,1.2,0,1.28,0s.65,0,1,0c.13,0,.19,0,.19.1s0,.07-.09.07a2.27,2.27,0,0,0-.3,0c-.33.07-.43.27-.45.69s0,.72,0,2.61V159c0,1.3-.14,2.75-1.11,3.61a3.53,3.53,0,0,1-2.48.89,3.68,3.68,0,0,1-2.49-.85,4,4,0,0,1-1-3.18Z" transform="translate(-70.95 -98.15)"/><path class="cls-1" d="M182,157.73c0-1.89,0-2.22,0-2.61s-.12-.61-.52-.69a2.71,2.71,0,0,0-.41,0s-.1,0-.1-.07.06-.1.19-.1c.28,0,.61,0,.87,0l.5,0h2.76a3.38,3.38,0,0,0,.52-.06c.06,0,.11-.06.17-.06s.05.05.05.11-.06.23-.1.56c0,.13,0,.66-.06.8s0,.13-.08.13-.1-.06-.1-.15a1.32,1.32,0,0,0-.07-.44c-.08-.19-.2-.34-.86-.41-.2,0-1.52,0-1.65,0s-.07,0-.07.12v3.33c0,.08,0,.12.07.12s1.64,0,1.92,0,.46-.05.57-.17.13-.16.18-.16.06,0,.06.1-.06.27-.1.67c0,.24-.05.69-.05.78s0,.23-.08.23-.09,0-.09-.11a1.5,1.5,0,0,0,0-.4c0-.17-.16-.38-.63-.42s-1.52-.07-1.73-.07c-.06,0-.08,0-.08.09v1.06c0,.41,0,1.81,0,2.07,0,.83.21,1,1.4,1a3.33,3.33,0,0,0,1.16-.14c.31-.13.46-.37.54-.86,0-.14,0-.19.11-.19s.07.1.07.19-.1.91-.16,1.17-.18.31-.65.31c-.9,0-1.57,0-2,0l-.94,0H182l-.7,0c-.14,0-.2,0-.2-.09s0-.07.1-.07a2.23,2.23,0,0,0,.36-.05c.24,0,.3-.32.35-.67.06-.5.06-1.46.06-2.62Z" transform="translate(-70.95 -98.15)"/><path class="cls-1" d="M188.59,163.2c-.17-.09-.19-.14-.19-.46a12,12,0,0,1,.07-1.28c0-.13,0-.19.09-.19s.09,0,.09.13a2.43,2.43,0,0,0,0,.44,1.64,1.64,0,0,0,1.79,1.24,1.62,1.62,0,0,0,1.73-1.61c0-.83-.35-1.32-1.39-2.17l-.55-.45c-1.28-1-1.57-1.8-1.57-2.62a2.21,2.21,0,0,1,2.5-2.17,4.33,4.33,0,0,1,1.13.12,2.67,2.67,0,0,0,.42.06c.1,0,.12,0,.12.08s-.05.46-.05,1.28c0,.19,0,.28-.08.28s-.09-.06-.1-.16a1.84,1.84,0,0,0-.16-.6c-.07-.13-.39-.64-1.51-.64a1.37,1.37,0,0,0-1.48,1.4c0,.69.31,1.12,1.47,2l.34.26c1.43,1.13,1.76,1.88,1.76,2.84a2.52,2.52,0,0,1-1,2,3.19,3.19,0,0,1-1.83.5A3.65,3.65,0,0,1,188.59,163.2Z" transform="translate(-70.95 -98.15)"/></svg>