<svg width="42" height="42" viewBox="0 0 42 42" fill="none" xmlns="http://www.w3.org/2000/svg">
<g clip-path="url(#clip0)">
<path d="M20.9998 11.0352L6.02072 23.3839C6.02072 23.4013 6.01635 23.4269 6.00759 23.4619C5.99901 23.4965 5.99445 23.5217 5.99445 23.5396V36.044C5.99445 36.4955 6.15951 36.8867 6.48954 37.2162C6.81949 37.5459 7.2102 37.7118 7.66177 37.7118H17.665V27.708H24.3347V37.7121H34.3379C34.7893 37.7121 35.1806 37.5466 35.5101 37.2162C35.8401 36.8871 36.0057 36.4956 36.0057 36.044V23.5396C36.0057 23.4703 35.9962 23.4179 35.9795 23.3839L20.9998 11.0352Z" fill="#171C60"/>
<path d="M41.7101 20.5703L36.0052 15.829V5.20008C36.0052 4.9571 35.9271 4.75727 35.7704 4.60088C35.6149 4.44466 35.4151 4.36656 35.1715 4.36656H30.1698C29.9266 4.36656 29.7268 4.44466 29.5704 4.60088C29.4142 4.75727 29.3362 4.95719 29.3362 5.20008V10.28L22.9799 4.9654C22.4248 4.51383 21.7647 4.28809 21.0004 4.28809C20.2362 4.28809 19.5763 4.51383 19.0206 4.9654L0.289298 20.5703C0.115658 20.709 0.0204892 20.8957 0.00278761 21.1302C-0.0148227 21.3645 0.0458554 21.5692 0.185004 21.7427L1.80014 23.6705C1.93929 23.8268 2.12141 23.9223 2.34724 23.9572C2.55574 23.9748 2.76423 23.9138 2.97273 23.7749L20.9999 8.74296L39.0272 23.7748C39.1664 23.896 39.3485 23.9565 39.5743 23.9565H39.6526C39.8781 23.9222 40.0598 23.826 40.1997 23.6702L41.815 21.7426C41.9539 21.5687 42.0147 21.3644 41.9967 21.1298C41.9789 20.8959 41.8834 20.7093 41.7101 20.5703Z" fill="#171C60"/>
</g>
<defs>
<clipPath id="clip0">
<rect width="42" height="42" fill="white"/>
</clipPath>
</defs>
</svg>
