<svg width="81" height="135" viewBox="0 0 81 135" fill="none" xmlns="http://www.w3.org/2000/svg">
<path fill-rule="evenodd" clip-rule="evenodd" d="M5.94385 116.543H64.2752V132.364H5.94385V116.543Z" fill="#FF9346"/>
<path fill-rule="evenodd" clip-rule="evenodd" d="M8.5673 116.544H61.6531V116.439C61.7164 100.139 70.9249 103.57 77.0719 87.2709C79.0289 82.0818 76.0354 77.5045 74.746 74.9912C72.8473 71.7024 71.1936 69.8955 69.5723 68.9734L77.5423 28.4694C78.3821 24.2011 75.68 20.0583 71.5838 19.2731C67.4877 18.4879 63.7343 21.4017 62.6467 25.6139L54.5838 56.8376C54.1472 58.1697 51.9616 57.9411 51.9511 56.6929L50.6749 10.5917C50.5544 6.24296 47.3089 2.6615 43.1386 2.63672C38.9684 2.6615 35.7229 6.24296 35.6024 10.5917L34.3259 56.6926C34.3154 57.9408 32.1298 58.1694 31.6932 56.8374L23.6306 25.6136C22.543 21.4012 18.7896 18.4876 14.6935 19.2728C10.5973 20.058 7.8952 24.2009 8.735 28.4692L14.377 57.1422C16.0891 58.3403 17.2561 60.2469 17.3513 62.5187L17.8686 74.8652C18.0278 78.7295 15.0014 82.1844 11.1336 82.1844C7.30853 82.1844 3.97309 79.3571 3.80935 75.4494L3.51245 68.3646V89.1543C3.51245 98.2494 8.52907 107.345 8.5673 116.439V116.544Z" fill="#FFDCD5"/>
<path fill-rule="evenodd" clip-rule="evenodd" d="M11.1334 82.1841C15.0012 82.1841 18.0277 78.7292 17.8684 74.8649L17.3511 62.5184C17.2559 60.2466 16.0889 58.3403 14.3769 57.1419C13.1439 56.2792 11.6286 55.7834 10.0271 55.7834C6.15741 55.7834 3.1302 59.2412 3.29209 63.1075L3.51226 68.364L3.80915 75.4489C3.97289 79.357 7.30808 82.1841 11.1334 82.1841Z" fill="#FFDCD5"/>
<path d="M77.5068 74.5704C77.3563 74.2901 77.2157 74.0288 77.0918 73.7873C77.072 73.7485 77.0512 73.71 77.0293 73.6723C75.5029 71.0285 74.0335 69.1218 72.4876 67.8138L80.1293 28.9783C80.682 26.171 80.1116 23.3284 78.523 20.9743C76.9961 18.7109 74.7077 17.1869 72.0802 16.6833C66.7271 15.6579 61.5755 19.2135 60.0934 24.9544L54.3282 47.2814L53.3105 10.5187C53.1478 4.65328 48.6867 0.032959 43.1541 0C43.1438 0 43.133 0 43.1227 0C37.5901 0.032959 33.129 4.65328 32.9666 10.5189L31.9488 47.2816L26.1836 24.9547C24.7013 19.2138 19.5499 15.6582 14.1969 16.6833C11.5694 17.1869 9.28096 18.7109 7.75403 20.9743C6.16567 23.3284 5.59509 26.1708 6.14775 28.9783L10.9112 53.1863C10.6196 53.1618 10.3251 53.147 10.0269 53.147C7.52068 53.147 5.16109 54.1682 3.38315 56.0224C1.54008 57.9443 0.546564 60.567 0.65757 63.2185L0.875364 68.4155V89.1543C0.875364 94.0776 2.20902 98.8944 3.49863 103.552C4.49004 107.133 5.4353 110.555 5.78599 113.915C4.40382 113.997 3.30721 115.141 3.30721 116.544V132.364C3.30721 133.82 4.48793 135.001 5.94393 135.001H64.2753C65.7313 135.001 66.912 133.82 66.912 132.364V116.544C66.912 115.126 65.7916 113.972 64.3884 113.913C64.8609 107.86 67.0116 105.672 70.089 102.547C73.0052 99.5868 76.6341 95.9025 79.5384 88.2017C81.7203 82.4167 78.9792 77.3125 77.5068 74.5704ZM7.18925 59.6724C7.96365 58.865 8.97141 58.4205 10.0271 58.4205C12.5581 58.4205 14.6179 60.2691 14.7168 62.6289L15.2341 74.9748C15.284 76.1967 14.8233 77.4075 13.9701 78.2968C13.196 79.1034 12.1887 79.5474 11.1335 79.5474C8.60253 79.5474 6.54273 77.6988 6.44385 75.3387L5.92652 62.9975C5.87511 61.7746 6.33548 60.5625 7.18925 59.6724ZM74.6046 86.3404C72.0942 92.9971 69.165 95.9705 66.3324 98.8464C62.9171 102.313 59.6763 105.608 59.106 113.907H46.9739C45.5179 113.907 44.3372 115.087 44.3372 116.544C44.3372 118 45.5179 119.18 46.9739 119.18H61.6385V129.727H8.58091V119.18H23.2434C24.6994 119.18 25.8802 118 25.8802 116.544C25.8802 115.087 24.6994 113.907 23.2434 113.907H11.0813C10.7254 109.899 9.63929 105.968 8.58091 102.145C7.33031 97.6277 6.1488 93.3607 6.1488 89.1541V83.536C7.61508 84.3539 9.31708 84.8211 11.1333 84.8211C13.6381 84.8211 15.9967 83.801 17.7746 81.9484C19.6174 80.0281 20.612 77.4067 20.5028 74.7549L19.9855 62.4085C19.8734 59.737 18.6598 57.365 16.7785 55.6896L11.322 27.9603C11.0425 26.5396 11.3278 25.106 12.1257 23.9237C12.8621 22.8319 13.9506 22.0999 15.1898 21.8624C17.7686 21.3677 20.3006 23.2638 21.0776 26.2728L29.1402 57.4963C29.1544 57.5509 29.17 57.6049 29.1879 57.6584C29.7962 59.5144 31.696 60.6353 33.7015 60.3229C35.5949 60.0286 36.9312 58.561 36.9623 56.7475L38.2382 10.6642C38.321 7.66283 40.4723 5.29796 43.1385 5.27317C45.8048 5.29822 47.9561 7.66283 48.0391 10.6645L49.315 56.7477C49.3462 58.561 50.6827 60.0286 52.5759 60.3231C54.58 60.6345 56.4811 59.5144 57.0894 57.6587C57.1071 57.6052 57.1229 57.5511 57.1371 57.4966L65.1997 26.2731C65.9765 23.2643 68.509 21.3677 71.0875 21.8626C72.3267 22.1002 73.4152 22.8321 74.1516 23.924C74.9492 25.1063 75.2345 26.5396 74.9553 27.9606L67.5545 65.5712C65.6516 65.3289 63.8112 65.6912 61.8914 66.0701C61.3931 66.1685 60.8771 66.2705 60.3392 66.3652C54.8421 67.3326 51.6952 66.8975 49.3971 66.5795C48.6833 66.4806 48.0091 66.3873 47.3568 66.3478C45.0531 66.2062 43.0101 67.5235 41.8845 69.8672C40.4886 72.7729 40.4921 77.5625 43.798 81.2117C43.8768 81.2987 43.9554 81.3815 44.034 81.4654C36.4663 85.7572 32.4733 94.7497 32.4733 100.723C32.4733 102.179 33.654 103.359 35.11 103.359C36.566 103.359 37.7467 102.179 37.7467 100.723C37.7467 95.7008 41.7345 87.4505 48.9694 85.0025C50.8686 85.7793 52.6618 85.9457 54.3354 86.1002C55.3571 86.1946 56.3224 86.2837 57.3325 86.5013C58.7571 86.8071 60.1586 85.9022 60.4652 84.4789C60.7719 83.0553 59.8664 81.6526 58.4428 81.3459C57.1229 81.0617 55.8995 80.9486 54.8203 80.8489C52.0369 80.5918 50.1983 80.422 47.7064 77.6709C46.2997 76.1179 46.1162 74.1316 46.3862 72.9026C46.5742 72.0478 46.9362 71.6531 47.0364 71.6106C47.487 71.6381 48.0373 71.7143 48.6746 71.8026C51.1697 72.1477 54.9407 72.6693 61.2536 71.5582C61.8286 71.4569 62.3802 71.3483 62.9129 71.2431C65.181 70.7956 66.522 70.5639 67.7033 70.9997C69.1434 71.531 70.6901 73.2504 72.4314 76.2547C72.5614 76.5062 72.7064 76.7768 72.8615 77.065C74.1603 79.4852 75.9401 82.7993 74.6046 86.3404Z" fill="black"/>
<path d="M35.1095 113.907H35.1073C33.6514 113.907 32.4717 115.087 32.4717 116.543C32.4717 118 33.6532 119.18 35.1095 119.18C36.5657 119.18 37.7462 118 37.7462 116.543C37.7462 115.087 36.5657 113.907 35.1095 113.907Z" fill="black"/>
</svg>
