<svg width="85" height="144" viewBox="0 0 85 144" fill="none" xmlns="http://www.w3.org/2000/svg">
<path fill-rule="evenodd" clip-rule="evenodd" d="M18.2388 72.5576L17.6853 58.4673C17.5102 54.0075 13.942 50.781 9.84926 50.781C5.70883 50.781 2.46988 54.7272 2.64338 59.1398L2.8791 65.1388L3.19683 73.2245C3.3719 77.6843 6.94044 80.9108 11.0332 80.9108C15.171 80.9108 18.4091 76.9679 18.2388 72.5576Z" fill="#FFDCD5"/>
<path fill-rule="evenodd" clip-rule="evenodd" d="M17.6853 58.467L18.2387 72.5574L18.4502 77.9433C18.6318 82.5732 22.3367 85.9229 26.5855 85.9229C30.7209 85.9229 33.9902 82.1306 34.0717 77.7636C34.0651 77.5918 34.0632 77.4188 34.0664 77.2452C33.7329 68.7554 33.399 60.2653 33.0658 51.7755C32.8838 47.1456 29.1795 43.7959 24.9304 43.7959C20.6323 43.7959 17.2694 47.8929 17.4495 52.4733L17.6853 58.467Z" fill="#FFDCD5"/>
<path fill-rule="evenodd" clip-rule="evenodd" d="M5.48096 120.123H67.8913V141.188H5.48096V120.123Z" fill="#FF9346"/>
<path fill-rule="evenodd" clip-rule="evenodd" d="M50.7594 51.7897L50.7965 48.0592V48.0603L50.7594 51.7897ZM50.7965 48.0592L50.8139 46.3177C50.8617 41.5409 47.3016 37.3607 42.8244 37.4715C38.3987 37.5812 34.6153 41.1663 34.5312 45.9937C34.3764 54.846 34.2213 68.393 34.0666 77.2453C34.0734 77.4188 34.075 77.5915 34.0718 77.7637C33.9904 82.1306 30.7208 85.923 26.5857 85.923C22.3369 85.923 18.6323 82.5733 18.4506 77.9434L18.2389 72.5574C18.4092 76.9674 15.171 80.9106 11.0327 80.9106C6.94 80.9106 3.37146 77.6838 3.19639 73.2243L2.87866 65.1386V88.8649C2.87866 99.2447 8.24623 109.625 8.2871 120.004V120.123H65.0849V120.004C65.1524 101.402 75.0051 105.317 81.5821 86.7156C83.6759 80.7933 80.4728 75.5693 79.0936 72.7012C74.508 64.2293 71.2588 64.3736 66.726 65.2972L67.1197 11.207C67.1526 6.6645 63.7639 2.8125 59.5048 2.8125C55.246 2.8125 51.7376 6.39338 51.635 10.9347L50.7965 48.0592Z" fill="#FFDCD5"/>
<path d="M81.8848 72.315C81.7231 71.9938 81.5721 71.6946 81.4392 71.4181C81.4194 71.3767 81.3986 71.3357 81.3767 71.2952C78.7661 66.4717 76.3205 63.8162 73.4475 62.6853C72.0361 62.1298 70.674 62.0001 69.3158 62.0814L69.7564 11.2326C69.782 8.25947 68.6709 5.34206 66.7076 3.22875C64.7733 1.14666 62.2154 0 59.5046 0C53.751 0 49.1365 4.77337 48.9988 10.8669L48.423 36.358C46.7307 35.2052 44.7824 34.6103 42.7625 34.661C37.4824 34.7915 33.1479 38.6629 32.1241 43.8131C30.2162 42.0508 27.6957 40.9846 24.9301 40.9846C22.2266 40.9846 19.6806 42.1605 17.7614 44.2952C16.4672 45.7346 15.5605 47.5149 15.117 49.4238C13.5692 48.4971 11.7697 47.9689 9.84908 47.9689C7.21817 47.9689 4.74097 49.1127 2.87364 51.1897C0.936182 53.3447 -0.107958 56.2854 0.0088486 59.258L0.242199 65.1957V88.8652C0.242199 94.457 1.6655 99.9408 3.04213 105.244C4.12398 109.412 5.15704 113.393 5.51669 117.311H5.48083C4.02484 117.311 2.84411 118.57 2.84411 120.123V141.188C2.84411 142.741 4.02484 144 5.48083 144H67.8904C69.3464 144 70.5271 142.741 70.5271 141.188V120.123C70.5271 118.57 69.3464 117.311 67.8904 117.311H67.8129C68.2904 110.178 70.6247 107.645 73.9794 104.012C77.087 100.646 80.9548 96.4583 84.0485 87.7084C86.353 81.1907 83.4465 75.4169 81.8848 72.315ZM59.5046 5.625C60.7974 5.625 62.025 6.18019 62.9613 7.18819C63.9409 8.24288 64.4954 9.69834 64.4827 11.1808L64.0339 62.9871C63.9258 63.0082 63.8198 63.0304 63.7109 63.0509C58.6574 63.9996 55.4543 63.7715 53.0863 63.4576L54.2709 11.0022C54.3387 7.98694 56.6379 5.625 59.5046 5.625ZM37.1671 46.0468C37.2222 42.8934 39.7337 40.3622 42.8853 40.2843C44.2032 40.2528 45.4841 40.8116 46.4805 41.861C47.5866 43.0262 48.2126 44.6414 48.1988 46.2938L47.8149 63.2894C46.2601 63.8106 44.9362 65.0824 44.1001 66.9392C42.6327 70.198 42.6383 75.5713 46.1177 79.6688C46.2558 79.8314 46.3935 79.9881 46.5309 80.1408C45.0343 81.0214 43.6674 82.0851 42.4329 83.2795H42.0563C42.036 83.2795 42.0155 83.2798 41.9952 83.2804C40.6647 83.3124 39.374 82.748 38.3755 81.6877C37.2947 80.5399 36.6883 78.9595 36.7046 77.3452C36.7041 77.3218 36.7041 77.2985 36.7035 77.2751C36.7805 72.8556 36.8591 67.1825 36.935 61.695C37.011 56.1794 37.0901 50.4765 37.1671 46.0468ZM21.5675 48.1885C22.4832 47.1704 23.6774 46.6096 24.9303 46.6096C27.8985 46.6096 30.3148 48.9308 30.4311 51.8943L31.4312 77.3435C31.4312 77.364 31.4317 77.3845 31.4317 77.4051C31.4807 78.9241 30.9426 80.426 29.9485 81.5316C29.0328 82.55 27.8384 83.1108 26.5854 83.1108C23.6172 83.1108 21.201 80.7896 21.0847 77.8261L20.3198 58.3501C20.3198 58.3492 20.3198 58.3487 20.3198 58.3478L20.084 52.3567C20.0239 50.8236 20.5647 49.3045 21.5675 48.1885ZM6.68001 55.0834C7.54327 54.1232 8.66889 53.5942 9.84935 53.5942C12.6564 53.5942 14.9414 55.7868 15.0513 58.5858L15.6048 72.6756C15.6601 74.1232 15.1489 75.5575 14.2015 76.6105C13.3383 77.5702 12.2132 78.0986 11.0332 78.0986C8.22618 78.0986 5.9412 75.906 5.83125 73.107L5.2778 59.0226C5.22059 57.5736 5.73185 56.1381 6.68001 55.0834ZM79.1144 85.7236C76.4146 93.359 73.1248 96.9213 70.2223 100.065C66.5707 104.019 63.1076 107.776 62.5331 117.311H48.5498C47.0938 117.311 45.9131 118.57 45.9131 120.123C45.9131 121.676 47.0938 122.936 48.5498 122.936H65.2537V138.375H8.11755V122.936H24.8196C26.2756 122.936 27.4563 121.676 27.4563 120.123C27.4563 118.57 26.2756 117.311 24.8196 117.311H10.807C10.4431 112.692 9.26901 108.154 8.12414 103.744C6.78258 98.5748 5.51537 93.6928 5.51537 88.8654V82.1112C7.11797 83.1336 9.00718 83.7234 11.0327 83.7234C13.0451 83.7234 14.9675 83.054 16.5962 81.8097C18.1985 85.8932 22.0669 88.7355 26.5857 88.7355C29.2894 88.7355 31.8354 87.5596 33.7546 85.4246C33.8714 85.295 33.9843 85.1617 34.0945 85.0266C34.2738 85.2486 34.4589 85.4662 34.6545 85.6741C35.7538 86.8413 37.0368 87.712 38.4253 88.2543C35.5392 92.8465 34.0489 98.0581 34.0489 102.068C34.0489 103.621 35.2296 104.88 36.6856 104.88C38.1416 104.88 39.3223 103.621 39.3223 102.068C39.3223 96.2606 43.6576 86.708 51.5224 83.9154C53.5577 84.8171 55.4794 85.0078 57.2718 85.1844C58.371 85.293 59.4091 85.3951 60.5007 85.646C61.9235 85.9739 63.327 85.0073 63.6337 83.4891C63.9403 81.9706 63.0349 80.4743 61.6116 80.1472C60.2099 79.8249 58.9066 79.6967 57.757 79.5833C54.7358 79.2855 52.7403 79.0892 50.0261 75.8928C48.2827 73.8397 48.1205 71.0024 48.8535 69.3751C49.0415 68.9574 49.2962 68.6481 49.4505 68.6481C49.4529 68.6481 49.4552 68.6483 49.4576 68.6483C49.9465 68.6801 50.5392 68.7676 51.2247 68.8686C53.8828 69.2612 57.8999 69.8535 64.6248 68.591C65.2471 68.4742 65.8314 68.3511 66.3964 68.2321C68.6313 67.7616 70.2463 67.4212 71.6216 67.9629C73.205 68.5862 74.8917 70.5774 76.7782 74.0503C76.9172 74.3375 77.0728 74.6471 77.2389 74.9768C78.6458 77.7713 80.573 81.5988 79.1144 85.7236Z" fill="black"/>
<path d="M36.6856 117.311H36.6835C35.2275 117.311 34.0479 118.57 34.0479 120.123C34.0479 121.676 35.2294 122.936 36.6856 122.936C38.1419 122.936 39.3223 121.676 39.3223 120.123C39.3223 118.57 38.1419 117.311 36.6856 117.311Z" fill="black"/>
</svg>
