<svg width="80" height="135" viewBox="0 0 80 135" fill="none" xmlns="http://www.w3.org/2000/svg">
<path fill-rule="evenodd" clip-rule="evenodd" d="M60.9964 116.543H8.30378H5.7002V132.364H63.5995V116.543H60.9964Z" fill="#FF9346"/>
<path fill-rule="evenodd" clip-rule="evenodd" d="M3.28662 89.1538C3.28662 98.2489 8.26608 107.344 8.30403 116.439V116.543H60.9967V116.439C61.0595 100.139 70.1995 103.57 76.3012 87.2704C78.2437 82.0814 75.2724 77.504 73.9926 74.9907C70.4662 68.8374 67.7919 67.8716 64.5848 68.1822L70.3795 26.5486C70.9791 22.2405 68.0751 18.2525 63.9727 17.6935C59.8702 17.1345 56.3093 20.2501 55.4611 24.5157L49.173 56.1353C48.8129 57.4892 46.6343 57.3811 46.5558 56.1353L42.7766 10.1744C42.4201 5.83881 39.0081 2.44113 34.8737 2.64548C30.7391 2.84982 27.6013 6.56944 27.7406 10.9177L29.0471 51.7433C30.3601 52.9831 31.2104 54.6959 31.2921 56.6552C31.6015 64.0942 31.9111 71.5334 32.2204 78.9724C32.3874 82.986 29.2677 86.5759 25.2802 86.5759C21.2929 86.5759 17.9 83.5977 17.733 79.5841L17.5367 74.8649C17.6948 78.7293 14.6908 82.1842 10.8513 82.1842C7.01062 82.1842 3.74227 79.3157 3.58158 75.4492L3.28688 68.3644V89.1538H3.28662Z" fill="#FFDCD5"/>
<path fill-rule="evenodd" clip-rule="evenodd" d="M17.7326 79.584C17.8993 83.5976 21.2925 86.5758 25.2798 86.5758C29.2673 86.5758 32.387 82.9859 32.22 78.9723C31.9107 71.5333 31.6011 64.0941 31.2917 56.6551C31.2103 54.6955 30.3597 52.983 29.0467 51.7432C27.6703 50.4435 25.7851 49.6633 23.7443 49.6633C19.7567 49.6633 16.637 53.2532 16.804 57.2668L17.0225 62.5184L17.536 74.8648L17.7326 79.584Z" fill="#FFDCD5"/>
<path fill-rule="evenodd" clip-rule="evenodd" d="M10.8512 82.1839C14.6903 82.1839 17.6943 78.729 17.5365 74.8646L17.023 62.5182C16.8621 58.652 13.5942 55.7832 9.75325 55.7832C5.91227 55.7832 2.90747 59.241 3.06817 63.1072L3.2867 68.3638L3.5814 75.4486C3.74209 79.3154 7.01044 82.1839 10.8512 82.1839V82.1839Z" fill="#FFDCD5"/>
<path d="M76.7329 74.5701C76.5835 74.2899 76.444 74.0286 76.321 73.787C76.3014 73.7483 76.2807 73.71 76.259 73.6721C73.8156 69.4082 71.5195 67.0581 68.8141 66.0525C68.3959 65.8969 67.9832 65.7822 67.5738 65.6955L72.9715 26.9149C73.3659 24.0812 72.6454 21.2744 70.9429 19.0113C69.3062 16.8352 66.9551 15.4394 64.3236 15.0808C58.9646 14.3507 54.0511 18.1842 52.8948 23.9979L48.3982 46.6085L45.3843 9.95656C44.9035 4.10885 40.23 -0.255712 34.7449 0.0116514C29.2548 0.28297 24.9391 5.21337 25.1241 11.0026L26.2867 47.3381C25.474 47.1356 24.6224 47.0267 23.7441 47.0267C21.1889 47.0267 18.7832 48.0759 16.9697 49.9809C15.8001 51.2096 14.966 52.717 14.5295 54.3368C13.1136 53.5774 11.4852 53.1471 9.75259 53.1471C7.26495 53.1471 4.92283 54.1683 3.1578 56.0224C1.32865 57.9443 0.34249 60.5671 0.452674 63.2185L0.668854 68.4155V89.1544C0.668854 94.0774 1.99263 98.8941 3.27269 103.552C4.25676 107.133 5.19502 110.555 5.5431 113.915C4.17117 113.997 3.08295 115.141 3.08295 116.544V132.364C3.08295 133.82 4.25492 135.001 5.70013 135.001H63.5994C65.0446 135.001 66.2166 133.82 66.2166 132.364V116.544C66.2166 115.126 65.1045 113.972 63.7117 113.913C64.1807 107.86 66.3155 105.672 69.37 102.547C72.2646 99.5868 75.8667 95.9025 78.7495 88.2015C80.915 82.4165 78.1944 77.3123 76.7329 74.5701V74.5701ZM20.7479 53.6306C21.5645 52.7727 22.6289 52.3002 23.7441 52.3002C26.4057 52.3002 28.5723 54.2616 28.6764 56.766L29.6047 79.0834C29.6587 80.3799 29.1742 81.6648 28.2763 82.6087C27.4594 83.467 26.395 83.9395 25.2796 83.9395C22.6179 83.9395 20.4514 81.978 20.3472 79.4739L20.1512 74.7576C20.1512 74.7574 20.1509 74.7568 20.1509 74.7566V74.7547L19.6374 62.4085L19.4189 57.157C19.365 55.8597 19.8494 54.5746 20.7479 53.6306V53.6306ZM6.93597 59.6722C7.70464 58.8648 8.70493 58.4202 9.75285 58.4202C12.2643 58.4202 14.3083 60.2678 14.4078 62.6269V62.629L14.9213 74.9746C14.9707 76.1965 14.5135 77.4073 13.6666 78.2966C12.8982 79.1032 11.8984 79.5472 10.851 79.5472C8.33878 79.5472 6.29424 77.6986 6.19609 75.3388L5.6826 62.9973C5.63183 61.7744 6.08878 60.5623 6.93597 59.6722V59.6722ZM73.8522 86.3399C71.3604 92.9966 68.453 95.9703 65.6413 98.8459C62.2513 102.313 59.0345 105.607 58.4684 113.906H46.4262C44.981 113.906 43.809 115.087 43.809 116.543C43.809 117.999 44.981 119.18 46.4262 119.18H60.9822V129.727H8.31732V119.18H22.8712C24.3165 119.18 25.4884 117.999 25.4884 116.543C25.4884 115.087 24.3165 113.906 22.8712 113.906H10.7992C10.4459 109.898 9.36786 105.968 8.31732 102.145C7.07599 97.6275 5.90323 93.3605 5.90323 89.1538V83.5355C7.35865 84.3534 9.04804 84.8207 10.8508 84.8207C12.6828 84.8207 14.436 84.2667 15.938 83.2339C17.4984 86.7695 21.0929 89.2124 25.2793 89.2124C27.8347 89.2124 30.2407 88.1632 32.0542 86.2579C33.9346 84.2822 34.948 81.5865 34.8344 78.8619L33.9061 56.5447C33.8132 54.3093 32.9741 52.2788 31.6304 50.6712L30.3559 10.8327C30.2622 7.90151 32.346 5.41033 35.0014 5.27902C37.6544 5.14534 39.9214 7.39394 40.1677 10.3921L43.9454 56.3338C44.0744 58.1437 45.4796 59.5366 47.3728 59.7262C49.3786 59.9282 51.1989 58.7045 51.7006 56.8179C51.7153 56.7633 51.7278 56.7085 51.7388 56.6534L58.0271 25.0338C58.633 21.9869 61.0372 19.9547 63.6216 20.3067C64.863 20.476 65.9815 21.1471 66.7709 22.1967C67.6262 23.3334 67.9868 24.7488 67.7874 26.1827L62.2638 65.869C61.9223 65.9333 61.5789 66.0011 61.2329 66.0699C60.7383 66.1682 60.2261 66.2703 59.6922 66.3649C54.2359 67.3324 51.1123 66.8973 48.8311 66.5793C48.1226 66.4804 47.4534 66.3871 46.8059 66.3475C44.5193 66.2054 42.4915 67.523 41.3742 69.867C39.9887 72.7727 39.9921 77.5623 43.2735 81.2115C43.3518 81.2985 43.4298 81.3813 43.5078 81.4652C35.9962 85.7569 32.0327 94.7495 32.0327 100.722C32.0327 102.179 33.2047 103.359 34.6499 103.359C36.0951 103.359 37.2671 102.179 37.2671 100.722C37.2671 95.7005 41.2253 87.4503 48.4066 85.0023C50.2918 85.7791 52.0717 85.9455 53.7328 86.1C54.747 86.1944 55.7052 86.2835 56.7078 86.501C58.1206 86.8074 59.5129 85.9022 59.8173 84.4787C60.1217 83.0551 59.2229 81.6526 57.8099 81.346C56.4997 81.0617 55.2854 80.9486 54.2141 80.849C51.4514 80.5919 49.6265 80.4221 47.153 77.6709C45.7567 76.1179 45.5746 74.1317 45.8426 72.9027C46.0292 72.0479 46.3885 71.6531 46.4879 71.6107C46.9352 71.6381 47.4814 71.7143 48.114 71.8026C50.5907 72.1475 54.3338 72.6693 60.5998 71.5582C61.1706 71.457 61.7182 71.3483 62.2468 71.2431C64.4981 70.7954 65.8292 70.5637 67.0017 70.9998C68.4312 71.5311 69.9665 73.2505 71.6949 76.2547C71.8239 76.5063 71.9678 76.7768 72.1217 77.0653C73.411 79.485 75.1776 82.7991 73.8522 86.3399V86.3399Z" fill="black"/>
<path d="M34.6497 113.906H34.6476C33.2024 113.906 32.0315 115.087 32.0315 116.543C32.0315 117.999 33.2043 119.18 34.6497 119.18C36.0952 119.18 37.2669 117.999 37.2669 116.543C37.2669 115.087 36.0949 113.906 34.6497 113.906V113.906Z" fill="black"/>
</svg>
