<svg width="42" height="34" viewBox="0 0 42 34" fill="none" xmlns="http://www.w3.org/2000/svg">
<path d="M20.9998 7.03516L6.02072 19.3839C6.02072 19.4013 6.01635 19.4269 6.00759 19.4619C5.99901 19.4965 5.99445 19.5217 5.99445 19.5396V32.044C5.99445 32.4955 6.15951 32.8867 6.48954 33.2162C6.81949 33.5459 7.2102 33.7118 7.66177 33.7118H17.665V23.708H24.3347V33.7121H34.3379C34.7893 33.7121 35.1806 33.5466 35.5101 33.2162C35.8401 32.8871 36.0057 32.4956 36.0057 32.044V19.5396C36.0057 19.4703 35.9962 19.4179 35.9795 19.3839L20.9998 7.03516Z" fill="#D61D18"/>
<path d="M41.7101 16.5702L36.0052 11.8289V1.19996C36.0052 0.956976 35.9271 0.757148 35.7704 0.600753C35.6149 0.444541 35.4151 0.366435 35.1715 0.366435H30.1698C29.9266 0.366435 29.7268 0.444541 29.5704 0.600753C29.4142 0.757148 29.3362 0.957067 29.3362 1.19996V6.27987L22.9799 0.965279C22.4248 0.513705 21.7647 0.287964 21.0004 0.287964C20.2362 0.287964 19.5763 0.513705 19.0206 0.965279L0.289298 16.5702C0.115658 16.7089 0.0204892 16.8956 0.00278761 17.1301C-0.0148227 17.3644 0.0458554 17.569 0.185004 17.7426L1.80014 19.6704C1.93929 19.8266 2.12141 19.9222 2.34724 19.9571C2.55574 19.9746 2.76423 19.9137 2.97273 19.7748L20.9999 4.74284L39.0272 19.7747C39.1664 19.8959 39.3485 19.9564 39.5743 19.9564H39.6526C39.8781 19.9221 40.0598 19.8259 40.1997 19.6701L41.815 17.7425C41.9539 17.5686 42.0147 17.3643 41.9967 17.1297C41.9789 16.8958 41.8834 16.7091 41.7101 16.5702Z" fill="#D61D18"/>
</svg>
