<svg width="167" height="162" viewBox="0 0 167 162" fill="none" xmlns="http://www.w3.org/2000/svg">
<path d="M68.6846 147.554L55.9269 144.939L48.5448 152.585L23.3811 132.723L40.1637 121.27L58.0076 101.742C60.9992 98.4686 66.2854 98.9413 68.6476 102.694L89.7889 126.94C92.9844 130.606 92.0811 136.269 87.9033 138.757L75.4476 146.174C73.2739 147.489 71.2035 147.601 68.6846 147.554Z" fill="#FFDCD5"/>
<path d="M89.7903 126.94L84.6314 121.023L63.1181 133.844C60.9432 135.158 58.8728 135.27 56.3539 135.224L45.1799 134.02L35.5286 142.311L48.5461 152.585L55.927 144.939L68.6847 147.555C71.2036 147.601 73.274 147.489 75.4489 146.175L87.9046 138.757C92.0812 136.269 92.9858 130.606 89.7903 126.94Z" fill="#FFDCD5"/>
<path d="M89.1685 127.457C86.6776 123.594 83.644 125.55 81.1531 121.685C78.6622 117.822 81.6959 115.866 79.2063 112.003C76.7141 108.139 73.6804 110.095 71.1896 106.229C68.6974 102.365 71.7323 100.409 69.2402 96.5446C67.7176 94.1824 64.9592 89.3077 63.2786 88.6362L49.8342 95.2794L73.2307 132.18C75.5139 135.721 80.2357 136.741 83.7778 134.458L88.2537 131.572C89.6221 130.691 90.0655 128.862 89.1889 127.49C89.1825 127.479 89.1762 127.469 89.1685 127.457Z" fill="#FF9346"/>
<path d="M50.4955 100.991L39.9331 107.507C37.929 108.744 35.3018 108.123 34.0646 106.118L28.0941 96.4415C26.8582 94.4373 27.48 91.8101 29.4842 90.573L40.0465 84.0572C41.2862 83.2914 42.912 83.6762 43.6778 84.9172L51.3543 97.3601C52.12 98.5998 51.7352 100.226 50.4955 100.991Z" fill="#FF9346"/>
<path d="M56.9757 66.421L35.5362 79.6488C32.7154 81.3892 31.84 85.088 33.5805 87.9089L44.1518 105.042C45.8935 107.863 49.5909 108.739 52.4118 106.999L73.8512 93.771L141.659 79.0105L100.582 12.437L56.9757 66.421Z" fill="#FED066"/>
<path d="M131.981 63.325L64.5221 78.6525C64.5221 78.6525 41.2964 92.9837 37.9761 95.0324L44.1517 105.042C45.8921 107.863 49.5908 108.739 52.4117 106.999L73.8499 93.7711L141.659 79.0105L131.981 63.325Z" fill="#F5B556"/>
<path d="M73.8512 93.7709L52.4118 106.999C49.5909 108.739 45.8935 107.863 44.1518 105.042L33.5805 87.9087C31.84 85.0879 32.7154 81.3891 35.5362 79.6487L56.9757 66.4209L73.8512 93.7709Z" fill="#FD715C"/>
<path d="M64.5221 78.6523C64.5221 78.6523 41.2964 92.9835 37.9761 95.0323L44.1517 105.042C45.8921 107.863 49.5909 108.739 52.4117 106.999L73.8499 93.7709L64.5221 78.6523Z" fill="#D83E3A"/>
<path d="M145.727 83.7411L142.801 85.5466C141.283 86.4818 139.294 86.0116 138.359 84.4941L94.1998 12.9262C93.2647 11.4087 93.7348 9.42111 95.2523 8.48464L98.1789 6.67923C99.6964 5.74276 101.684 6.21418 102.62 7.73037L146.778 79.2996C147.715 80.8158 147.244 82.8047 145.727 83.7411Z" fill="#FD715C"/>
<path d="M146.779 79.2997L139.514 67.5244L131.094 72.7202L138.359 84.4943C139.294 86.0117 141.283 86.4819 142.801 85.5467L145.727 83.7413C147.244 82.8048 147.715 80.8159 146.779 79.2997Z" fill="#D83E3A"/>
<path d="M82.5151 137.202C84.1103 139.813 87.5223 140.638 90.1342 139.041L98.2146 134.103C100.825 132.508 101.648 129.097 100.053 126.486C98.458 123.873 95.0459 123.049 92.434 124.645L84.3536 129.585C81.743 131.18 80.9199 134.59 82.5151 137.202Z" fill="#FFDCD5"/>
<path d="M100.053 126.486C99.3995 125.415 98.4376 124.65 97.3533 124.223C97.6374 126.335 96.6882 128.513 94.7541 129.696L86.6737 134.634C85.1333 135.576 83.3152 135.669 81.7544 135.056C81.8538 135.794 82.101 136.524 82.515 137.201C84.1102 139.813 87.5223 140.638 90.1342 139.041L98.2133 134.103C100.825 132.506 101.648 129.097 100.053 126.486Z" fill="#FFDCD5"/>
<path d="M79.0547 126.295C80.6741 128.948 84.1371 129.784 86.7898 128.163L94.7262 123.312C97.3764 121.692 98.2122 118.231 96.5928 115.58C94.9734 112.928 91.5104 112.091 88.859 113.712L80.9213 118.564C78.2711 120.183 77.4353 123.645 79.0547 126.295Z" fill="#FFDCD5"/>
<path d="M96.5927 115.58C95.948 114.524 95.0077 113.762 93.9463 113.321C94.2152 115.451 93.2519 117.639 91.3026 118.83L83.3661 123.682C81.7697 124.657 79.8827 124.737 78.2773 124.072C78.3742 124.837 78.6264 125.594 79.0546 126.295C80.6739 128.948 84.137 129.784 86.7897 128.163L94.7261 123.312C97.3762 121.692 98.2121 118.231 96.5927 115.58Z" fill="#FFDCD5"/>
<path d="M73.1388 116.757C74.7582 119.409 78.2212 120.246 80.8739 118.625L88.8104 113.773C91.4605 112.154 92.2963 108.692 90.6782 106.042C89.0575 103.389 85.5945 102.553 82.9431 104.174L75.0067 109.025C72.3565 110.644 71.5194 114.106 73.1388 116.757Z" fill="#FFDCD5"/>
<path d="M90.6782 106.041C90.0463 105.006 89.1315 104.253 88.0969 103.808C88.3301 105.912 87.3694 108.059 85.4442 109.235L77.5078 114.085C75.8909 115.074 73.9734 115.144 72.354 114.45C72.4432 115.243 72.6955 116.031 73.1389 116.756C74.7582 119.409 78.2226 120.246 80.874 118.624L88.8104 113.773C91.4606 112.154 92.2964 108.692 90.6782 106.041Z" fill="#FFDCD5"/>
<path d="M67.5621 106.975C69.1828 109.626 72.6458 110.463 75.2972 108.842L83.2336 103.991C85.8838 102.371 86.7196 98.9094 85.1015 96.2593C83.4821 93.6066 80.0178 92.7708 77.3664 94.3914L69.4299 99.242C66.7798 100.861 65.944 104.323 67.5621 106.975Z" fill="#FFDCD5"/>
<path d="M85.1015 96.2593C84.3562 95.0387 83.2184 94.2079 81.9519 93.8193C82.4348 96.0885 81.4805 98.5132 79.3884 99.7924L71.452 104.644C70.0199 105.518 68.3533 105.671 66.8665 105.215C66.9964 105.82 67.2219 106.416 67.5634 106.975C69.1828 109.626 72.6458 110.463 75.2972 108.842L83.2349 103.992C85.8851 102.371 86.7196 98.9094 85.1015 96.2593Z" fill="#FFDCD5"/>
<path d="M79.4688 113.781L77.9972 114.68C75.6809 116.095 72.688 115.417 71.3107 113.164L68.8708 109.177C67.6769 107.227 65.0803 106.646 63.0825 107.886C61.077 122.602 40.1638 121.271 40.1638 121.271L53.1241 101.751C53.979 100.273 55.1932 99.0216 56.6533 98.1157L63.968 93.5798C67.524 91.3743 72.1465 92.4051 74.2743 95.8771L81.1672 107.127C82.5496 109.383 81.789 112.363 79.4688 113.781Z" fill="#FFDCD5"/>
<path d="M81.1671 107.128L81.111 107.036C80.7122 107.677 80.1618 108.24 79.4699 108.664L77.9971 109.564C75.682 110.979 72.6891 110.3 71.3105 108.047L68.8719 104.061C67.6781 102.11 65.0801 101.529 63.0823 102.769C62.2414 108.941 58.4675 114.854 54.2566 118.905C58.5172 117.034 62.2873 113.722 63.0823 107.886C65.0801 106.646 67.6781 107.226 68.8719 109.178L71.3105 113.164C72.6879 115.417 75.682 116.096 77.9971 114.68L79.4699 113.781C81.7888 112.363 82.5495 109.383 81.1671 107.128Z" fill="#EFD5BD"/>
<path d="M48.95 153.067L28.3362 128.569L35.1234 122.858C35.3387 122.678 35.6572 122.705 35.8381 122.919L55.7996 146.64C55.9805 146.854 55.9525 147.174 55.7384 147.354L48.95 153.067Z" fill="#FF940A"/>
<path d="M55.7996 146.64L45.1799 134.02L38.0042 140.058L48.95 153.065L55.7385 147.354C55.9525 147.174 55.9793 146.854 55.7996 146.64Z" fill="#FF940A"/>
<path d="M50.4216 152.837L28.1412 126.702C27.9641 126.493 27.6571 126.452 27.4316 126.606L3.70256 145.337C2.90879 145.964 2.44629 146.918 2.44629 147.928V155.549C2.44629 157.372 3.92426 158.85 5.74751 158.85H44.5645C45.5647 158.85 46.5113 158.396 47.1382 157.617L50.3999 153.559C50.591 153.359 50.6012 153.048 50.4216 152.837Z" fill="#FF9346"/>
<path d="M50.4217 152.837L39.8568 140.444L24.3037 158.85H44.5646C45.5648 158.85 46.5114 158.396 47.1383 157.617L50.4 153.557C50.5911 153.358 50.6013 153.048 50.4217 152.837Z" fill="#FF9346"/>
<path d="M131.906 37.0133C132.368 37.765 133.171 38.1778 133.993 38.1778C134.43 38.1778 134.872 38.0606 135.272 37.8147L148.533 29.6578C149.684 28.9507 150.043 27.4434 149.334 26.2929C148.627 25.1424 147.12 24.7831 145.968 25.4915L132.709 33.6483C131.558 34.3555 131.199 35.8627 131.906 37.0133Z" fill="black"/>
<path d="M164.791 53.2671L145.35 51.3789C144.006 51.2464 142.81 52.2325 142.679 53.5767C142.549 54.9222 143.532 56.1186 144.878 56.2485L164.317 58.1367C164.398 58.1444 164.477 58.1482 164.556 58.1482C165.801 58.1482 166.866 57.2028 166.989 55.9389C167.118 54.5947 166.135 53.3983 164.791 53.2671Z" fill="black"/>
<path d="M121.98 19.9288C122.271 20.0422 122.572 20.097 122.866 20.097C123.846 20.097 124.771 19.5045 125.147 18.5362L132.227 0.333031C132.717 -0.925789 132.093 -2.34387 130.834 -2.83313C129.575 -3.32239 128.157 -2.69935 127.668 -1.44053L120.587 16.7627C120.097 18.0215 120.72 19.4396 121.98 19.9288Z" fill="black"/>
<path d="M104.702 6.44599C103.059 3.78438 99.5576 2.95366 96.8947 4.59726L93.9681 6.40267C92.6774 7.19772 91.7753 8.44889 91.4262 9.92304C91.0771 11.3985 91.323 12.921 92.1181 14.2104L93.8012 16.937L55.3346 64.5581L47.2108 69.5704C46.0616 70.2801 45.7048 71.7874 46.4145 72.9366C46.877 73.6858 47.6784 74.0986 48.499 74.0986C48.936 74.0986 49.3806 73.9814 49.7807 73.7342L56.178 69.787L68.6452 89.9931C66.8436 89.8759 65.0471 90.2492 63.415 91.0876C63.3856 91.1016 63.3576 91.1169 63.3283 91.1322C63.1092 91.2481 62.8913 91.3692 62.6785 91.5004L55.3639 96.0362C54.5612 96.5344 53.8209 97.1231 53.1482 97.7818C52.334 98.5781 51.6218 99.4763 51.0459 100.457L49.2405 103.179L47.9129 105.177C47.9014 105.173 47.8887 105.169 47.8785 105.165C47.8581 105.156 47.839 105.146 47.8186 105.137C47.7154 105.091 47.6135 105.04 47.5153 104.986C47.4937 104.974 47.4733 104.963 47.4529 104.951C47.3446 104.886 47.2389 104.816 47.1382 104.741C47.1166 104.726 47.0962 104.709 47.0758 104.693C46.984 104.621 46.8936 104.545 46.8082 104.463C46.798 104.453 46.7866 104.444 46.7764 104.434C46.6846 104.345 46.598 104.248 46.5152 104.148C46.4973 104.127 46.4808 104.104 46.4629 104.082C46.3814 103.978 46.3037 103.871 46.2336 103.757L35.6623 86.6244C35.1629 85.8153 35.0087 84.861 35.2278 83.9373C35.447 83.0123 36.0127 82.2287 36.8205 81.7305L39.9854 79.7786C41.1346 79.0689 41.4926 77.5617 40.783 76.4124C40.0733 75.2619 38.566 74.9051 37.4168 75.6148L34.2519 77.5668C32.3318 78.7517 30.9876 80.6132 30.4665 82.8097C30.1314 84.2278 30.1671 85.6752 30.5519 87.0398L28.1986 88.4922C25.0503 90.4353 24.0692 94.5774 26.0122 97.727L31.9827 107.404C32.923 108.929 34.4022 109.995 36.1465 110.409C36.6638 110.532 37.1861 110.593 37.706 110.593C38.9355 110.593 40.1434 110.253 41.2162 109.59L43.5733 108.136C44.0651 108.584 44.604 108.97 45.1825 109.288L38.3902 119.519L36.7886 120.613C36.4548 120.443 36.0879 120.336 35.7031 120.303C34.9157 120.237 34.1512 120.479 33.5486 120.986L29.3338 124.533C28.3515 123.906 27.0633 123.896 26.0543 124.584C26.0071 124.617 25.96 124.65 25.9154 124.686L2.18637 143.417C0.796318 144.514 0 146.158 0 147.928V155.549C0 158.717 2.5788 161.296 5.74751 161.296H44.5645C46.3151 161.296 47.9485 160.514 49.0456 159.148L52.264 155.143C52.8271 154.499 53.0666 153.673 52.9813 152.872L57.312 149.226C57.735 148.871 58.0395 148.415 58.2102 147.904L68.1929 149.95C68.3407 149.981 68.4897 149.997 68.6401 150C68.9318 150.005 69.2223 150.009 69.5128 150.009C71.8789 150.009 74.2296 149.769 76.7001 148.276L86.7566 142.286C86.9248 142.297 87.093 142.303 87.2599 142.303C88.7111 142.303 90.1407 141.904 91.411 141.127L99.4901 136.189C103.247 133.893 104.437 128.967 102.141 125.21C101.358 123.925 100.249 122.919 98.9397 122.256C100.207 119.826 100.211 116.808 98.681 114.303C97.57 112.485 95.8232 111.203 93.7579 110.686C94.1847 108.726 93.8904 106.608 92.7653 104.765C91.7027 103.023 90.054 101.782 88.1059 101.223C88.6385 99.1769 88.376 96.9256 87.1898 94.9826C86.8815 94.478 86.5209 94.0193 86.1221 93.6014L134.594 83.0505L136.277 85.7771C137.349 87.5137 139.21 88.4706 141.115 88.4706C142.131 88.4706 143.159 88.1992 144.085 87.6271L147.012 85.8217C148.301 85.0254 149.205 83.7755 149.554 82.3001C149.903 80.8259 149.657 79.3034 148.861 78.0127L104.702 6.44599ZM38.6488 105.426C38.2347 105.681 37.7468 105.76 37.2753 105.648C36.8026 105.536 36.4026 105.247 36.1465 104.834L30.176 95.1571C29.6498 94.3047 29.9161 93.1822 30.7685 92.6548L32.844 91.3743L40.7243 104.145L38.6488 105.426ZM45.2309 156.084C45.0678 156.288 44.8257 156.404 44.5645 156.404H5.74751C5.27609 156.404 4.89258 156.02 4.89258 155.549V147.928C4.89258 147.664 5.01107 147.42 5.21748 147.257L27.4736 129.688L47.5332 153.22L45.2309 156.084ZM50.205 148.812L32.6095 128.171L35.2151 125.978L52.6793 146.732L50.205 148.812ZM74.1837 144.08C72.6905 144.984 71.2889 145.143 68.9522 145.112L56.4188 142.542C56.122 142.481 55.8225 142.476 55.5333 142.523L40.1484 124.242L41.5423 123.291C41.5436 123.291 41.5449 123.289 41.5474 123.288C41.5704 123.272 41.5933 123.252 41.6162 123.236C41.6685 123.196 41.7207 123.157 41.7691 123.115C41.7933 123.093 41.8163 123.07 41.8392 123.049C41.8889 123.003 41.9347 122.956 41.9793 122.906C41.9972 122.887 42.0163 122.866 42.0329 122.846C42.0876 122.78 42.1399 122.712 42.187 122.642C42.1921 122.636 42.1972 122.631 42.201 122.624L42.2125 122.608C42.2163 122.601 42.2201 122.595 42.224 122.589L55.1613 103.104C55.1893 103.062 55.2161 103.018 55.2415 102.975C55.8939 101.847 56.8278 100.887 57.9427 100.195L65.2573 95.6591C65.3924 95.575 65.53 95.4998 65.6689 95.4298C65.7313 95.3979 65.795 95.3712 65.8574 95.3419C65.9313 95.3087 66.0039 95.2756 66.0791 95.2463C66.1645 95.2119 66.2498 95.18 66.3378 95.1507C66.3824 95.1342 66.4282 95.1202 66.4741 95.1061C66.5811 95.073 66.6894 95.0412 66.7977 95.0144H66.799C67.1927 94.9188 67.5928 94.8717 67.9916 94.8692C68.0005 94.8692 68.0094 94.8692 68.017 94.8692C68.1343 94.8692 68.2502 94.8743 68.3661 94.8819C68.4031 94.8857 68.44 94.8883 68.4783 94.8921C68.5815 94.901 68.6834 94.9125 68.7853 94.9278C68.8452 94.9367 68.9064 94.9494 68.9675 94.9609C69.123 94.9902 69.2771 95.0271 69.4287 95.0717C69.4874 95.0883 69.5472 95.1036 69.6046 95.1214C69.6823 95.1482 69.7575 95.1775 69.8339 95.2081C69.8938 95.231 69.955 95.2539 70.0136 95.2794C70.0887 95.3113 70.1639 95.3469 70.2378 95.3839C70.2939 95.4119 70.3487 95.44 70.4022 95.4693C70.4761 95.5088 70.55 95.5508 70.6226 95.5954C70.6723 95.626 70.7207 95.6578 70.7691 95.6897C70.8417 95.7381 70.9144 95.7865 70.9844 95.84C71.0278 95.8719 71.0685 95.9063 71.1093 95.9394C71.1819 95.9967 71.2533 96.0541 71.3221 96.1165C71.6559 96.4172 71.9489 96.7638 72.1885 97.1549L72.3681 97.4492L74.9762 101.705L78.2494 107.046L79.0814 108.405C79.1604 108.534 79.2254 108.668 79.2751 108.807C79.428 109.225 79.4522 109.681 79.3439 110.132C79.1884 110.78 78.7794 111.336 78.1933 111.694L76.7217 112.593L76.7205 112.595C76.6185 112.656 76.5153 112.708 76.4083 112.754C76.3854 112.764 76.3624 112.774 76.3395 112.783C76.2338 112.826 76.1267 112.862 76.0184 112.89C76.0057 112.894 75.9917 112.897 75.9789 112.899C75.877 112.923 75.7751 112.941 75.6732 112.953C75.6528 112.955 75.6337 112.958 75.6133 112.96C75.5037 112.969 75.3941 112.972 75.2858 112.968C75.2654 112.967 75.2451 112.965 75.2247 112.964C75.1138 112.956 75.0042 112.944 74.8959 112.922C74.8947 112.921 74.8934 112.921 74.8921 112.921C74.7762 112.897 74.6641 112.863 74.5532 112.823C74.543 112.819 74.5341 112.816 74.5239 112.812C74.2971 112.726 74.0831 112.603 73.8907 112.447C73.8894 112.447 73.8894 112.445 73.8894 112.445C73.7926 112.366 73.7059 112.282 73.6257 112.193C73.6193 112.186 73.6129 112.178 73.6053 112.169C73.5288 112.08 73.4575 111.987 73.3976 111.887L70.959 107.901C70.0505 106.415 68.6095 105.373 66.9009 104.968C65.1503 104.551 63.336 104.849 61.7943 105.806C61.1738 106.191 60.7584 106.832 60.6591 107.554C60.631 107.763 60.5966 107.968 60.5597 108.171C60.5316 108.319 60.4998 108.465 60.4667 108.61C60.4565 108.659 60.4463 108.709 60.4348 108.757C60.3915 108.94 60.3444 109.121 60.2921 109.3C60.2908 109.306 60.2883 109.314 60.2857 109.321C60.0118 110.26 59.627 111.131 59.1327 111.922C59.1314 111.923 59.1314 111.924 59.1314 111.926C58.2204 113.386 56.9336 114.62 55.2466 115.646C54.0923 116.348 53.7254 117.853 54.4274 119.007C55.1294 120.161 56.6341 120.528 57.7885 119.826C58.9798 119.101 60.036 118.289 60.9597 117.393L71.1756 133.504C73.0574 136.423 76.3102 138.116 79.6751 138.116C79.8535 138.116 80.0319 138.107 80.2103 138.097C80.2803 138.225 80.3517 138.351 80.4281 138.477C80.7161 138.947 81.0473 139.38 81.4156 139.774L74.1837 144.08ZM76.2592 126.095C76.2592 126.096 76.2605 126.098 76.2605 126.099C76.3013 126.214 76.3459 126.326 76.393 126.439C76.3981 126.452 76.4032 126.466 76.4096 126.48C76.4516 126.582 76.4975 126.682 76.5446 126.783C76.5561 126.805 76.565 126.829 76.5765 126.852C76.6211 126.946 76.6708 127.039 76.7192 127.132C76.7345 127.16 76.7472 127.188 76.7625 127.215C76.8275 127.335 76.8963 127.453 76.9677 127.57C77.09 127.772 77.2237 127.964 77.3614 128.151C77.411 128.218 77.462 128.283 77.513 128.348C77.6034 128.462 77.6964 128.573 77.792 128.683C77.8595 128.759 77.9258 128.838 77.9959 128.912C78.0481 128.968 78.1054 129.019 78.1602 129.074C78.3577 129.271 78.5641 129.457 78.7807 129.633C78.8036 129.651 78.8253 129.67 78.8482 129.687C79.2687 130.021 79.7197 130.31 80.2001 130.553C79.7579 131.385 79.4662 132.287 79.3362 133.216C77.7232 133.115 76.1968 132.266 75.2973 130.869L64.0507 113.132C64.5718 112.056 64.9732 110.906 65.2458 109.682C65.4204 109.672 65.5962 109.687 65.7695 109.728C66.2002 109.83 66.5607 110.088 66.785 110.454L69.2236 114.441C69.2274 114.446 69.2313 114.451 69.2351 114.457C69.3548 114.652 69.4835 114.841 69.6224 115.023C69.7243 115.157 69.8339 115.282 69.9435 115.407C69.9817 115.45 70.0161 115.497 70.0556 115.54C70.0607 115.562 70.0671 115.584 70.0722 115.605C70.1104 115.775 70.1537 115.943 70.2021 116.11C70.2174 116.158 70.2314 116.207 70.2455 116.255C70.3053 116.444 70.369 116.631 70.4429 116.814C70.4493 116.834 70.4582 116.851 70.4659 116.869C70.5334 117.037 70.6086 117.202 70.6888 117.365C70.7118 117.412 70.7347 117.459 70.7589 117.505C70.8507 117.683 70.9462 117.859 71.0507 118.032C72.1604 119.849 73.9047 121.129 75.9662 121.648C75.6477 123.106 75.7369 124.649 76.2592 126.095ZM77.82 96.9804L78.6418 96.4784C79.3668 96.035 80.2205 95.9012 81.0473 96.0999C81.873 96.3 82.5712 96.8084 83.0133 97.5333C83.9268 99.0291 83.4541 100.99 81.9583 101.904L81.1416 102.403L78.7234 98.457L77.82 96.9804ZM96.0513 126.365C96.8552 126.559 97.5343 127.054 97.9662 127.76C98.8556 129.217 98.3943 131.125 96.938 132.016L88.8589 136.954C88.2104 137.351 87.4561 137.489 86.7133 137.359C86.6713 137.351 86.6279 137.34 86.5846 137.334C86.563 137.329 86.54 137.326 86.5184 137.321C85.7131 137.128 85.034 136.632 84.6021 135.926C84.4084 135.609 84.2836 135.271 84.2135 134.927C84.2122 134.917 84.2122 134.908 84.2097 134.899C84.016 133.894 84.3396 132.867 85.0302 132.153C85.0493 132.134 85.0672 132.114 85.0863 132.096C85.1219 132.062 85.1589 132.029 85.1958 131.995C85.2328 131.962 85.271 131.929 85.3118 131.899C85.3411 131.874 85.3691 131.851 85.3997 131.829C85.4723 131.775 85.545 131.724 85.6227 131.676C85.6252 131.674 85.6278 131.673 85.629 131.672L87.2344 130.691C87.5173 130.559 87.795 130.416 88.0651 130.251L94.2458 126.472C94.8192 126.258 95.4422 126.219 96.0513 126.365ZM90.4235 115.642C91.081 115.328 91.8199 115.249 92.5385 115.422C93.3642 115.621 94.0624 116.13 94.5058 116.855C95.4193 118.351 94.9453 120.311 93.4508 121.224L91.9958 122.113C91.7104 122.245 91.4301 122.392 91.1587 122.558L85.0098 126.315C83.8619 126.766 82.5699 126.501 81.692 125.691C81.6908 125.69 81.6908 125.69 81.6908 125.69C81.622 125.626 81.557 125.561 81.4946 125.491C81.478 125.472 81.4627 125.452 81.4461 125.432C81.4003 125.379 81.3544 125.325 81.3111 125.268C81.2512 125.188 81.1951 125.105 81.1416 125.02C81.0881 124.93 81.0397 124.841 80.9951 124.75C80.9811 124.72 80.9696 124.691 80.9556 124.66C80.9276 124.598 80.8996 124.534 80.8753 124.469C80.8626 124.435 80.8524 124.402 80.8409 124.367C80.8206 124.305 80.8014 124.244 80.7849 124.181C80.776 124.147 80.767 124.111 80.7594 124.077C80.7454 124.014 80.7326 123.951 80.7212 123.886C80.7161 123.853 80.711 123.819 80.7059 123.786C80.697 123.72 80.6906 123.654 80.6868 123.588C80.6842 123.556 80.6817 123.524 80.6804 123.492C80.6779 123.423 80.6779 123.354 80.6804 123.287C80.6804 123.256 80.6804 123.227 80.683 123.198C80.6855 123.128 80.6944 123.059 80.7021 122.99C80.7059 122.961 80.7072 122.931 80.7123 122.902C80.7212 122.841 80.7339 122.78 80.7467 122.719C80.8855 122.064 81.2283 121.451 81.7659 120.981C81.7876 120.962 81.8067 120.939 81.8284 120.92C81.859 120.893 81.8883 120.866 81.9201 120.841C81.9966 120.797 82.0743 120.758 82.1495 120.712L90.0872 115.86C90.2018 115.79 90.3139 115.717 90.4235 115.642ZM86.6228 105.883C87.4485 106.081 88.1467 106.591 88.5901 107.316C89.4412 108.71 89.087 110.508 87.8243 111.486C87.7428 111.531 87.6625 111.577 87.5823 111.625L81.4538 115.371C81.4742 115.356 81.4933 115.338 81.5137 115.321C81.6309 115.228 81.7481 115.134 81.8577 115.034C81.9265 114.973 81.9915 114.908 82.0577 114.845C82.1571 114.748 82.2565 114.65 82.3508 114.546C82.4157 114.478 82.4769 114.405 82.5381 114.334C82.626 114.229 82.7126 114.125 82.7942 114.016C82.8515 113.941 82.9088 113.865 82.9636 113.786C83.0413 113.675 83.1152 113.562 83.1879 113.446C83.2375 113.365 83.2872 113.286 83.3331 113.205C83.4032 113.083 83.4669 112.956 83.5293 112.83C83.5688 112.75 83.6109 112.672 83.6465 112.591C83.7102 112.449 83.7663 112.304 83.8224 112.158C83.8478 112.087 83.8784 112.019 83.9026 111.947C83.9778 111.727 84.0453 111.504 84.1001 111.276C84.1524 111.058 84.1931 110.839 84.225 110.62C84.2352 110.55 84.2403 110.48 84.2492 110.409C84.267 110.259 84.281 110.11 84.29 109.96C84.2938 109.878 84.2951 109.797 84.2963 109.715C84.3001 109.575 84.2989 109.436 84.2938 109.297C84.2912 109.214 84.2861 109.132 84.281 109.049C84.2708 108.909 84.2543 108.768 84.2364 108.63C84.2262 108.552 84.2173 108.474 84.2046 108.398C84.1778 108.24 84.1447 108.084 84.1065 107.929C84.0937 107.873 84.0835 107.815 84.0695 107.759C84.0135 107.549 83.9498 107.341 83.8746 107.136C83.8593 107.097 83.8415 107.057 83.8249 107.017C83.7714 106.879 83.7192 106.74 83.6567 106.605L84.2186 106.261C84.9436 105.818 85.7972 105.684 86.6228 105.883ZM144.792 81.1738C144.764 81.291 144.681 81.5101 144.442 81.6579L141.515 83.4646C141.15 83.6901 140.667 83.5767 140.44 83.2098L109.628 33.2724C108.92 32.1231 107.412 31.7664 106.262 32.4748C105.113 33.1844 104.756 34.6917 105.466 35.841L131.872 78.637L75.0234 91.0124L59.9672 66.6094L96.5252 21.3518L99.4786 26.1399C100.188 27.2891 101.696 27.6459 102.845 26.9375C103.995 26.2278 104.352 24.7205 103.642 23.57L96.2819 11.6418C96.1341 11.4023 96.1583 11.1691 96.1863 11.0519C96.2143 10.9334 96.2972 10.7143 96.5367 10.5665L99.4633 8.76105C99.8303 8.53426 100.312 8.64893 100.539 9.01587L144.697 80.5838C144.845 80.8234 144.82 81.0565 144.792 81.1738Z" fill="black"/>
</svg>
