<svg width="44" height="45" viewBox="0 0 44 45" fill="none" xmlns="http://www.w3.org/2000/svg">
<path d="M39.1982 39.9306C32.4565 45.4341 11.4059 45.4341 4.80177 39.9306C-1.93993 34.4272 -1.25202 10.9001 4.80177 4.7087C10.8556 -1.48265 33.1444 -1.48265 39.1982 4.7087C45.252 10.9001 45.9399 34.4273 39.1982 39.9306Z" fill="#E82100"/>
<g opacity="0.2">
<path opacity="0.2" d="M22.1375 30.2998C16.0837 35.1153 9.34204 37.5918 3.01312 37.7294C-1.66484 29.7494 -0.701694 10.3499 4.80174 4.70888C9.75482 -0.381768 25.302 -1.34491 34.2451 1.81955C36.4464 10.9002 31.9061 22.4574 22.1375 30.2998Z" fill="white"/>
</g>
<path d="M18.8356 34.2898C17.8724 34.2898 16.9094 33.877 16.359 33.0515L8.65427 23.1454C7.55356 21.7695 7.82879 19.8433 9.20462 18.7426C10.5805 17.6419 12.5066 17.9171 13.6074 19.293L18.8356 26.0347L30.3928 11.0379C31.4935 9.66204 33.4197 9.38681 34.7955 10.4875C36.1714 11.5882 36.4466 13.5144 35.3459 14.8903L21.3121 33.0515C20.6242 33.7394 19.7987 34.2898 18.8356 34.2898Z" fill="white"/>
</svg>
