<svg width="63" height="42" viewBox="0 0 63 42" fill="none" xmlns="http://www.w3.org/2000/svg">
<path d="M62.3254 3.32666V38.5762C62.332 39.4561 61.9597 40.2963 61.3036 40.8826L61.2109 40.9753C60.6455 41.4572 59.9262 41.7209 59.1833 41.7183H3.17305C2.43545 41.718 1.72208 41.4545 1.16134 40.9753C1.12305 40.9527 1.09121 40.9209 1.06865 40.8826C0.40801 40.2981 0.0300569 39.4582 0.0309592 38.5762V3.32666C0.0234827 2.54266 0.323448 1.78701 0.866659 1.22163C1.08928 0.959946 1.3565 0.739774 1.65595 0.571294C2.12182 0.316704 2.6444 0.183673 3.17537 0.184575H59.1866C60.0639 0.199657 60.8988 0.565106 61.5051 1.19945C62.0332 1.78211 62.3256 2.54034 62.3254 3.32666V3.32666Z" fill="#F6B863"/>
<path d="M61.2906 0.999023L36.6508 20.9402L34.1825 22.9685L31.181 25.4185L28.1164 22.9777L25.6292 20.9865L0.866394 1.21855L31.1818 20.9584L61.2906 0.999023Z" fill="#EAA14E"/>
<path d="M61.304 40.8853L61.2113 40.978L33.848 22.7311C33.9627 22.6344 34.0663 22.5253 34.1572 22.406C34.5488 22.2319 34.8661 21.9247 35.0528 21.5392C35.3867 21.3956 35.6719 21.158 35.8733 20.8555H36.5571L61.304 40.8853Z" fill="#EAA14E"/>
<path d="M28.4311 22.7743L1.15824 40.975C1.11995 40.9524 1.08811 40.9206 1.06555 40.8823L25.7844 20.8584H26.544C26.6897 21.2935 26.9934 21.6581 27.3949 21.8802C27.6064 22.3051 27.9798 22.6273 28.4311 22.7743V22.7743Z" fill="#EAA14E"/>
</svg>
