<svg width="52" height="36" viewBox="0 0 52 36" fill="none" xmlns="http://www.w3.org/2000/svg">
<path d="M47.915 35.1427H4.27764C2.85982 35.1427 1.71075 33.9916 1.71075 32.5713V3.42841C1.71075 2.00814 2.85992 0.856934 4.27764 0.856934H47.915C49.3328 0.856934 50.4819 2.00804 50.4819 3.42841V32.5713C50.482 33.9915 49.3328 35.1427 47.915 35.1427Z" fill="#FFE100"/>
<path d="M47.9165 0.856934H45.3496C46.7674 0.856934 47.9165 2.00804 47.9165 3.42841V32.5713C47.9165 33.9915 46.7673 35.1427 45.3496 35.1427H47.9165C49.3343 35.1427 50.4834 33.9916 50.4834 32.5713V3.42841C50.4835 2.00814 49.3343 0.856934 47.9165 0.856934Z" fill="#FFA800"/>
<path d="M3.42302 0.856934H5.9899C4.57209 0.856934 3.42302 2.00804 3.42302 3.42841V32.5713C3.42302 33.9915 4.57219 35.1427 5.9899 35.1427H3.42302C2.00521 35.1427 0.85614 33.9916 0.85614 32.5713V3.42841C0.85614 2.00814 2.00531 0.856934 3.42302 0.856934Z" fill="white"/>
<path d="M25.671 23.1775C23.8272 23.1775 21.9833 22.4832 20.5458 21.093L6.25588 7.47812C5.91367 7.15244 5.8999 6.60903 6.22507 6.26702C6.55187 5.92328 7.09355 5.91043 7.43495 6.23621L21.73 19.8553C23.941 21.9939 27.3977 21.9939 29.6044 19.8596L43.9038 6.23621C44.2452 5.90961 44.7885 5.92339 45.1137 6.26702C45.4396 6.60903 45.4251 7.15244 45.0837 7.47812L30.7878 21.0972C29.3545 22.484 27.5133 23.1775 25.671 23.1775Z" fill="black"/>
<path d="M44.4935 30.857C44.271 30.857 44.0494 30.7713 43.8817 30.5999L32.7422 19.2076L30.7931 21.0924C27.92 23.8721 23.4193 23.8721 20.546 21.0924L18.5968 19.2076L7.45643 30.5999C7.12616 30.9384 6.58458 30.9436 6.24656 30.6119C5.90945 30.2811 5.90343 29.7386 6.23462 29.3999L17.9688 17.3999C18.2983 17.0639 18.8364 17.0562 19.1744 17.3836L21.7345 19.8599C23.9403 21.9933 27.3971 21.9933 29.6046 19.8599L32.1646 17.3836C32.5035 17.0553 33.0408 17.063 33.3702 17.3999L45.1052 29.3999C45.4355 29.7385 45.4304 30.2811 45.0924 30.6119C44.9256 30.7756 44.71 30.857 44.4935 30.857Z" fill="black"/>
<path d="M1.71125 15.4287C1.71125 15.9018 1.32793 16.2858 0.855627 16.2858C0.383328 16.2858 0 15.9018 0 15.4287C0 14.9556 0.383328 14.5715 0.855627 14.5715C1.32793 14.5715 1.71125 14.9556 1.71125 15.4287Z" fill="black"/>
<path d="M47.9155 36H3.42251C1.53505 36 0 34.4623 0 32.5715V18.8572C0 18.384 0.383328 18 0.855627 18C1.32793 18 1.71125 18.384 1.71125 18.8572V32.5715C1.71125 33.5169 2.47873 34.2858 3.42251 34.2858H47.9155C48.8593 34.2858 49.6268 33.5169 49.6268 32.5715V3.42863C49.6268 2.48322 48.8593 1.71432 47.9155 1.71432H3.42251C2.47873 1.71432 1.71125 2.48322 1.71125 3.42863V12.0001C1.71125 12.4732 1.32793 12.8573 0.855627 12.8573C0.383328 12.8573 0 12.4732 0 12V3.42853C0 1.5377 1.53505 0 3.42251 0H47.9155C49.8031 0 51.338 1.5377 51.338 3.42853V32.5714C51.3381 34.4623 49.8031 36 47.9155 36Z" fill="black"/>
</svg>
