<svg id="Layer_1" data-name="Layer 1" xmlns="http://www.w3.org/2000/svg" xmlns:xlink="http://www.w3.org/1999/xlink" viewBox="0 0 34.05 32.57"><defs><style>.cls-1{fill:none;}.cls-2{clip-path:url(#clip-path);}.cls-3{fill:#93683e;}</style><clipPath id="clip-path" transform="translate(0 -0.02)"><rect class="cls-1" width="34" height="34"/></clipPath></defs><g class="cls-2"><path class="cls-3" d="M22.57,17.42H1.11a1.11,1.11,0,0,1,0-2.22H22.57a1.11,1.11,0,0,1,0,2.22Z" transform="translate(0 -0.02)"/><path class="cls-3" d="M16.65,23.34a1.08,1.08,0,0,1-.78-.33,1.1,1.1,0,0,1,0-1.57L21,16.31l-5.13-5.14A1.11,1.11,0,0,1,17.44,9.6l5.92,5.92a1.12,1.12,0,0,1,0,1.57L17.44,23A1.11,1.11,0,0,1,16.65,23.34Z" transform="translate(0 -0.02)"/><path class="cls-3" d="M17.76,32.59A16.19,16.19,0,0,1,2.61,22.26a1.11,1.11,0,0,1,.62-1.44,1.13,1.13,0,0,1,1.45.63A14.06,14.06,0,1,0,17.76,2.24,14,14,0,0,0,4.68,11.16a1.13,1.13,0,0,1-1.45.63,1.11,1.11,0,0,1-.62-1.44A16.28,16.28,0,1,1,17.76,32.59Z" transform="translate(0 -0.02)"/></g></svg>