<svg width="34" height="34" viewBox="0 0 34 34" fill="none" xmlns="http://www.w3.org/2000/svg">
<g clip-path="url(#clip0)">
<path d="M22.5741 17.4162H1.1102C0.497369 17.4162 0 16.9189 0 16.306C0 15.6932 0.497369 15.1958 1.1102 15.1958H22.5741C23.1869 15.1958 23.6843 15.6932 23.6843 16.306C23.6843 16.9189 23.1869 17.4162 22.5741 17.4162Z" fill="#E82100"/>
<path d="M16.6529 23.3376C16.3686 23.3376 16.0845 23.2297 15.8682 23.0121C15.4346 22.5784 15.4346 21.8753 15.8682 21.4413L21.0048 16.305L15.8682 11.1684C15.4346 10.7348 15.4346 10.0314 15.8682 9.59772C16.3022 9.16404 17.0053 9.16404 17.4389 9.59772L23.3599 15.519C23.7936 15.9527 23.7936 16.6558 23.3599 17.0894L17.4389 23.0104C17.2213 23.2297 16.9372 23.3376 16.6529 23.3376Z" fill="#E82100"/>
<path d="M17.7638 32.5891C11.027 32.5891 5.07942 28.5362 2.60883 22.2625C2.38386 21.6942 2.66494 21.0488 3.23495 20.8238C3.80333 20.6018 4.45032 20.8786 4.67529 21.4516C6.80842 26.8679 11.9464 30.3687 17.7638 30.3687C25.5174 30.3687 31.8265 24.0596 31.8265 16.306C31.8265 8.55249 25.5174 2.24336 17.7638 2.24336C11.9464 2.24336 6.80842 5.74419 4.67529 11.1605C4.44869 11.7335 3.80333 12.0102 3.23495 11.7882C2.66494 11.5633 2.38386 10.9179 2.60883 10.3495C5.07942 4.0759 11.027 0.0229492 17.7638 0.0229492C26.7417 0.0229492 34.0469 7.32818 34.0469 16.306C34.0469 25.2839 26.7417 32.5891 17.7638 32.5891Z" fill="#E82100"/>
</g>
<defs>
<clipPath id="clip0">
<rect width="34" height="34" fill="white"/>
</clipPath>
</defs>
</svg>
