<svg width="38" height="39" viewBox="0 0 38 39" fill="none" xmlns="http://www.w3.org/2000/svg">
<path d="M34.9509 25.0676C32.6244 25.0676 30.34 24.7038 28.1753 23.9884C27.1146 23.6266 25.8106 23.9585 25.1632 24.6234L20.8905 27.8489C15.9354 25.2038 12.8831 22.1525 10.2742 17.2346L13.4047 13.0732C14.218 12.261 14.5098 11.0744 14.1602 9.96116C13.4418 7.78507 13.0768 5.5018 13.0768 3.1743C13.0769 1.4929 11.709 0.125 10.0277 0.125H3.0492C1.3679 0.125 0 1.4929 0 3.1742C0 22.4463 15.6788 38.125 34.9509 38.125C36.6322 38.125 38.0001 36.7571 38.0001 35.0758V28.1168C38 26.4355 36.6321 25.0676 34.9509 25.0676Z" fill="#E82100"/>
</svg>
