<svg width="27" height="16" viewBox="0 0 27 16" fill="none" xmlns="http://www.w3.org/2000/svg">
<path d="M12.2938 0.877576L0.908721 12.2629C0.645184 12.5262 0.5 12.8777 0.5 13.2526C0.5 13.6274 0.645184 13.9789 0.908721 14.2422L1.74696 15.0807C2.29317 15.6263 3.18092 15.6263 3.72629 15.0807L13.2868 5.52014L22.858 15.0913C23.1215 15.3546 23.4728 15.5 23.8474 15.5C24.2224 15.5 24.5737 15.3546 24.8375 15.0913L25.6755 14.2528C25.9391 13.9893 26.0842 13.638 26.0842 13.2632C26.0842 12.8883 25.9391 12.5368 25.6755 12.2735L14.28 0.877576C14.0157 0.613624 13.6627 0.468648 13.2874 0.46948C12.9108 0.468648 12.558 0.613624 12.2938 0.877576Z" fill="black"/>
</svg>
