<svg width="31" height="31" viewBox="0 0 31 31" fill="none" xmlns="http://www.w3.org/2000/svg">
<path d="M27.3857 27.3441C22.7929 31.1127 8.452 31.1127 3.95288 27.3441C-0.639953 23.5754 -0.171304 7.46452 3.95288 3.2248C8.07707 -1.01492 23.2615 -1.01492 27.3857 3.2248C31.5099 7.46452 31.9785 23.5755 27.3857 27.3441Z" fill="#E82100"/>
<path d="M13.5142 23.48C12.8581 23.48 12.202 23.1973 11.827 22.632L6.57812 15.8485C5.82826 14.9064 6.01576 13.5873 6.95305 12.8336C7.89035 12.0799 9.20258 12.2683 9.95245 13.2105L13.5142 17.8271L21.3876 7.55753C22.1375 6.61539 23.4497 6.42692 24.387 7.18066C25.3243 7.9344 25.5118 9.25342 24.762 10.1956L15.2014 22.632C14.7327 23.1031 14.1703 23.48 13.5142 23.48Z" fill="white"/>
</svg>
