<svg width="31" height="31" viewBox="0 0 31 31" fill="none" xmlns="http://www.w3.org/2000/svg">
<path d="M27.3857 27.344C22.7929 31.1126 8.452 31.1126 3.95288 27.344C-0.639953 23.5754 -0.171304 7.46443 3.95288 3.22471C8.07707 -1.01501 23.2615 -1.01501 27.3857 3.22471C31.5099 7.46443 31.9785 23.5754 27.3857 27.344Z" fill="#806749"/>
<g opacity="0.2">
<path opacity="0.2" d="M15.7625 20.7487C11.6383 24.0463 7.04551 25.7422 2.73389 25.8364C-0.452996 20.3718 0.203152 7.0874 3.95241 3.22455C7.32673 -0.261427 17.9183 -0.920968 24.0109 1.24599C25.5106 7.46427 22.4175 15.3784 15.7625 20.7487Z" fill="white"/>
</g>
<path d="M13.514 23.4802C12.8579 23.4802 12.2018 23.1976 11.8268 22.6323L6.57792 15.8487C5.82806 14.9066 6.01556 13.5876 6.95286 12.8338C7.89015 12.0801 9.20238 12.2686 9.95225 13.2107L13.514 17.8273L21.3874 7.55777C22.1373 6.61563 23.4495 6.42716 24.3868 7.1809C25.3241 7.93465 25.5116 9.25366 24.7618 10.1958L15.2012 22.6323C14.7325 23.1034 14.1702 23.4802 13.514 23.4802Z" fill="white"/>
</svg>
