<svg width="20" height="20" viewBox="0 0 20 20" fill="none" xmlns="http://www.w3.org/2000/svg">
<g clip-path="url(#clip0)">
<path d="M0.464768 19.3487C0.774107 19.6589 1.18091 19.8137 1.58642 19.8137C1.99214 19.8137 2.39873 19.6589 2.70807 19.3487L10 12.0566L17.2919 19.3487C17.6015 19.6589 18.0081 19.8137 18.4136 19.8137C18.8189 19.8137 19.2255 19.6589 19.5352 19.3487C20.1548 18.7292 20.1548 17.7249 19.5352 17.1054L12.2429 9.81347L19.161 2.89535C19.7807 2.27603 19.7807 1.27138 19.161 0.652051C18.5417 0.0322881 17.5374 0.0322881 16.9177 0.652051L9.99978 7.56995L3.0821 0.651834C2.46255 0.032071 1.45813 0.032071 0.839014 0.651834C0.219251 1.27116 0.219251 2.27581 0.839014 2.89514L7.75691 9.81325L0.465202 17.1052C-0.154995 17.7245 -0.154995 18.7287 0.464768 19.3487Z" fill="#E82100"/>
</g>
<defs>
<clipPath id="clip0">
<rect width="20" height="20" fill="white"/>
</clipPath>
</defs>
</svg>
