<svg width="20" height="20" viewBox="0 0 20 20" fill="none" xmlns="http://www.w3.org/2000/svg">
<g clip-path="url(#clip0)">
<path d="M0.464768 19.3486C0.774107 19.6588 1.18091 19.8136 1.58642 19.8136C1.99214 19.8136 2.39873 19.6588 2.70807 19.3486L10 12.0565L17.2919 19.3486C17.6015 19.6588 18.0081 19.8136 18.4136 19.8136C18.8189 19.8136 19.2255 19.6588 19.5352 19.3486C20.1548 18.7291 20.1548 17.7249 19.5352 17.1053L12.2429 9.81341L19.161 2.89529C19.7807 2.27596 19.7807 1.27132 19.161 0.65199C18.5417 0.032227 17.5374 0.032227 16.9177 0.65199L9.99978 7.56989L3.0821 0.651773C2.46255 0.03201 1.45813 0.03201 0.839014 0.651773C0.219251 1.2711 0.219251 2.27575 0.839014 2.89508L7.75691 9.81319L0.465202 17.1051C-0.154995 17.7245 -0.154995 18.7287 0.464768 19.3486Z" fill="#171C60"/>
</g>
<defs>
<clipPath id="clip0">
<rect width="20" height="20" fill="white"/>
</clipPath>
</defs>
</svg>
