<svg width="32" height="20" viewBox="0 0 32 20" fill="none" xmlns="http://www.w3.org/2000/svg">
<path d="M1.97496 0H29.6244C30.7151 0 31.5994 0.884296 31.5994 1.97496C31.5994 3.06562 30.7151 3.94992 29.6244 3.94992H1.97496C0.884296 3.94992 0 3.06562 0 1.97496C0 0.884296 0.884296 0 1.97496 0Z" fill="#806749"/>
<path d="M1.97496 7.90039H29.6244C30.7151 7.90039 31.5994 8.78469 31.5994 9.87535C31.5994 10.966 30.7151 11.8503 29.6244 11.8503H1.97496C0.884296 11.8503 0 10.966 0 9.87535C0 8.78469 0.884296 7.90039 1.97496 7.90039Z" fill="#806749"/>
<path d="M1.97496 15.7988H29.6244C30.7151 15.7988 31.5994 16.6831 31.5994 17.7738C31.5994 18.8645 30.7151 19.7487 29.6244 19.7487H1.97496C0.884296 19.7487 0 18.8645 0 17.7738C0 16.6831 0.884296 15.7988 1.97496 15.7988Z" fill="#806749"/>
</svg>
