<svg width="20" height="20" viewBox="0 0 20 20" fill="none" xmlns="http://www.w3.org/2000/svg">
<path d="M0.464768 19.3492C0.774107 19.6594 1.18091 19.8142 1.58642 19.8142C1.99214 19.8142 2.39873 19.6594 2.70807 19.3492L10 12.057L17.2919 19.3492C17.6015 19.6594 18.0081 19.8142 18.4136 19.8142C18.8189 19.8142 19.2255 19.6594 19.5352 19.3492C20.1548 18.7296 20.1548 17.7254 19.5352 17.1059L12.2429 9.81396L19.161 2.89584C19.7807 2.27651 19.7807 1.27187 19.161 0.652539C18.5417 0.0327764 17.5374 0.0327764 16.9177 0.652539L9.99978 7.57044L3.0821 0.652322C2.46255 0.0325593 1.45813 0.0325593 0.839014 0.652322C0.219251 1.27165 0.219251 2.2763 0.839014 2.89563L7.75691 9.81374L0.465202 17.1057C-0.154995 17.725 -0.154995 18.7292 0.464768 19.3492Z" fill="#806749"/>
</svg>
