<svg xmlns="http://www.w3.org/2000/svg" viewBox="0 0 618.85 51.45"><defs><style>.cls-1{fill:#e30613;stroke:#fff;stroke-miterlimit:10;}.cls-2{fill:#1d1d1b;}.cls-3{fill:#fff;}</style></defs><g id="Layer_2" data-name="Layer 2"><g id="Guides_For_Artboard" data-name="Guides For Artboard"><path class="cls-1" d="M222.59,21.94l6.52-4-6.65.08V8.53l15.63.33-.16-4.51h10.95l-.17,4.51,2,0L249.62,5.9l10-1.6.13,4.48,2.74-.17,0,9.27-3,0,2.63,9.84-6.89,1.15,8.24,5.25-5.83,10.83-8.85-8,0,9-16.9-.17.24-4.18-2.74,4-7.35-7.55,12.39-11.52,3.61,3.15V17.8l-6.15.08,3.73,7.51-5.86,4.55Zm15.54,11.94-1.43,1.84,1.43.17ZM249,17.76l1.93,3,6.85-2.95Z"/><path class="cls-1" d="M272.17,38.27,287,22l-.16-17.76h12.06L298.7,22l15.14,16.29-9.19,7.46L293,30.55,281.35,45.73Z"/><path class="cls-1" d="M341,43.35l2.22-15.54-4.47-.66L337.86,36l-11.56-.74,1.06-9.19-4.14-.49L324.49,13l4.93.53.86-7.5L341.6,7.34l-.86,7.46,4.34.46L346,7.09l12.22,1.28-.9,8.4,3.89.58L359,29.41l-3.33-.5L353.7,45.24Z"/><path class="cls-1" d="M383.22,40.85l-.9-12.39L375,30.8l-4-11.48L396.76,9.8l5.08,12.47-7.91,2.95L395.28,40Z"/><path class="cls-1" d="M426.11,43.64l-13.2.16-1-37,12.8-.25L425,18.37l15.87-.78.57,12.8-15.5.74Z"/><path class="cls-1" d="M461.67,43.39l-10.26-.16.17-36.92,10.21.17ZM462.45,20V10.21h11.64V5.45h10.79v4.76h5.5V20h-5.5v4.6l5.95,1.76-2.42,9.72-3.53-1.35V44H462.4V23.13h11.69V20Zm10.21,12.84,0,1.6,1.39,0V32.81Z"/><path class="cls-1" d="M501.32,42.33,501.2,30.8l15.26-.49-.25-7.75L501,23.05l-.12-11.36,28.88-.33L530.2,42Z"/><path class="cls-1" d="M563.78,43.76l-12.39-1.15,1.81-10.54-12.55.33-.37-10.58,13.12-.37.29-3.41-10.75.62-.86-10.79,31-1.92.66,11-7.55.61v3.12l8-.21V32.07l-9.35.17Z"/><path class="cls-1" d="M596.91,41.46l3.37-11.36-15.14.45-.94-10.78L614.38,19l-4.75,25.14ZM585.39,17l-.17-10.13,28.22-.25.12,10Z"/><path class="cls-1" d="M107.74,4.06c-.46.73-13.8,13.45-19.64,19-1.41,1.35-1.48,2.54-.34,4,3.06,3.89,9.9,13.16,12.55,16.76a.92.92,0,0,1-.75,1.46H85.79a.91.91,0,0,1-.75-.38C84,43.41,80,37.79,79,36.45c-1.21-1.65-2.68-1.65-4.12-.19-2.28,2.29-7.76,7.58-9,8.8a1,1,0,0,1-.64.25H50.56a.92.92,0,0,1-.67-1.56c6.21-6.34,29.23-29.82,29.49-30.3-.63-.25-21.1-.24-21.1-.24l5.55-9.15Z"/><path class="cls-1" d="M53.65,4.32c1.84,0,1.36.69.61,2.16-2.89,5.66-5.71,11.34-8.73,16.92-1.57,2.9-4.34,4-7.56,4.08-.8,0-1.6-.07-2.4-.13-5.08-.37-9,1.18-11.16,6.22C23,36.87,21.1,40,19.46,43.18a2.84,2.84,0,0,1-3,1.77c-3.67-.13-7.35-.07-11-.11-1.65,0-2.23-.74-1.41-2.3,2.86-5.45,5.77-10.88,8.57-16.36A7.69,7.69,0,0,1,20,21.69c1.8,0,3.61,0,5.41-.09,3.93-.14,9.48-8.87,9.48-8.87s-24.37-.05-26.24,0c-1.58.09-2.19-.41-1.4-2C8.21,9,9.09,7.07,10.08,5.27a2.07,2.07,0,0,1,1.66-1.21S47,4.39,53.65,4.32Z"/><path class="cls-1" d="M132,4.81c1.47,0,1.83.52,1.37,2a61.4,61.4,0,0,0-1.9,7.76,2.71,2.71,0,0,0,1.35,2.18q8.44,3.69,17,7.08c1.55.61,1.8,1.53,1.42,2.95-.74,2.71-1.43,5.42-2.13,8.14-.47,1.77-1.72,1.19-2.71.77-3.27-1.37-13.93-6-16-6.87-1.56-.67-2.55-.34-3,1.41-1.07,4.4-2.25,8.77-3.24,13.19-.33,1.46-.83,2.21-2.47,2.18-4.07-.09-8.15,0-12.22,0-1.68,0-2.14-.87-1.53-2.45.75-2,8.06-32,9.1-36.27a2.18,2.18,0,0,1,2.5-2C121.61,4.94,129.89,4.83,132,4.81Z"/><path class="cls-1" d="M155.62,45.74c-1.64,0-2.28-.47-1.67-2.12a15.86,15.86,0,0,0,.7-2.51c.64-3.78.62-3.75,4.5-3.72,5.28,0,10.56.08,15.84,0,4.63,0,7.59-3.08,8.27-7.62.57-3.81,4-16.53,4.37-19.19.49-3.39,1.45-4.38,4.9-4.34s6.68.11,10,.06c1.82,0,2.28.51,1.83,2.4-2.1,8.75-4,17.54-6,26.33-1.37,6.12-5,11.29-12.89,10.79C181,45.57,161,45.68,155.62,45.74Z"/><path class="cls-1" d="M160,18.43c-1.26,0-1.7-.51-1.41-1.73.79-3.22,1.61-6.45,2.34-9.69a2.18,2.18,0,0,1,2.52-1.94c4.94.06,9.87.06,14.81,0,1.62,0,2.11.49,1.63,2.17-.8,2.81-1.43,5.68-2,8.56-.35,1.78-1.13,2.68-3.08,2.57C172.43,18.27,162.55,18.39,160,18.43Z"/><polygon class="cls-2" points="216.83 37.97 225.12 30.25 216.89 21.13 218.78 19.96 218.78 4.77 234.27 5.09 234.1 0.66 252.7 0.66 252.66 1.68 263.15 0 263.29 4.87 266.12 4.7 266.2 21.62 264.31 21.59 266.73 30.65 265.32 30.89 268.35 32.81 258.68 50.78 252.52 45.25 252.54 49.7 231.27 49.49 229.94 51.45 216.83 37.97"/><polygon class="cls-2" points="293 36.61 281.97 50.98 266.82 38.67 283.27 20.57 283.09 0.54 302.59 0.54 302.4 20.55 319.22 38.64 304.04 50.98 293 36.61"/><polygon class="cls-2" points="336.86 46.46 337.82 39.7 322.19 38.7 323.28 29.31 319.19 28.82 321.2 8.9 326.17 9.43 327.04 1.89 342.59 3.75 342.67 3.05 362.23 5.08 361.31 13.64 365.48 14.26 361.93 33.57 358.84 33.12 356.91 49.44 336.86 46.46"/><polygon class="cls-2" points="378.98 33.39 372.67 35.4 366.33 17.11 398.82 5.11 406.69 24.39 397.85 27.69 399.29 43.4 379.81 44.79 378.98 33.39"/><polygon class="cls-2" points="408.1 3.19 428.27 2.81 428.56 14.51 444.35 13.73 445.26 33.9 429.65 34.64 429.86 47.28 409.32 47.53 408.1 3.19"/><polygon class="cls-2" points="458.72 47.69 458.72 47.03 447.71 46.85 447.91 2.57 465.49 2.85 465.47 6.53 470.41 6.53 470.41 1.77 488.57 1.77 488.57 6.53 494.06 6.53 494.06 23.45 495.26 23.8 490.98 40.98 488.57 40.06 488.57 47.69 458.72 47.69"/><polygon class="cls-2" points="497.47 27.23 512.66 26.74 512.64 26.36 497.39 26.85 497.19 8.04 533.42 7.63 533.93 45.69 497.68 46.05 497.47 27.23"/><polygon class="cls-2" points="547.09 45.91 548.81 35.87 537.09 36.18 536.47 18.24 539.21 18.16 538.11 4.43 576.55 2.04 577.42 16.66 577.92 16.64 577.92 35.69 568.24 35.86 567.1 47.77 547.09 45.91"/><polygon class="cls-2" points="592.25 44.24 595.3 33.94 581.77 34.34 580.18 16.18 581.69 16.14 581.48 3.24 617.08 2.93 617.23 15.27 618.85 15.23 612.55 48.56 592.25 44.24"/><polygon class="cls-2" points="216.83 37.97 225.12 30.25 216.89 21.13 218.78 19.96 218.78 4.77 234.27 5.09 234.1 0.66 252.7 0.66 252.66 1.68 263.15 0 263.29 4.87 266.12 4.7 266.2 21.62 264.31 21.59 266.73 30.65 265.32 30.89 268.35 32.81 258.68 50.78 252.52 45.25 252.54 49.7 231.27 49.49 229.94 51.45 216.83 37.97"/><polygon class="cls-2" points="293 36.61 281.97 50.98 266.82 38.67 283.27 20.57 283.09 0.54 302.59 0.54 302.4 20.55 319.22 38.64 304.04 50.98 293 36.61"/><polygon class="cls-2" points="336.86 46.46 337.82 39.7 322.19 38.7 323.28 29.31 319.19 28.82 321.2 8.9 326.17 9.43 327.04 1.89 342.59 3.75 342.67 3.05 362.23 5.08 361.31 13.64 365.48 14.26 361.93 33.57 358.84 33.12 356.91 49.44 336.86 46.46"/><polygon class="cls-2" points="378.98 33.39 372.67 35.4 366.33 17.11 398.82 5.11 406.69 24.39 397.85 27.69 399.29 43.4 379.81 44.79 378.98 33.39"/><polygon class="cls-2" points="408.1 3.19 428.27 2.81 428.56 14.51 444.35 13.73 445.26 33.9 429.65 34.64 429.86 47.28 409.32 47.53 408.1 3.19"/><polygon class="cls-2" points="458.72 47.69 458.72 47.03 447.71 46.85 447.91 2.57 465.49 2.85 465.47 6.53 470.41 6.53 470.41 1.77 488.57 1.77 488.57 6.53 494.06 6.53 494.06 23.45 495.26 23.8 490.98 40.98 488.57 40.06 488.57 47.69 458.72 47.69"/><polygon class="cls-2" points="497.47 27.23 512.66 26.74 512.64 26.36 497.39 26.85 497.19 8.04 533.42 7.63 533.93 45.69 497.68 46.05 497.47 27.23"/><polygon class="cls-2" points="547.09 45.91 548.81 35.87 537.09 36.18 536.47 18.24 539.21 18.16 538.11 4.43 576.55 2.04 577.42 16.66 577.92 16.64 577.92 35.69 568.24 35.86 567.1 47.77 547.09 45.91"/><polygon class="cls-2" points="592.25 44.24 595.3 33.94 581.77 34.34 580.18 16.18 581.69 16.14 581.48 3.24 617.08 2.93 617.23 15.27 618.85 15.23 612.55 48.56 592.25 44.24"/><polygon class="cls-2" points="216.83 37.97 225.12 30.25 216.89 21.13 218.78 19.96 218.78 4.77 234.27 5.09 234.1 0.66 252.7 0.66 252.66 1.68 263.15 0 263.29 4.87 266.12 4.7 266.2 21.62 264.31 21.59 266.73 30.65 265.32 30.89 268.35 32.81 258.68 50.78 252.52 45.25 252.54 49.7 231.27 49.49 229.94 51.45 216.83 37.97"/><polygon class="cls-2" points="293 36.61 281.97 50.98 266.82 38.67 283.27 20.57 283.09 0.54 302.59 0.54 302.4 20.55 319.22 38.64 304.04 50.98 293 36.61"/><polygon class="cls-2" points="336.86 46.46 337.82 39.7 322.19 38.7 323.28 29.31 319.19 28.82 321.2 8.9 326.17 9.43 327.04 1.89 342.59 3.75 342.67 3.05 362.23 5.08 361.31 13.64 365.48 14.26 361.93 33.57 358.84 33.12 356.91 49.44 336.86 46.46"/><polygon class="cls-2" points="378.98 33.39 372.67 35.4 366.33 17.11 398.82 5.11 406.69 24.39 397.85 27.69 399.29 43.4 379.81 44.79 378.98 33.39"/><polygon class="cls-2" points="408.1 3.19 428.27 2.81 428.56 14.51 444.35 13.73 445.26 33.9 429.65 34.64 429.86 47.28 409.32 47.53 408.1 3.19"/><polygon class="cls-2" points="458.72 47.69 458.72 47.03 447.71 46.85 447.91 2.57 465.49 2.85 465.47 6.53 470.41 6.53 470.41 1.77 488.57 1.77 488.57 6.53 494.06 6.53 494.06 23.45 495.26 23.8 490.98 40.98 488.57 40.06 488.57 47.69 458.72 47.69"/><polygon class="cls-2" points="497.47 27.23 512.66 26.74 512.64 26.36 497.39 26.85 497.19 8.04 533.42 7.63 533.93 45.69 497.68 46.05 497.47 27.23"/><polygon class="cls-2" points="547.09 45.91 548.81 35.87 537.09 36.18 536.47 18.24 539.21 18.16 538.11 4.43 576.55 2.04 577.42 16.66 577.92 16.64 577.92 35.69 568.24 35.86 567.1 47.77 547.09 45.91"/><polygon class="cls-2" points="592.25 44.24 595.3 33.94 581.77 34.34 580.18 16.18 581.69 16.14 581.48 3.24 617.08 2.93 617.23 15.27 618.85 15.23 612.55 48.56 592.25 44.24"/><path class="cls-2" d="M85.79,49a4.59,4.59,0,0,1-3.76-2c-1-1.36-3.81-5.37-5.29-7.44C74,42.32,69,47.12,68.41,47.71A4.55,4.55,0,0,1,65.22,49H50.56a4.61,4.61,0,0,1-3.3-7.83c10.3-10.5,18.59-19,23.69-24.23-3.38,0-7.64-.05-12.37-.05H51.74L61.75.37h52.74l-3.65,5.68c-.42.66-.65,1-18.17,17.78l-1.59,1.52c3.23,4.17,9.55,12.71,12.2,16.31A4.61,4.61,0,0,1,99.56,49Z"/><path class="cls-2" d="M16.36,48.64c-2.37-.09-4.82-.09-7.19-.1H5.43c-2.79,0-4.14-1.32-4.78-2.4a5.19,5.19,0,0,1,.14-5.3q1.3-2.49,2.62-5c2-3.72,4-7.56,5.93-11.36A11.34,11.34,0,0,1,20,18c1.75,0,3.5,0,5.21-.09a6.28,6.28,0,0,0,2-1.52H22.06c-10.95,0-12.86,0-13.18.06l-.53,0a4.85,4.85,0,0,1-4.44-2.2c-.63-1-1.13-2.73.08-5.13l.78-1.58c.66-1.34,1.34-2.73,2.08-4.08A5.78,5.78,0,0,1,11.74.37c.33,0,29,.28,39.3.28h2.68A4.63,4.63,0,0,1,58,2.72c1.27,2.07.26,4-.34,5.19L55.57,12c-2.19,4.31-4.45,8.77-6.8,13.12-1.45,2.69-4.5,5.93-10.75,6h-.19c-.72,0-1.4-.06-2-.11l-.53,0c-.38,0-.75,0-1.11,0C30.89,31,29,32.15,27.8,35c-1,2.29-2.17,4.45-3.31,6.54-.59,1.09-1.18,2.18-1.75,3.28a6.48,6.48,0,0,1-6.06,3.79Z"/><path class="cls-2" d="M121.68,49.27c-1.51,0-3,0-4.52,0h-7.64a5.33,5.33,0,0,1-4.62-2.18,5.46,5.46,0,0,1-.35-5.27c.38-1.08,2.92-11,8.9-35.54l.07-.29a5.8,5.8,0,0,1,5.92-4.79h.29l2.14,0c2.47,0,6.08,0,8.39-.06l1.74,0A5.06,5.06,0,0,1,136.39,3a5.21,5.21,0,0,1,.53,4.85,58.74,58.74,0,0,0-1.53,5.94c5,2.15,10.17,4.31,15.84,6.56a5.74,5.74,0,0,1,3.61,7.35c-.51,1.86-1,3.73-1.47,5.6l-.65,2.5a4.89,4.89,0,0,1-4.79,4,7.05,7.05,0,0,1-2.83-.69c-2.49-1-8.77-3.75-12.93-5.54l-1.57-.68c-.26,1-.51,2-.76,3-.69,2.72-1.4,5.54-2,8.3-.94,4.17-3.76,5.05-6,5.05Z"/><path class="cls-2" d="M186.52,49.58c-.42,0-.84,0-1.27,0-1.85-.12-7.06-.18-14.66-.18-6.23,0-12.35,0-14.94.07h-.12a5.33,5.33,0,0,1-4.67-2.08,5.22,5.22,0,0,1-.38-5A9.49,9.49,0,0,0,151,40.5c.7-4.13,1.58-6.8,7.22-6.8h1.86c3.45,0,6.91,0,10.36,0l4.51,0c3.3,0,4.35-2.45,4.66-4.48.33-2.21,1.45-6.83,2.54-11.29.78-3.2,1.67-6.83,1.82-7.89.51-3.49,1.92-7.49,8.35-7.49l2.41,0c1.85,0,3.7,0,5.55,0h2.37a5.58,5.58,0,0,1,4.55,1.88A5.75,5.75,0,0,1,208,9.6c-1.93,8.06-3.77,16.3-5.55,24.27l-.45,2C200,44.58,194.39,49.58,186.52,49.58Z"/><path class="cls-2" d="M159.89,22.11a5,5,0,0,1-4.14-1.82,5,5,0,0,1-.79-4.46l.56-2.26c.6-2.42,1.21-4.92,1.76-7.36a5.8,5.8,0,0,1,6.05-4.82h.12q4.49,0,9,.05l5.78,0h0a5.37,5.37,0,0,1,4.58,1.93,5.43,5.43,0,0,1,.62,4.94c-.67,2.34-1.28,5-1.93,8.26-1,5-4.79,5.55-6.38,5.55l-.54,0c-.44,0-1.54,0-4.26,0-4.09,0-9.28.07-10.28.08Z"/><path class="cls-3" d="M218.85,38l8.26-7.68-8-8.9,1.86-1.15h-.74V6.21l15.54.33-.17-4.46h15.66l0,1.28,10.6-1.7.13,4.71,2.8-.17.06,14-2.31,0,2.5,9.36-3.52.59,5,3.2-8.18,15.22-7.2-6.46,0,6.21-20.58-.2-.79,1.15Zm17-17.42v-.5h-.25Z"/><polygon class="cls-3" points="293 34.28 281.73 48.96 268.88 38.51 284.7 21.11 284.52 1.96 301.16 1.96 300.98 21.1 317.15 38.5 304.27 48.96 293 34.28"/><polygon class="cls-3" points="338.46 45.26 339.44 38.38 323.77 37.38 324.85 28.07 320.74 27.58 322.47 10.46 327.42 10.99 328.28 3.46 343.85 5.33 343.93 4.6 360.67 6.34 359.75 14.85 363.82 15.45 360.78 31.97 357.6 31.5 355.67 47.83 338.46 45.26"/><polygon class="cls-3" points="380.26 31.5 373.56 33.63 368.13 17.96 398.03 6.91 404.82 23.58 396.34 26.74 397.75 42.09 381.12 43.27 380.26 31.5"/><polygon class="cls-3" points="409.55 4.58 426.89 4.25 427.18 15.99 443 15.22 443.78 32.55 428.21 33.29 428.42 45.88 410.7 46.1 409.55 4.58"/><polygon class="cls-3" points="460.14 46.27 460.14 45.63 449.13 45.46 449.32 4.01 464.06 4.25 464.05 7.94 471.83 7.94 471.83 3.19 487.15 3.19 487.15 7.94 492.64 7.94 492.64 22.24 487.15 22.24 487.15 22.87 493.55 24.77 489.99 39.09 487.15 38 487.15 46.27 460.14 46.27"/><polygon class="cls-3" points="498.91 28.61 514.12 28.11 514.01 24.9 498.79 25.39 498.62 9.45 532.02 9.07 532.49 44.28 499.08 44.62 498.91 28.61"/><polygon class="cls-3" points="548.74 44.65 550.5 34.41 538.46 34.73 537.93 19.62 540.74 19.54 539.64 5.75 575.22 3.54 576.09 18.11 576.51 18.1 576.51 34.3 566.95 34.47 565.82 46.23 548.74 44.65"/><polygon class="cls-3" points="594.04 43.17 597.21 32.46 583.07 32.88 581.73 17.56 583.13 17.52 582.92 4.64 615.68 4.36 615.83 16.73 617.13 16.69 611.42 46.87 594.04 43.17"/><path class="cls-3" d="M218.85,38l8.26-7.68-8-8.9,1.86-1.15h-.74V6.21l15.54.33-.17-4.46h15.66l0,1.28,10.6-1.7.13,4.71,2.8-.17.06,14-2.31,0,2.5,9.36-3.52.59,5,3.2-8.18,15.22-7.2-6.46,0,6.21-20.58-.2-.79,1.15Zm17-17.42v-.5h-.25Z"/><polygon class="cls-3" points="293 34.28 281.73 48.96 268.88 38.51 284.7 21.11 284.52 1.96 301.16 1.96 300.98 21.1 317.15 38.5 304.27 48.96 293 34.28"/><polygon class="cls-3" points="338.46 45.26 339.44 38.38 323.77 37.38 324.85 28.07 320.74 27.58 322.47 10.46 327.42 10.99 328.28 3.46 343.85 5.33 343.93 4.6 360.67 6.34 359.75 14.85 363.82 15.45 360.78 31.97 357.6 31.5 355.67 47.83 338.46 45.26"/><polygon class="cls-3" points="380.26 31.5 373.56 33.63 368.13 17.96 398.03 6.91 404.82 23.58 396.34 26.74 397.75 42.09 381.12 43.27 380.26 31.5"/><polygon class="cls-3" points="409.55 4.58 426.89 4.25 427.18 15.99 443 15.22 443.78 32.55 428.21 33.29 428.42 45.88 410.7 46.1 409.55 4.58"/><polygon class="cls-3" points="460.14 46.27 460.14 45.63 449.13 45.46 449.32 4.01 464.06 4.25 464.05 7.94 471.83 7.94 471.83 3.19 487.15 3.19 487.15 7.94 492.64 7.94 492.64 22.24 487.15 22.24 487.15 22.87 493.55 24.77 489.99 39.09 487.15 38 487.15 46.27 460.14 46.27"/><polygon class="cls-3" points="498.91 28.61 514.12 28.11 514.01 24.9 498.79 25.39 498.62 9.45 532.02 9.07 532.49 44.28 499.08 44.62 498.91 28.61"/><polygon class="cls-3" points="548.74 44.65 550.5 34.41 538.46 34.73 537.93 19.62 540.74 19.54 539.64 5.75 575.22 3.54 576.09 18.11 576.51 18.1 576.51 34.3 566.95 34.47 565.82 46.23 548.74 44.65"/><polygon class="cls-3" points="594.04 43.17 597.21 32.46 583.07 32.88 581.73 17.56 583.13 17.52 582.92 4.64 615.68 4.36 615.83 16.73 617.13 16.69 611.42 46.87 594.04 43.17"/><path class="cls-3" d="M218.85,38l8.26-7.68-8-8.9,1.86-1.15h-.74V6.21l15.54.33-.17-4.46h15.66l0,1.28,10.6-1.7.13,4.71,2.8-.17.06,14-2.31,0,2.5,9.36-3.52.59,5,3.2-8.18,15.22-7.2-6.46,0,6.21-20.58-.2-.79,1.15Zm17-17.42v-.5h-.25Z"/><polygon class="cls-3" points="293 34.28 281.73 48.96 268.88 38.51 284.7 21.11 284.52 1.96 301.16 1.96 300.98 21.1 317.15 38.5 304.27 48.96 293 34.28"/><polygon class="cls-3" points="338.46 45.26 339.44 38.38 323.77 37.38 324.85 28.07 320.74 27.58 322.47 10.46 327.42 10.99 328.28 3.46 343.85 5.33 343.93 4.6 360.67 6.34 359.75 14.85 363.82 15.45 360.78 31.97 357.6 31.5 355.67 47.83 338.46 45.26"/><polygon class="cls-3" points="380.26 31.5 373.56 33.63 368.13 17.96 398.03 6.91 404.82 23.58 396.34 26.74 397.75 42.09 381.12 43.27 380.26 31.5"/><polygon class="cls-3" points="409.55 4.58 426.89 4.25 427.18 15.99 443 15.22 443.78 32.55 428.21 33.29 428.42 45.88 410.7 46.1 409.55 4.58"/><polygon class="cls-3" points="460.14 46.27 460.14 45.63 449.13 45.46 449.32 4.01 464.06 4.25 464.05 7.94 471.83 7.94 471.83 3.19 487.15 3.19 487.15 7.94 492.64 7.94 492.64 22.24 487.15 22.24 487.15 22.87 493.55 24.77 489.99 39.09 487.15 38 487.15 46.27 460.14 46.27"/><polygon class="cls-3" points="498.91 28.61 514.12 28.11 514.01 24.9 498.79 25.39 498.62 9.45 532.02 9.07 532.49 44.28 499.08 44.62 498.91 28.61"/><polygon class="cls-3" points="548.74 44.65 550.5 34.41 538.46 34.73 537.93 19.62 540.74 19.54 539.64 5.75 575.22 3.54 576.09 18.11 576.51 18.1 576.51 34.3 566.95 34.47 565.82 46.23 548.74 44.65"/><polygon class="cls-3" points="594.04 43.17 597.21 32.46 583.07 32.88 581.73 17.56 583.13 17.52 582.92 4.64 615.68 4.36 615.83 16.73 617.13 16.69 611.42 46.87 594.04 43.17"/><path class="cls-3" d="M85.79,47.58a3.2,3.2,0,0,1-2.61-1.34c-1.16-1.65-5.06-7.14-6-8.45a1.64,1.64,0,0,0-.26-.29,2.56,2.56,0,0,0-.42.36c-2.42,2.43-8.39,8.18-9.06,8.83a3.18,3.18,0,0,1-2.21.89H50.56a3.19,3.19,0,0,1-2.29-5.42c12-12.27,21.31-21.76,26-26.61-3.69-.05-9.24-.07-15.69-.07H54.25l8.3-13.69h49.34l-2.24,3.49c-.38.6-2.28,2.53-18,17.53l-2,1.93a2.16,2.16,0,0,0-.42.49,1.94,1.94,0,0,0,.29.46c3.07,3.9,9.83,13.06,12.6,16.81a3.19,3.19,0,0,1-2.58,5.08Z"/><path class="cls-3" d="M16.41,47.22c-2.4-.09-4.86-.09-7.24-.09l-3.73,0A3.87,3.87,0,0,1,1.86,45.4,3.83,3.83,0,0,1,2,41.49l2.62-5c2-3.72,4-7.57,5.94-11.37A9.89,9.89,0,0,1,20,19.43c1.79,0,3.59,0,5.33-.1,1.1,0,3.17-2,5.12-4.34H22.06C11.47,15,9.21,15,8.81,15l-.46,0a3.53,3.53,0,0,1-3.24-1.52,3.72,3.72,0,0,1,.14-3.75c.27-.53.53-1.06.79-1.59.65-1.33,1.32-2.7,2.05-4a4.37,4.37,0,0,1,3.65-2.39c.31,0,29,.27,39.3.27h2.62A3.47,3.47,0,0,1,56.8,3.46c.85,1.39.16,2.72-.39,3.8,0,0-1.45,2.84-2.1,4.14-2.19,4.3-4.44,8.75-6.78,13.08C45.7,27.87,42.4,29.69,38,29.75h-.17c-.66,0-1.28-.05-1.89-.1l-.54,0c-.41,0-.82-.05-1.21-.05-3.91,0-6.21,1.47-7.7,4.91-1,2.23-2.12,4.36-3.24,6.42-.6,1.1-1.2,2.21-1.77,3.32a5.07,5.07,0,0,1-4.8,3Z"/><path class="cls-3" d="M121.71,47.85c-1.52,0-3,0-4.55,0h-7.64a3.88,3.88,0,0,1-3.45-1.57,4.1,4.1,0,0,1-.19-4c.17-.46,1.32-4.42,9-35.7l.07-.3a4.35,4.35,0,0,1,4.54-3.7h.24l2.19,0c2.47,0,6.1,0,8.41-.07l1.76,0a3.81,3.81,0,0,1,3.21,1.34,4,4,0,0,1,.32,3.6,59.66,59.66,0,0,0-1.77,7.1l.11.15c5.27,2.3,10.77,4.58,16.8,7a4.33,4.33,0,0,1,2.76,5.66q-.75,2.8-1.47,5.61l-.65,2.5a3.5,3.5,0,0,1-3.42,2.9,6,6,0,0,1-2.28-.57c-2.48-1-8.76-3.75-12.92-5.55l-3.11-1.34c-.37,1.56-.77,3.1-1.16,4.65-.69,2.73-1.4,5.56-2,8.33a4.43,4.43,0,0,1-4.57,4Z"/><path class="cls-3" d="M186.52,48.16c-.39,0-.78,0-1.18,0-1.91-.12-7-.18-14.75-.18-6.24,0-12.36,0-15,.07h-.12A4.12,4.12,0,0,1,152,46.54a3.88,3.88,0,0,1-.21-3.7,11.92,11.92,0,0,0,.59-2.11c.69-4.09,1.37-5.62,5.82-5.62h1.84c3.46,0,6.92.06,10.38.06l4.52,0c4.53,0,5.73-3.58,6.05-5.69s1.44-6.73,2.52-11.16c.82-3.39,1.68-6.9,1.84-8,.55-3.77,2-6.28,7-6.28l2.39,0c1.85,0,3.71,0,5.57,0l2.23,0h.14a4.22,4.22,0,0,1,3.44,1.34,4.38,4.38,0,0,1,.48,3.86c-1.93,8.07-3.77,16.31-5.55,24.29l-.45,2C198.76,43.69,193.77,48.16,186.52,48.16Z"/><path class="cls-3" d="M159.89,20.69a3.62,3.62,0,0,1-3-1.28,3.61,3.61,0,0,1-.53-3.24l.56-2.26c.59-2.43,1.21-4.93,1.76-7.39a4.44,4.44,0,0,1,4.67-3.72c3.1,0,6.09.06,9.08.06l5.79,0h0a4.08,4.08,0,0,1,3.42,1.37A4.17,4.17,0,0,1,182,7.9c-.67,2.38-1.3,5-2,8.37-.72,3.65-3.11,4.41-5,4.41h-.46c-.46,0-1.59-.06-4.34-.06-4.1,0-9.3.07-10.3.08Z"/><path class="cls-2" d="M232.54,45.25l.33-5.63-3.51,5.14-6.46-6.64,11.59-10.78L238.66,31V17.22l-7.63.11h0l-8,.1V9.11l15.65.33-.17-4.53h9.78l-.16,4.53,3.36-.07-1.11-3L259,5l.12,4.41,2.74-.17,0,8.1-3.17,0,2.66,10-7.74,1.29,9.05,5.76L257.5,44l-9.28-8.33.05,9.72Zm3.09-9.08,3.07.35v-4.3ZM250.75,21.5,258,18.36l-.22-1.09L248,17.18Zm-27.29.57,7.6-4.68,3.9,7.83-5.09,4Z"/><polygon class="cls-2" points="293 29.62 281.26 44.92 272.99 38.2 287.54 22.2 287.38 4.79 298.3 4.79 298.13 22.2 313.01 38.21 304.75 44.92 293 29.62"/><polygon class="cls-2" points="341.66 42.87 343.88 27.33 338.26 26.5 337.36 35.41 326.93 34.74 327.99 25.59 323.84 25.09 325 13.58 329.92 14.12 330.77 6.62 340.97 7.84 340.11 15.31 345.59 15.88 346.45 7.72 357.54 8.87 356.64 17.25 360.5 17.82 358.49 28.77 355.13 28.27 353.2 44.59 341.66 42.87"/><polygon class="cls-2" points="382.83 27.7 375.33 30.09 371.72 19.66 396.44 10.52 401.1 21.94 393.32 24.84 394.66 39.46 383.75 40.24 382.83 27.7"/><polygon class="cls-2" points="412.46 7.36 424.13 7.14 424.41 18.97 440.3 18.19 440.82 29.85 425.33 30.59 425.54 43.08 413.46 43.23 412.46 7.36"/><path class="cls-2" d="M463,43.44V23.7h11.69V19.41H463V10.78h11.65V6h9.65v4.76h5.5v8.63h-5.5V25l5.84,1.73L488,35.29l-3.7-1.42v9.57ZM472.15,35l2.51-.07V32.24h-2.58ZM452,42.67l.16-35.78,9.08.15-.12,35.78Z"/><polygon class="cls-2" points="501.77 31.35 517.04 30.86 516.76 21.97 501.59 22.46 501.48 12.25 529.23 11.93 529.62 41.48 501.88 41.75 501.77 31.35"/><polygon class="cls-2" points="552.05 42.1 553.87 31.49 541.19 31.82 540.86 22.37 553.92 22 554.31 17.44 543.47 18.06 542.69 8.4 572.56 6.55 573.15 16.38 565.63 16.99 565.63 21.21 573.67 21 573.67 31.52 564.37 31.68 563.27 43.15 552.05 42.1"/><path class="cls-2" d="M597.63,41,601,29.51,585.66,30l-.85-9.65,28.89-.71L609.18,43.5ZM585.8,7.45l27.08-.24.11,8.88-27,.36Z"/><path class="cls-2" d="M232.54,45.25l.33-5.63-3.51,5.14-6.46-6.64,11.59-10.78L238.66,31V17.22l-7.63.11h0l-8,.1V9.11l15.65.33-.17-4.53h9.78l-.16,4.53,3.36-.07-1.11-3L259,5l.12,4.41,2.74-.17,0,8.1-3.17,0,2.66,10-7.74,1.29,9.05,5.76L257.5,44l-9.28-8.33.05,9.72Zm3.09-9.08,3.07.35v-4.3ZM250.75,21.5,258,18.36l-.22-1.09L248,17.18Zm-27.29.57,7.6-4.68,3.9,7.83-5.09,4Z"/><polygon class="cls-2" points="293 29.62 281.26 44.92 272.99 38.2 287.54 22.2 287.38 4.79 298.3 4.79 298.13 22.2 313.01 38.21 304.75 44.92 293 29.62"/><polygon class="cls-2" points="341.66 42.87 343.88 27.33 338.26 26.5 337.36 35.41 326.93 34.74 327.99 25.59 323.84 25.09 325 13.58 329.92 14.12 330.77 6.62 340.97 7.84 340.11 15.31 345.59 15.88 346.45 7.72 357.54 8.87 356.64 17.25 360.5 17.82 358.49 28.77 355.13 28.27 353.2 44.59 341.66 42.87"/><polygon class="cls-2" points="382.83 27.7 375.33 30.09 371.72 19.66 396.44 10.52 401.1 21.94 393.32 24.84 394.66 39.46 383.75 40.24 382.83 27.7"/><polygon class="cls-2" points="412.46 7.36 424.13 7.14 424.41 18.97 440.3 18.19 440.82 29.85 425.33 30.59 425.54 43.08 413.46 43.23 412.46 7.36"/><path class="cls-2" d="M463,43.44V23.7h11.69V19.41H463V10.78h11.65V6h9.65v4.76h5.5v8.63h-5.5V25l5.84,1.73L488,35.29l-3.7-1.42v9.57ZM472.15,35l2.51-.07V32.24h-2.58ZM452,42.67l.16-35.78,9.08.15-.12,35.78Z"/><polygon class="cls-2" points="501.77 31.35 517.04 30.86 516.76 21.97 501.59 22.46 501.48 12.25 529.23 11.93 529.62 41.48 501.88 41.75 501.77 31.35"/><polygon class="cls-2" points="552.05 42.1 553.87 31.49 541.19 31.82 540.86 22.37 553.92 22 554.31 17.44 543.47 18.06 542.69 8.4 572.56 6.55 573.15 16.38 565.63 16.99 565.63 21.21 573.67 21 573.67 31.52 564.37 31.68 563.27 43.15 552.05 42.1"/><path class="cls-2" d="M597.63,41,601,29.51,585.66,30l-.85-9.65,28.89-.71L609.18,43.5ZM585.8,7.45l27.08-.24.11,8.88-27,.36Z"/><path class="cls-2" d="M232.54,45.25l.33-5.63-3.51,5.14-6.46-6.64,11.59-10.78L238.66,31V17.22l-7.63.11h0l-8,.1V9.11l15.65.33-.17-4.53h9.78l-.16,4.53,3.36-.07-1.11-3L259,5l.12,4.41,2.74-.17,0,8.1-3.17,0,2.66,10-7.74,1.29,9.05,5.76L257.5,44l-9.28-8.33.05,9.72Zm3.09-9.08,3.07.35v-4.3ZM250.75,21.5,258,18.36l-.22-1.09L248,17.18Zm-27.29.57,7.6-4.68,3.9,7.83-5.09,4Z"/><polygon class="cls-2" points="293 29.62 281.26 44.92 272.99 38.2 287.54 22.2 287.38 4.79 298.3 4.79 298.13 22.2 313.01 38.21 304.75 44.92 293 29.62"/><polygon class="cls-2" points="341.66 42.87 343.88 27.33 338.26 26.5 337.36 35.41 326.93 34.74 327.99 25.59 323.84 25.09 325 13.58 329.92 14.12 330.77 6.62 340.97 7.84 340.11 15.31 345.59 15.88 346.45 7.72 357.54 8.87 356.64 17.25 360.5 17.82 358.49 28.77 355.13 28.27 353.2 44.59 341.66 42.87"/><polygon class="cls-2" points="382.83 27.7 375.33 30.09 371.72 19.66 396.44 10.52 401.1 21.94 393.32 24.84 394.66 39.46 383.75 40.24 382.83 27.7"/><polygon class="cls-2" points="412.46 7.36 424.13 7.14 424.41 18.97 440.3 18.19 440.82 29.85 425.33 30.59 425.54 43.08 413.46 43.23 412.46 7.36"/><path class="cls-2" d="M463,43.44V23.7h11.69V19.41H463V10.78h11.65V6h9.65v4.76h5.5v8.63h-5.5V25l5.84,1.73L488,35.29l-3.7-1.42v9.57ZM472.15,35l2.51-.07V32.24h-2.58ZM452,42.67l.16-35.78,9.08.15-.12,35.78Z"/><polygon class="cls-2" points="501.77 31.35 517.04 30.86 516.76 21.97 501.59 22.46 501.48 12.25 529.23 11.93 529.62 41.48 501.88 41.75 501.77 31.35"/><polygon class="cls-2" points="552.05 42.1 553.87 31.49 541.19 31.82 540.86 22.37 553.92 22 554.31 17.44 543.47 18.06 542.69 8.4 572.56 6.55 573.15 16.38 565.63 16.99 565.63 21.21 573.67 21 573.67 31.52 564.37 31.68 563.27 43.15 552.05 42.1"/><path class="cls-2" d="M597.63,41,601,29.51,585.66,30l-.85-9.65,28.89-.71L609.18,43.5ZM585.8,7.45l27.08-.24.11,8.88-27,.36Z"/><path class="cls-2" d="M85.79,44.74a.36.36,0,0,1-.29-.14c-1.17-1.66-5.08-7.16-6-8.48a3.1,3.1,0,0,0-2.5-1.5,3.56,3.56,0,0,0-2.48,1.24c-2.4,2.41-8.35,8.14-9,8.79a.34.34,0,0,1-.24.09H50.56a.36.36,0,0,1-.34-.22.33.33,0,0,1,.07-.37c19.42-19.8,29.38-30,29.59-30.43l.31-.56-.6-.23c-.46-.19-7.29-.28-20.3-.29l4.86-8h42.29c-2.76,2.79-11.62,11.26-16.71,16.14l-2,1.93c-1.61,1.54-1.74,3-.4,4.75,3,3.87,9.79,13,12.55,16.74a.38.38,0,0,1,0,.37.36.36,0,0,1-.33.19Z"/><path class="cls-2" d="M16.51,44.39c-2.44-.09-4.93-.09-7.33-.1H5.47c-.62,0-1-.13-1.17-.33s0-.62.25-1.14l2.62-5c2-3.72,4-7.58,5.95-11.4A7.08,7.08,0,0,1,20,22.26c1.83,0,3.66,0,5.43-.1C29.64,22,35.16,13.4,35.4,13l.55-.87H22.06c-8.13,0-12.64,0-13.41.06h-.3c-.57,0-.78-.11-.82-.17s-.13-.22.26-1c.27-.54.53-1.08.79-1.62.64-1.29,1.3-2.63,2-3.89a1.59,1.59,0,0,1,1.19-.93c.27,0,29,.28,39.28.28h2.62a2.52,2.52,0,0,1,.69.06,6.2,6.2,0,0,1-.46,1s-1.46,2.86-2.11,4.16c-2.18,4.28-4.43,8.72-6.75,13C43.7,25.6,41.32,26.87,38,26.92h-.13c-.54,0-1.09-.05-1.66-.09l-.56,0c-.49,0-1-.05-1.42-.05-5,0-8.38,2.16-10.3,6.62-.91,2.11-2,4.18-3.13,6.18-.61,1.13-1.22,2.25-1.81,3.39a2.24,2.24,0,0,1-2.27,1.47Z"/><path class="cls-2" d="M121.77,45c-1.54,0-3.08,0-4.61,0h-7.63c-.58,0-1-.12-1.12-.34s-.12-.72.12-1.35c.65-1.7,6-23.31,9-36l.07-.3c.28-1.15.73-1.53,1.79-1.53h.14c.47,0,1.29,0,2.29,0h0c2.48,0,6.12,0,8.44-.06l1.73,0c.74,0,.9.14.93.19s.14.27-.11,1.07a61.51,61.51,0,0,0-1.92,7.83,3.22,3.22,0,0,0,1.69,2.79c5.34,2.33,10.91,4.65,17,7.08,1.18.47,1.43,1,1.08,2.28-.51,1.88-1,3.77-1.49,5.66l-.64,2.48c-.21.79-.51.79-.68.79a3.58,3.58,0,0,1-1.18-.36c-2.47-1-8.74-3.74-12.89-5.53l-3.2-1.38a4,4,0,0,0-1.52-.36c-1.13,0-1.88.73-2.23,2.16q-.59,2.4-1.2,4.8c-.69,2.75-1.41,5.59-2,8.4-.31,1.38-.68,1.74-1.81,1.74Z"/><path class="cls-2" d="M186.52,45.33l-1,0c-2.48-.16-9.49-.2-14.93-.2-6.25,0-12.38,0-15,.07h0c-1,0-1.19-.16-1.26-.26s-.15-.34.13-1.1a14.92,14.92,0,0,0,.72-2.61c.56-3.25.56-3.25,3-3.25h1.82q5.2,0,10.4,0c1.52,0,3,0,4.55,0,4.7,0,8.08-3.14,8.82-8.1.31-2,1.46-6.75,2.47-10.91.88-3.62,1.71-7,1.9-8.28.46-3.14,1.23-3.86,4.14-3.86l2.35,0c1.87,0,3.74,0,5.61,0h2.37c.67,0,1.07.09,1.21.26s.18.49,0,1.43c-1.94,8.1-3.78,16.35-5.57,24.34l-.45,2C196.75,39.68,193.93,45.33,186.52,45.33Z"/><path class="cls-2" d="M159.89,17.86a1.09,1.09,0,0,1-.79-.2c-.1-.12-.1-.42,0-.82l.55-2.26c.6-2.43,1.22-4.95,1.78-7.44a1.62,1.62,0,0,1,1.9-1.5c3.07,0,6.08.05,9.08.05l5.8,0h0c.82,0,1.08.14,1.16.25s.16.38-.07,1.2c-.7,2.46-1.34,5.19-2,8.61-.31,1.56-.89,2.12-2.21,2.12h-.29c-.73,0-2.25-.06-4.51-.06-4.12,0-9.33.07-10.33.08Z"/></g></g></svg>