<svg xmlns="http://www.w3.org/2000/svg" viewBox="0 0 647.53 51.45"><defs><style>.cls-1,.cls-2{fill:#e30613;}.cls-2{stroke:#fff;stroke-miterlimit:10;}.cls-3{fill:#1d1d1b;}.cls-4{fill:#fff;}</style></defs><g id="Layer_2" data-name="Layer 2"><g id="Guides_For_Artboard" data-name="Guides For Artboard"><rect class="cls-1" y="12.72" width="647.53" height="25.51"/><path class="cls-2" d="M232.71,21.94l6.52-4-6.64.08V8.53l15.62.33-.16-4.51H259l-.16,4.51,2,0L259.74,5.9l10-1.6.12,4.48,2.75-.17,0,9.27-3,0,2.63,9.84-6.89,1.15,8.24,5.25-5.82,10.83-8.86-8,0,9-16.9-.17.25-4.18-2.75,4-7.34-7.55L244.6,26.58l3.61,3.15V17.8l-6.15.08,3.73,7.51-5.86,4.55Zm15.55,11.94-1.44,1.84,1.44.17Zm10.91-16.12,1.92,3,6.85-2.95Z"/><path class="cls-2" d="M282.29,38.27,297.1,22l-.17-17.76H309L308.83,22,324,38.27l-9.19,7.46L303.13,30.55,291.48,45.73Z"/><path class="cls-2" d="M351.15,43.35l2.21-15.54-4.47-.66L348,36l-11.57-.74,1.07-9.19-4.14-.49L334.62,13l4.92.53L340.4,6l11.32,1.35-.86,7.46,4.35.46.86-8.17,12.22,1.28-.9,8.4,3.9.58-2.22,12.06-3.32-.5-1.93,16.33Z"/><path class="cls-2" d="M393.34,40.85l-.9-12.39L385.1,30.8l-4-11.48L406.88,9.8,412,22.27l-7.92,2.95L405.4,40Z"/><path class="cls-2" d="M436.24,43.64,423,43.8l-1-37,12.79-.25.29,11.81L451,17.59l.58,12.8L436,31.13Z"/><path class="cls-2" d="M471.79,43.39l-10.25-.16.16-36.92,10.21.17ZM472.57,20V10.21h11.65V5.45H495v4.76h5.49V20H495v4.6L501,26.33l-2.42,9.72L495,34.7V44H472.53V23.13h11.69V20Zm10.21,12.84,0,1.6,1.4,0V32.81Z"/><path class="cls-2" d="M511.44,42.33l-.12-11.53,15.26-.49-.25-7.75-15.17.49L511,11.69l28.88-.33L540.32,42Z"/><path class="cls-2" d="M573.9,43.76l-12.38-1.15,1.8-10.54-12.55.33-.37-10.58,13.13-.37.28-3.41-10.74.62-.86-10.79,31-1.92.66,11-7.55.61v3.12l8-.21V32.07l-9.35.17Z"/><path class="cls-2" d="M607,41.46,610.4,30.1l-15.14.45-.94-10.78L624.51,19l-4.76,25.14ZM595.51,17l-.16-10.13,28.21-.25.13,10Z"/><path class="cls-2" d="M117.87,4.06c-.47.73-13.81,13.45-19.65,19-1.41,1.35-1.48,2.54-.34,4,3.06,3.89,9.9,13.16,12.55,16.76a.92.92,0,0,1-.75,1.46H95.91a.91.91,0,0,1-.75-.38c-1.08-1.52-5-7.14-6-8.47-1.21-1.66-2.67-1.66-4.12-.2-2.28,2.29-7.75,7.58-9,8.8a.93.93,0,0,1-.64.25H60.68A.92.92,0,0,1,60,43.75c6.22-6.34,29.23-29.82,29.5-30.3-.64-.25-21.1-.24-21.1-.24L74,4.06Z"/><path class="cls-2" d="M63.77,4.32c1.85,0,1.36.69.61,2.16-2.88,5.66-5.71,11.34-8.72,16.92-1.57,2.91-4.34,4-7.57,4.08-.8,0-1.6-.07-2.4-.13-5.08-.37-9,1.18-11.15,6.22-1.43,3.3-3.32,6.4-5,9.61a2.83,2.83,0,0,1-3,1.77c-3.67-.13-7.35-.07-11-.11-1.65,0-2.24-.74-1.42-2.3C17,37.09,20,31.66,22.74,26.18a7.7,7.7,0,0,1,7.41-4.49c1.81,0,3.61,0,5.42-.09C39.5,21.46,45,12.73,45,12.73s-24.37-.05-26.24,0c-1.58.09-2.18-.41-1.4-2,.93-1.85,1.81-3.73,2.8-5.53a2.08,2.08,0,0,1,1.67-1.21S57.09,4.39,63.77,4.32Z"/><path class="cls-2" d="M142.15,4.81c1.48,0,1.83.52,1.38,2a59.73,59.73,0,0,0-1.9,7.76A2.71,2.71,0,0,0,143,16.74q8.45,3.69,17,7.08c1.55.61,1.8,1.53,1.41,2.95-.74,2.71-1.42,5.42-2.13,8.14-.46,1.77-1.71,1.19-2.71.77-3.26-1.36-13.92-6-16-6.87-1.56-.67-2.55-.34-3,1.41-1.07,4.4-2.25,8.77-3.25,13.19-.33,1.47-.83,2.21-2.46,2.18-4.08-.09-8.15,0-12.23,0-1.68,0-2.13-.87-1.53-2.45.75-2,8.07-32,9.1-36.27a2.19,2.19,0,0,1,2.51-2C131.73,4.94,140,4.83,142.15,4.81Z"/><path class="cls-2" d="M165.74,45.74c-1.64,0-2.28-.47-1.67-2.12a14,14,0,0,0,.7-2.51c.64-3.77.62-3.75,4.5-3.72,5.28,0,10.57.08,15.84,0,4.63,0,7.59-3.08,8.28-7.62.57-3.81,4-16.53,4.36-19.19.5-3.39,1.46-4.38,4.9-4.34s6.68.11,10,.06c1.83,0,2.28.51,1.83,2.4-2.09,8.75-4.05,17.54-6,26.33-1.37,6.12-5,11.29-12.88,10.79C191.08,45.57,171.15,45.68,165.74,45.74Z"/><path class="cls-2" d="M170.08,18.43c-1.26,0-1.71-.51-1.41-1.73.79-3.22,1.6-6.45,2.33-9.69a2.19,2.19,0,0,1,2.53-1.94c4.93.06,9.87.06,14.8,0,1.62,0,2.12.49,1.64,2.17-.81,2.81-1.44,5.68-2,8.56-.36,1.79-1.13,2.68-3.09,2.57C182.55,18.27,172.68,18.39,170.08,18.43Z"/><polygon class="cls-3" points="226.95 37.97 235.25 30.25 227.01 21.13 228.9 19.96 228.9 4.77 244.39 5.09 244.23 0.66 262.82 0.66 262.79 1.68 273.27 0 273.41 4.87 276.25 4.7 276.32 21.62 274.44 21.59 276.86 30.65 275.44 30.89 278.47 32.81 268.8 50.78 262.64 45.25 262.66 49.7 241.4 49.49 240.06 51.45 226.95 37.97"/><polygon class="cls-3" points="303.13 36.61 292.09 50.98 276.94 38.67 293.4 20.57 293.21 0.54 312.71 0.54 312.53 20.55 329.34 38.64 314.16 50.98 303.13 36.61"/><polygon class="cls-3" points="346.98 46.46 347.94 39.7 332.31 38.7 333.4 29.31 329.32 28.82 331.32 8.9 336.3 9.44 337.16 1.89 352.72 3.75 352.79 3.05 372.35 5.08 371.43 13.64 375.6 14.26 372.05 33.57 368.96 33.12 367.03 49.44 346.98 46.46"/><polygon class="cls-3" points="389.11 33.39 382.79 35.4 376.46 17.11 408.94 5.11 416.81 24.39 407.98 27.69 409.42 43.4 389.94 44.79 389.11 33.39"/><polygon class="cls-3" points="418.22 3.19 438.4 2.81 438.68 14.51 454.48 13.73 455.38 33.9 439.78 34.64 439.98 47.28 419.45 47.53 418.22 3.19"/><polygon class="cls-3" points="468.84 47.69 468.84 47.03 457.83 46.85 458.03 2.57 475.61 2.85 475.6 6.53 480.53 6.53 480.53 1.77 498.69 1.77 498.69 6.53 504.19 6.53 504.19 23.45 505.38 23.8 501.1 40.98 498.69 40.06 498.69 47.69 468.84 47.69"/><polygon class="cls-3" points="507.6 27.23 522.78 26.74 522.77 26.36 507.51 26.85 507.31 8.04 543.54 7.63 544.05 45.69 507.8 46.05 507.6 27.23"/><polygon class="cls-3" points="557.21 45.91 558.93 35.87 547.21 36.18 546.59 18.24 549.33 18.16 548.23 4.43 586.67 2.04 587.55 16.66 588.05 16.64 588.05 35.69 578.36 35.86 577.22 47.77 557.21 45.91"/><polygon class="cls-3" points="602.37 44.24 605.42 33.94 591.9 34.34 590.31 16.18 591.81 16.14 591.6 3.24 627.2 2.93 627.36 15.27 628.98 15.23 622.67 48.56 602.37 44.24"/><polygon class="cls-3" points="226.95 37.97 235.25 30.25 227.01 21.13 228.9 19.96 228.9 4.77 244.39 5.09 244.23 0.66 262.82 0.66 262.79 1.68 273.27 0 273.41 4.87 276.25 4.7 276.32 21.62 274.44 21.59 276.86 30.65 275.44 30.89 278.47 32.81 268.8 50.78 262.64 45.25 262.66 49.7 241.4 49.49 240.06 51.45 226.95 37.97"/><polygon class="cls-3" points="303.13 36.61 292.09 50.98 276.94 38.67 293.4 20.57 293.21 0.54 312.71 0.54 312.53 20.55 329.34 38.64 314.16 50.98 303.13 36.61"/><polygon class="cls-3" points="346.98 46.46 347.94 39.7 332.31 38.7 333.4 29.31 329.32 28.82 331.32 8.9 336.3 9.44 337.16 1.89 352.72 3.75 352.79 3.05 372.35 5.08 371.43 13.64 375.6 14.26 372.05 33.57 368.96 33.12 367.03 49.44 346.98 46.46"/><polygon class="cls-3" points="389.11 33.39 382.79 35.4 376.46 17.11 408.94 5.11 416.81 24.39 407.98 27.69 409.42 43.4 389.94 44.79 389.11 33.39"/><polygon class="cls-3" points="418.22 3.19 438.4 2.81 438.68 14.51 454.48 13.73 455.38 33.9 439.78 34.64 439.98 47.28 419.45 47.53 418.22 3.19"/><polygon class="cls-3" points="468.84 47.69 468.84 47.03 457.83 46.85 458.03 2.57 475.61 2.85 475.6 6.53 480.53 6.53 480.53 1.77 498.69 1.77 498.69 6.53 504.19 6.53 504.19 23.45 505.38 23.8 501.1 40.98 498.69 40.06 498.69 47.69 468.84 47.69"/><polygon class="cls-3" points="507.6 27.23 522.78 26.74 522.77 26.36 507.51 26.85 507.31 8.04 543.54 7.63 544.05 45.69 507.8 46.05 507.6 27.23"/><polygon class="cls-3" points="557.21 45.91 558.93 35.87 547.21 36.18 546.59 18.24 549.33 18.16 548.23 4.43 586.67 2.04 587.55 16.66 588.05 16.64 588.05 35.69 578.36 35.86 577.22 47.77 557.21 45.91"/><polygon class="cls-3" points="602.37 44.24 605.42 33.94 591.9 34.34 590.31 16.18 591.81 16.14 591.6 3.24 627.2 2.93 627.36 15.27 628.98 15.23 622.67 48.56 602.37 44.24"/><polygon class="cls-3" points="226.95 37.97 235.25 30.25 227.01 21.13 228.9 19.96 228.9 4.77 244.39 5.09 244.23 0.66 262.82 0.66 262.79 1.68 273.27 0 273.41 4.87 276.25 4.7 276.32 21.62 274.44 21.59 276.86 30.65 275.44 30.89 278.47 32.81 268.8 50.78 262.64 45.25 262.66 49.7 241.4 49.49 240.06 51.45 226.95 37.97"/><polygon class="cls-3" points="303.13 36.61 292.09 50.98 276.94 38.67 293.4 20.57 293.21 0.54 312.71 0.54 312.53 20.55 329.34 38.64 314.16 50.98 303.13 36.61"/><polygon class="cls-3" points="346.98 46.46 347.94 39.7 332.31 38.7 333.4 29.31 329.32 28.82 331.32 8.9 336.3 9.44 337.16 1.89 352.72 3.75 352.79 3.05 372.35 5.08 371.43 13.64 375.6 14.26 372.05 33.57 368.96 33.12 367.03 49.44 346.98 46.46"/><polygon class="cls-3" points="389.11 33.39 382.79 35.4 376.46 17.11 408.94 5.11 416.81 24.39 407.98 27.69 409.42 43.4 389.94 44.79 389.11 33.39"/><polygon class="cls-3" points="418.22 3.19 438.4 2.81 438.68 14.51 454.48 13.73 455.38 33.9 439.78 34.64 439.98 47.28 419.45 47.53 418.22 3.19"/><polygon class="cls-3" points="468.84 47.69 468.84 47.03 457.83 46.85 458.03 2.57 475.61 2.85 475.6 6.53 480.53 6.53 480.53 1.77 498.69 1.77 498.69 6.53 504.19 6.53 504.19 23.45 505.38 23.8 501.1 40.98 498.69 40.06 498.69 47.69 468.84 47.69"/><polygon class="cls-3" points="507.6 27.23 522.78 26.74 522.77 26.36 507.51 26.85 507.31 8.04 543.54 7.63 544.05 45.69 507.8 46.05 507.6 27.23"/><polygon class="cls-3" points="557.21 45.91 558.93 35.87 547.21 36.18 546.59 18.24 549.33 18.16 548.23 4.43 586.67 2.04 587.55 16.66 588.05 16.64 588.05 35.69 578.36 35.86 577.22 47.77 557.21 45.91"/><polygon class="cls-3" points="602.37 44.24 605.42 33.94 591.9 34.34 590.31 16.18 591.81 16.14 591.6 3.24 627.2 2.93 627.36 15.27 628.98 15.23 622.67 48.56 602.37 44.24"/><path class="cls-3" d="M95.91,49a4.6,4.6,0,0,1-3.76-2c-1-1.36-3.81-5.37-5.29-7.44-2.74,2.72-7.71,7.51-8.32,8.1A4.59,4.59,0,0,1,75.34,49H60.68a4.61,4.61,0,0,1-3.3-7.83c10.3-10.5,18.59-19,23.69-24.23-3.42,0-7.71-.05-12.41-.05h-6.8L71.88.37h52.73L121,6.05c-.43.66-.66,1-18.19,17.79l-1.58,1.51c3.25,4.19,9.56,12.72,12.2,16.31A4.61,4.61,0,0,1,109.68,49Z"/><path class="cls-3" d="M26.48,48.64c-2.37-.09-4.82-.09-7.18-.1H15.55c-2.79,0-4.14-1.32-4.78-2.4a5.19,5.19,0,0,1,.14-5.3l2.63-5c2-3.71,4-7.55,5.92-11.34A11.35,11.35,0,0,1,30.15,18c1.75,0,3.5,0,5.21-.09a6.21,6.21,0,0,0,2-1.51H32.19c-11,0-12.87,0-13.18.06l-.54,0A4.85,4.85,0,0,1,14,14.28c-.63-1-1.12-2.73.08-5.13l.78-1.58c.66-1.34,1.34-2.73,2.09-4.08A5.78,5.78,0,0,1,21.87.37c.32,0,29,.28,39.27.28h2.7a4.65,4.65,0,0,1,4.3,2.08c1.26,2.07.25,4-.35,5.19L65.69,12c-2.18,4.31-4.44,8.77-6.79,13.12-1.46,2.69-4.51,5.92-10.76,6H48c-.73,0-1.42-.06-2-.11l-.51,0c-.37,0-.74,0-1.11,0C41,31,39.16,32.16,37.92,35c-1,2.29-2.16,4.45-3.3,6.54-.6,1.09-1.19,2.18-1.75,3.29a6.5,6.5,0,0,1-6.07,3.78Z"/><path class="cls-3" d="M131.8,49.27c-1.51,0-3,0-4.55,0h-7.61A5.33,5.33,0,0,1,115,47.07a5.41,5.41,0,0,1-.35-5.27c.37-1.09,2.92-11,8.9-35.57l.06-.26a5.8,5.8,0,0,1,5.92-4.78h.29c.45,0,1.21,0,2.15,0h0c2.47,0,6.1,0,8.4-.06l1.72,0A5.1,5.1,0,0,1,146.52,3a5.21,5.21,0,0,1,.53,4.85,59,59,0,0,0-1.54,5.94c5,2.15,10.17,4.3,15.85,6.56a5.74,5.74,0,0,1,3.6,7.35q-.75,2.81-1.47,5.61l-.64,2.49a4.91,4.91,0,0,1-4.79,4,7,7,0,0,1-2.83-.69c-2.49-1-8.78-3.75-12.93-5.54l-1.58-.68c-.25,1-.5,2-.76,3-.69,2.73-1.4,5.54-2,8.31-.94,4.17-3.76,5.05-6,5.05Z"/><path class="cls-3" d="M196.64,49.58c-.41,0-.83,0-1.27,0-1.85-.12-7.05-.18-14.66-.18-6.23,0-12.34,0-14.93.07h-.13A5.3,5.3,0,0,1,161,47.35a5.19,5.19,0,0,1-.38-5,10.89,10.89,0,0,0,.53-1.85c.7-4.13,1.57-6.8,7.21-6.8h1.79c3.47,0,6.94,0,10.41,0l4.53,0c3.3,0,4.36-2.45,4.66-4.48.33-2.21,1.46-6.83,2.54-11.29.78-3.2,1.67-6.83,1.82-7.89.51-3.49,1.93-7.49,8.35-7.49l2.36,0c1.87,0,3.73,0,5.59,0h2.39a5.57,5.57,0,0,1,4.54,1.88,5.79,5.79,0,0,1,.76,5.06c-1.93,8-3.77,16.28-5.55,24.24l-.45,2C210.14,44.58,204.51,49.58,196.64,49.58Z"/><path class="cls-3" d="M170,22.11a4.8,4.8,0,0,1-4.93-6.28l.55-2.26c.6-2.42,1.22-4.91,1.76-7.36a5.81,5.81,0,0,1,6.06-4.82h.12q4.46,0,8.91.05l5.82,0a5.37,5.37,0,0,1,4.58,1.93,5.37,5.37,0,0,1,.62,4.94c-.67,2.34-1.28,5-1.93,8.26-1,5-4.79,5.55-6.38,5.55l-.53,0c-.45,0-1.55,0-4.26,0-4.2,0-9.67.07-10.28.08Z"/><path class="cls-4" d="M229,38l8.25-7.68-8-8.9,1.87-1.15h-.75V6.21l15.54.33-.16-4.46h15.65l0,1.28,10.59-1.7L272,6.37l2.8-.16.07,14-2.31,0,2.49,9.36-3.51.59,5,3.2-8.19,15.22-7.2-6.46,0,6.21-20.59-.2-.78,1.15ZM246,20.6v-.5h-.25Z"/><polygon class="cls-4" points="303.13 34.28 291.86 48.96 279 38.51 294.82 21.11 294.64 1.96 311.28 1.96 311.1 21.1 327.27 38.5 314.4 48.96 303.13 34.28"/><polygon class="cls-4" points="348.58 45.26 349.56 38.38 333.89 37.38 334.98 28.07 330.87 27.58 332.59 10.46 337.54 10.99 338.41 3.46 353.98 5.33 354.05 4.6 370.79 6.34 369.88 14.85 373.94 15.45 370.9 31.97 367.73 31.5 365.8 47.83 348.58 45.26"/><polygon class="cls-4" points="390.39 31.5 383.68 33.63 378.25 17.96 408.15 6.91 414.95 23.58 406.46 26.74 407.87 42.09 391.25 43.27 390.39 31.5"/><polygon class="cls-4" points="419.68 4.58 437.01 4.25 437.3 15.99 453.13 15.22 453.9 32.55 438.34 33.29 438.54 45.88 420.82 46.1 419.68 4.58"/><polygon class="cls-4" points="470.26 46.27 470.26 45.64 459.26 45.46 459.44 4.01 474.19 4.25 474.18 7.94 481.95 7.94 481.95 3.19 497.27 3.19 497.27 7.94 502.77 7.94 502.77 22.24 497.27 22.24 497.27 22.87 503.68 24.77 500.11 39.09 497.27 38 497.27 46.27 470.26 46.27"/><polygon class="cls-4" points="509.03 28.61 524.24 28.11 524.14 24.9 508.92 25.39 508.74 9.45 542.15 9.07 542.62 44.28 509.2 44.62 509.03 28.61"/><polygon class="cls-4" points="558.87 44.65 560.62 34.41 548.58 34.73 548.05 19.62 550.86 19.54 549.76 5.75 585.34 3.54 586.21 18.11 586.63 18.1 586.63 34.3 577.07 34.47 575.94 46.23 558.87 44.65"/><polygon class="cls-4" points="604.16 43.17 607.34 32.46 593.19 32.88 591.85 17.56 593.25 17.52 593.04 4.64 625.8 4.36 625.96 16.73 627.26 16.69 621.55 46.87 604.16 43.17"/><path class="cls-4" d="M229,38l8.25-7.68-8-8.9,1.87-1.15h-.75V6.21l15.54.33-.16-4.46h15.65l0,1.28,10.59-1.7L272,6.37l2.8-.16.07,14-2.31,0,2.49,9.36-3.51.59,5,3.2-8.19,15.22-7.2-6.46,0,6.21-20.59-.2-.78,1.15ZM246,20.6v-.5h-.25Z"/><polygon class="cls-4" points="303.13 34.28 291.86 48.96 279 38.51 294.82 21.11 294.64 1.96 311.28 1.96 311.1 21.1 327.27 38.5 314.4 48.96 303.13 34.28"/><polygon class="cls-4" points="348.58 45.26 349.56 38.38 333.89 37.38 334.98 28.07 330.87 27.58 332.59 10.46 337.54 10.99 338.41 3.46 353.98 5.33 354.05 4.6 370.79 6.34 369.88 14.85 373.94 15.45 370.9 31.97 367.73 31.5 365.8 47.83 348.58 45.26"/><polygon class="cls-4" points="390.39 31.5 383.68 33.63 378.25 17.96 408.15 6.91 414.95 23.58 406.46 26.74 407.87 42.09 391.25 43.27 390.39 31.5"/><polygon class="cls-4" points="419.68 4.58 437.01 4.25 437.3 15.99 453.13 15.22 453.9 32.55 438.34 33.29 438.54 45.88 420.82 46.1 419.68 4.58"/><polygon class="cls-4" points="470.26 46.27 470.26 45.64 459.26 45.46 459.44 4.01 474.19 4.25 474.18 7.94 481.95 7.94 481.95 3.19 497.27 3.19 497.27 7.94 502.77 7.94 502.77 22.24 497.27 22.24 497.27 22.87 503.68 24.77 500.11 39.09 497.27 38 497.27 46.27 470.26 46.27"/><polygon class="cls-4" points="509.03 28.61 524.24 28.11 524.14 24.9 508.92 25.39 508.74 9.45 542.15 9.07 542.62 44.28 509.2 44.62 509.03 28.61"/><polygon class="cls-4" points="558.87 44.65 560.62 34.41 548.58 34.73 548.05 19.62 550.86 19.54 549.76 5.75 585.34 3.54 586.21 18.11 586.63 18.1 586.63 34.3 577.07 34.47 575.94 46.23 558.87 44.65"/><polygon class="cls-4" points="604.16 43.17 607.34 32.46 593.19 32.88 591.85 17.56 593.25 17.52 593.04 4.64 625.8 4.36 625.96 16.73 627.26 16.69 621.55 46.87 604.16 43.17"/><path class="cls-4" d="M229,38l8.25-7.68-8-8.9,1.87-1.15h-.75V6.21l15.54.33-.16-4.46h15.65l0,1.28,10.59-1.7L272,6.37l2.8-.16.07,14-2.31,0,2.49,9.36-3.51.59,5,3.2-8.19,15.22-7.2-6.46,0,6.21-20.59-.2-.78,1.15ZM246,20.6v-.5h-.25Z"/><polygon class="cls-4" points="303.13 34.28 291.86 48.96 279 38.51 294.82 21.11 294.64 1.96 311.28 1.96 311.1 21.1 327.27 38.5 314.4 48.96 303.13 34.28"/><polygon class="cls-4" points="348.58 45.26 349.56 38.38 333.89 37.38 334.98 28.07 330.87 27.58 332.59 10.46 337.54 10.99 338.41 3.46 353.98 5.33 354.05 4.6 370.79 6.34 369.88 14.85 373.94 15.45 370.9 31.97 367.73 31.5 365.8 47.83 348.58 45.26"/><polygon class="cls-4" points="390.39 31.5 383.68 33.63 378.25 17.96 408.15 6.91 414.95 23.58 406.46 26.74 407.87 42.09 391.25 43.27 390.39 31.5"/><polygon class="cls-4" points="419.68 4.58 437.01 4.25 437.3 15.99 453.13 15.22 453.9 32.55 438.34 33.29 438.54 45.88 420.82 46.1 419.68 4.58"/><polygon class="cls-4" points="470.26 46.27 470.26 45.64 459.26 45.46 459.44 4.01 474.19 4.25 474.18 7.94 481.95 7.94 481.95 3.19 497.27 3.19 497.27 7.94 502.77 7.94 502.77 22.24 497.27 22.24 497.27 22.87 503.68 24.77 500.11 39.09 497.27 38 497.27 46.27 470.26 46.27"/><polygon class="cls-4" points="509.03 28.61 524.24 28.11 524.14 24.9 508.92 25.39 508.74 9.45 542.15 9.07 542.62 44.28 509.2 44.62 509.03 28.61"/><polygon class="cls-4" points="558.87 44.65 560.62 34.41 548.58 34.73 548.05 19.62 550.86 19.54 549.76 5.75 585.34 3.54 586.21 18.11 586.63 18.1 586.63 34.3 577.07 34.47 575.94 46.23 558.87 44.65"/><polygon class="cls-4" points="604.16 43.17 607.34 32.46 593.19 32.88 591.85 17.56 593.25 17.52 593.04 4.64 625.8 4.36 625.96 16.73 627.26 16.69 621.55 46.87 604.16 43.17"/><path class="cls-4" d="M95.91,47.58a3.17,3.17,0,0,1-2.6-1.34c-1.17-1.65-5.06-7.14-6-8.45A1.71,1.71,0,0,0,87,37.5a2.15,2.15,0,0,0-.43.36c-2.43,2.44-8.39,8.18-9.06,8.83a3.18,3.18,0,0,1-2.21.89H60.68a3.19,3.19,0,0,1-2.29-5.42c9.61-9.79,20.59-21,26-26.61-4.08-.05-10.14-.07-15.73-.07H64.38L72.67,1.79H122l-2.25,3.49c-.38.6-2.28,2.53-18,17.54l-2,1.92a3,3,0,0,0-.42.49,1.94,1.94,0,0,0,.29.46c3.09,3.93,9.84,13.06,12.6,16.81a3.19,3.19,0,0,1-2.58,5.08Z"/><path class="cls-4" d="M26.53,47.22c-2.39-.09-4.85-.09-7.23-.09l-3.74,0a3.57,3.57,0,0,1-3.4-5.62l2.63-5c2-3.71,4-7.55,5.93-11.35a9.9,9.9,0,0,1,9.43-5.72c1.79,0,3.59,0,5.34-.1,1.09,0,3.17-2,5.11-4.34H32.19c-10.6,0-12.86,0-13.26.07h-.46a3.5,3.5,0,0,1-3.23-1.52,3.7,3.7,0,0,1,.14-3.75l.78-1.59c.65-1.33,1.33-2.7,2.06-4a4.35,4.35,0,0,1,3.65-2.39c.31,0,29,.27,39.27.27h2.64a3.49,3.49,0,0,1,3.15,1.41c.85,1.39.16,2.72-.4,3.8,0,0-1.45,2.84-2.1,4.14-2.18,4.3-4.44,8.75-6.78,13.08-1.83,3.39-5.13,5.21-9.53,5.27H48c-.67,0-1.3-.05-1.91-.1l-.53,0c-.41,0-.81-.05-1.21-.05-3.91,0-6.21,1.47-7.69,4.91-1,2.23-2.12,4.36-3.25,6.42-.6,1.1-1.2,2.21-1.77,3.32a5.07,5.07,0,0,1-4.8,3Z"/><path class="cls-4" d="M131.83,47.85c-1.53,0-3.05,0-4.58,0h-7.6a3.86,3.86,0,0,1-3.45-1.57,4.1,4.1,0,0,1-.2-4c.17-.46,1.33-4.42,9-35.73L125,6.3a4.36,4.36,0,0,1,4.54-3.7h.25l2.19,0c2.48,0,6.11,0,8.42-.07h1.74a3.84,3.84,0,0,1,3.22,1.33,4,4,0,0,1,.31,3.6,57.63,57.63,0,0,0-1.76,7.1.83.83,0,0,0,.11.15c5.26,2.29,10.75,4.58,16.79,7a4.35,4.35,0,0,1,2.77,5.66q-.76,2.8-1.48,5.63l-.64,2.48a3.51,3.51,0,0,1-3.42,2.9,5.9,5.9,0,0,1-2.28-.57c-2.49-1-8.77-3.75-12.92-5.54l-3.11-1.35c-.38,1.55-.77,3.1-1.16,4.64-.69,2.74-1.41,5.56-2,8.35A4.43,4.43,0,0,1,132,47.85Z"/><path class="cls-4" d="M196.64,48.16c-.38,0-.78,0-1.18,0-1.9-.12-7-.18-14.75-.18-6.23,0-12.35,0-15,.07h-.11a4.11,4.11,0,0,1-3.5-1.47,3.88,3.88,0,0,1-.21-3.7,11.92,11.92,0,0,0,.59-2.11c.7-4.09,1.38-5.62,5.82-5.62h1.78c3.47,0,6.94.06,10.42.06l4.55,0c4.52,0,5.73-3.58,6-5.69s1.44-6.73,2.52-11.16c.83-3.39,1.68-6.9,1.85-8,.55-3.77,1.94-6.28,6.94-6.28l2.34,0c1.87,0,3.74,0,5.61,0l2.24,0h.15a4.2,4.2,0,0,1,3.43,1.34,4.38,4.38,0,0,1,.49,3.86c-1.93,8.06-3.77,16.29-5.55,24.26l-.46,2C208.89,43.69,203.89,48.16,196.64,48.16Z"/><path class="cls-4" d="M170,20.69a3.64,3.64,0,0,1-3-1.28,3.61,3.61,0,0,1-.52-3.24l.55-2.26c.6-2.42,1.22-4.93,1.77-7.39a4.42,4.42,0,0,1,4.67-3.72h.1c3,0,5.95.06,8.93.06l5.83,0h0a4.07,4.07,0,0,1,3.42,1.37,4.22,4.22,0,0,1,.39,3.69c-.68,2.38-1.3,5-2,8.37-.72,3.65-3.11,4.41-5,4.41h-.45c-.46,0-1.59-.06-4.34-.06-4.21,0-9.69.07-10.3.08Z"/><path class="cls-3" d="M242.66,45.25l.33-5.63-3.51,5.14L233,38.12l11.59-10.78L248.78,31V17.22l-7.63.11h0l-8,.1V9.11l15.65.33-.16-4.53h9.77l-.16,4.53,3.36-.07-1.1-3L269.16,5l.12,4.41L272,9.21l0,8.1-3.17,0,2.66,10-7.73,1.29,9,5.76L267.62,44l-9.27-8.33,0,9.72Zm3.09-9.08,3.07.35v-4.3ZM260.87,21.5l7.3-3.14L268,17.27l-9.82-.09Zm-27.28.57,7.59-4.68,3.9,7.83-5.08,4Z"/><polygon class="cls-3" points="303.13 29.62 291.38 44.92 283.11 38.2 297.67 22.2 297.5 4.79 308.42 4.79 308.26 22.2 323.13 38.21 314.87 44.92 303.13 29.62"/><polygon class="cls-3" points="351.79 42.87 354 27.33 348.39 26.5 347.48 35.41 337.05 34.74 338.12 25.59 333.97 25.09 335.12 13.58 340.04 14.12 340.9 6.62 351.09 7.84 350.23 15.31 355.71 15.88 356.57 7.72 367.67 8.87 366.77 17.25 370.62 17.82 368.61 28.77 365.25 28.27 363.33 44.59 351.79 42.87"/><polygon class="cls-3" points="392.95 27.7 385.45 30.09 381.84 19.66 406.56 10.52 411.22 21.94 403.44 24.84 404.79 39.46 393.87 40.24 392.95 27.7"/><polygon class="cls-3" points="422.59 7.36 434.25 7.14 434.54 18.97 450.42 18.19 450.94 29.85 435.46 30.59 435.66 43.08 423.58 43.23 422.59 7.36"/><path class="cls-3" d="M473.1,43.44V23.7h11.69V19.41H473.14V10.78h11.65V6h9.65v4.76h5.49v8.63h-5.49V25l5.83,1.73-2.13,8.57-3.7-1.42v9.57ZM482.27,35l2.52-.07V32.24H482.2Zm-20.16,7.68.15-35.78,9.08.15-.12,35.78Z"/><polygon class="cls-3" points="511.89 31.35 527.16 30.86 526.88 21.97 511.72 22.46 511.61 12.25 539.35 11.93 539.75 41.48 512 41.75 511.89 31.35"/><polygon class="cls-3" points="562.18 42.1 564 31.49 551.32 31.82 550.99 22.37 564.05 22 564.43 17.44 553.59 18.06 552.82 8.4 582.68 6.55 583.27 16.38 575.75 16.99 575.75 21.21 583.79 21.01 583.79 31.52 574.49 31.68 573.39 43.15 562.18 42.1"/><path class="cls-3" d="M607.75,41l3.41-11.53L595.78,30l-.84-9.65,28.88-.71L619.3,43.5ZM595.92,7.45,623,7.21l.1,8.88-27,.36Z"/><path class="cls-3" d="M242.66,45.25l.33-5.63-3.51,5.14L233,38.12l11.59-10.78L248.78,31V17.22l-7.63.11h0l-8,.1V9.11l15.65.33-.16-4.53h9.77l-.16,4.53,3.36-.07-1.1-3L269.16,5l.12,4.41L272,9.21l0,8.1-3.17,0,2.66,10-7.73,1.29,9,5.76L267.62,44l-9.27-8.33,0,9.72Zm3.09-9.08,3.07.35v-4.3ZM260.87,21.5l7.3-3.14L268,17.27l-9.82-.09Zm-27.28.57,7.59-4.68,3.9,7.83-5.08,4Z"/><polygon class="cls-3" points="303.13 29.62 291.38 44.92 283.11 38.2 297.67 22.2 297.5 4.79 308.42 4.79 308.26 22.2 323.13 38.21 314.87 44.92 303.13 29.62"/><polygon class="cls-3" points="351.79 42.87 354 27.33 348.39 26.5 347.48 35.41 337.05 34.74 338.12 25.59 333.97 25.09 335.12 13.58 340.04 14.12 340.9 6.62 351.09 7.84 350.23 15.31 355.71 15.88 356.57 7.72 367.67 8.87 366.77 17.25 370.62 17.82 368.61 28.77 365.25 28.27 363.33 44.59 351.79 42.87"/><polygon class="cls-3" points="392.95 27.7 385.45 30.09 381.84 19.66 406.56 10.52 411.22 21.94 403.44 24.84 404.79 39.46 393.87 40.24 392.95 27.7"/><polygon class="cls-3" points="422.59 7.36 434.25 7.14 434.54 18.97 450.42 18.19 450.94 29.85 435.46 30.59 435.66 43.08 423.58 43.23 422.59 7.36"/><path class="cls-3" d="M473.1,43.44V23.7h11.69V19.41H473.14V10.78h11.65V6h9.65v4.76h5.49v8.63h-5.49V25l5.83,1.73-2.13,8.57-3.7-1.42v9.57ZM482.27,35l2.52-.07V32.24H482.2Zm-20.16,7.68.15-35.78,9.08.15-.12,35.78Z"/><polygon class="cls-3" points="511.89 31.35 527.16 30.86 526.88 21.97 511.72 22.46 511.61 12.25 539.35 11.93 539.75 41.48 512 41.75 511.89 31.35"/><polygon class="cls-3" points="562.18 42.1 564 31.49 551.32 31.82 550.99 22.37 564.05 22 564.43 17.44 553.59 18.06 552.82 8.4 582.68 6.55 583.27 16.38 575.75 16.99 575.75 21.21 583.79 21.01 583.79 31.52 574.49 31.68 573.39 43.15 562.18 42.1"/><path class="cls-3" d="M607.75,41l3.41-11.53L595.78,30l-.84-9.65,28.88-.71L619.3,43.5ZM595.92,7.45,623,7.21l.1,8.88-27,.36Z"/><path class="cls-3" d="M242.66,45.25l.33-5.63-3.51,5.14L233,38.12l11.59-10.78L248.78,31V17.22l-7.63.11h0l-8,.1V9.11l15.65.33-.16-4.53h9.77l-.16,4.53,3.36-.07-1.1-3L269.16,5l.12,4.41L272,9.21l0,8.1-3.17,0,2.66,10-7.73,1.29,9,5.76L267.62,44l-9.27-8.33,0,9.72Zm3.09-9.08,3.07.35v-4.3ZM260.87,21.5l7.3-3.14L268,17.27l-9.82-.09Zm-27.28.57,7.59-4.68,3.9,7.83-5.08,4Z"/><polygon class="cls-3" points="303.13 29.62 291.38 44.92 283.11 38.2 297.67 22.2 297.5 4.79 308.42 4.79 308.26 22.2 323.13 38.21 314.87 44.92 303.13 29.62"/><polygon class="cls-3" points="351.79 42.87 354 27.33 348.39 26.5 347.48 35.41 337.05 34.74 338.12 25.59 333.97 25.09 335.12 13.58 340.04 14.12 340.9 6.62 351.09 7.84 350.23 15.31 355.71 15.88 356.57 7.72 367.67 8.87 366.77 17.25 370.62 17.82 368.61 28.77 365.25 28.27 363.33 44.59 351.79 42.87"/><polygon class="cls-3" points="392.95 27.7 385.45 30.09 381.84 19.66 406.56 10.52 411.22 21.94 403.44 24.84 404.79 39.46 393.87 40.24 392.95 27.7"/><polygon class="cls-3" points="422.59 7.36 434.25 7.14 434.54 18.97 450.42 18.19 450.94 29.85 435.46 30.59 435.66 43.08 423.58 43.23 422.59 7.36"/><path class="cls-3" d="M473.1,43.44V23.7h11.69V19.41H473.14V10.78h11.65V6h9.65v4.76h5.49v8.63h-5.49V25l5.83,1.73-2.13,8.57-3.7-1.42v9.57ZM482.27,35l2.52-.07V32.24H482.2Zm-20.16,7.68.15-35.78,9.08.15-.12,35.78Z"/><polygon class="cls-3" points="511.89 31.35 527.16 30.86 526.88 21.97 511.72 22.46 511.61 12.25 539.35 11.93 539.75 41.48 512 41.75 511.89 31.35"/><polygon class="cls-3" points="562.18 42.1 564 31.49 551.32 31.82 550.99 22.37 564.05 22 564.43 17.44 553.59 18.06 552.82 8.4 582.68 6.55 583.27 16.38 575.75 16.99 575.75 21.21 583.79 21.01 583.79 31.52 574.49 31.68 573.39 43.15 562.18 42.1"/><path class="cls-3" d="M607.75,41l3.41-11.53L595.78,30l-.84-9.65,28.88-.71L619.3,43.5ZM595.92,7.45,623,7.21l.1,8.88-27,.36Z"/><path class="cls-3" d="M95.91,44.75a.34.34,0,0,1-.29-.15c-1.17-1.65-5.07-7.16-6-8.48a3.09,3.09,0,0,0-2.49-1.5,3.58,3.58,0,0,0-2.49,1.24c-2.41,2.43-8.34,8.14-9,8.79a.37.37,0,0,1-.25.1H60.68a.35.35,0,0,1-.34-.23.32.32,0,0,1,.08-.37c19.42-19.8,29.37-30,29.59-30.43l.3-.56-.59-.24c-.47-.18-7.3-.27-20.31-.28l4.86-8h42.29C113.8,7.41,104.94,15.9,99.84,20.77l-2,1.92c-1.61,1.54-1.73,3-.39,4.75,3.14,4,10.39,13.83,12.54,16.74a.36.36,0,0,1,0,.37.35.35,0,0,1-.33.2Z"/><path class="cls-3" d="M26.63,44.39c-2.44-.09-4.93-.09-7.33-.1H15.59c-.61,0-1.05-.13-1.17-.33s0-.61.25-1.14l2.63-5c2-3.72,4-7.58,5.95-11.39a7.06,7.06,0,0,1,6.9-4.18c1.83,0,3.65,0,5.44-.1,4.18-.14,9.7-8.76,9.93-9.12l.55-.87H32.19c-8.13,0-12.65,0-13.42.06h-.3c-.56,0-.78-.11-.82-.17s-.13-.22.26-1c.27-.54.53-1.08.8-1.61.63-1.3,1.29-2.64,2-3.9a1.62,1.62,0,0,1,1.18-.93c.27,0,28.93.28,39.26.28h2.64a2.52,2.52,0,0,1,.69.06A6.2,6.2,0,0,1,64,6L61.9,10.12c-2.18,4.29-4.42,8.72-6.74,13-1.34,2.47-3.72,3.74-7.08,3.79H48c-.56,0-1.11-.05-1.69-.09l-.54,0c-.48,0-.95-.05-1.42-.05-5,0-8.37,2.16-10.29,6.62-.92,2.11-2,4.18-3.14,6.19-.61,1.12-1.22,2.25-1.8,3.38a2.26,2.26,0,0,1-2.28,1.47Z"/><path class="cls-3" d="M131.89,45c-1.55,0-3.09,0-4.64,0h-7.6c-.57,0-1-.12-1.12-.34a1.67,1.67,0,0,1,.12-1.35c.65-1.71,6-23.33,9.06-36.07l.06-.27c.29-1.14.74-1.53,1.79-1.53h.15c.47,0,1.29,0,2.29,0h0c2.49,0,6.13,0,8.45-.06l1.71,0c.74,0,.9.14.93.19s.14.27-.1,1.07a58.67,58.67,0,0,0-1.92,7.83,3.19,3.19,0,0,0,1.68,2.79c5.33,2.33,10.91,4.65,17,7.08,1.17.47,1.42,1,1.07,2.29-.51,1.88-1,3.77-1.49,5.66l-.64,2.47c-.2.79-.51.79-.67.79a3.56,3.56,0,0,1-1.19-.36c-2.47-1-8.74-3.74-12.89-5.53l-3.2-1.38a4,4,0,0,0-1.52-.36c-1.13,0-1.87.73-2.22,2.16-.39,1.6-.8,3.2-1.2,4.79-.7,2.75-1.42,5.59-2.05,8.41-.31,1.38-.68,1.74-1.81,1.74Z"/><path class="cls-3" d="M196.64,45.33l-1,0c-2.48-.16-9.49-.2-14.93-.2-6.24,0-12.38,0-15,.07h0c-.95,0-1.19-.16-1.26-.26s-.15-.34.13-1.1a14.12,14.12,0,0,0,.73-2.6c.55-3.26.55-3.26,3-3.26h1.75q5.24,0,10.45,0h4.57c4.7,0,8.08-3.15,8.83-8.11.3-2,1.45-6.74,2.47-10.91.88-3.61,1.71-7,1.89-8.28.46-3.14,1.23-3.86,4.14-3.86l2.31,0c1.88,0,3.76,0,5.64,0h2.39c.66,0,1.07.09,1.2.26s.19.49,0,1.44c-1.93,8.08-3.78,16.32-5.56,24.3l-.45,2C206.88,39.68,204.06,45.33,196.64,45.33Z"/><path class="cls-3" d="M170,17.86c-.41,0-.7-.07-.8-.2s-.1-.42,0-.82l.55-2.25c.6-2.44,1.22-5,1.78-7.45a1.62,1.62,0,0,1,1.91-1.5c3,0,6,.05,9,.05l5.85,0h0c.81,0,1.07.14,1.16.25s.16.38-.08,1.2c-.7,2.46-1.34,5.19-2,8.61-.31,1.56-.89,2.12-2.21,2.12h-.29c-.73,0-2.24-.06-4.5-.06-4.23,0-9.73.07-10.34.08Z"/></g></g></svg>